{"glyphs":{"0":{"ha":631,"x_min":54,"x_max":575,"o":"m 575 496 q 562 286 575 379 q 518 126 549 193 q 438 22 488 58 q 315 -14 388 -14 q 173 35 231 -14 q 85 197 115 85 q 54 496 54 308 q 83 782 54 669 q 169 950 111 894 q 315 1006 226 1006 q 460 949 403 1006 q 547 778 518 892 q 575 496 575 665 m 215 496 q 224 290 215 371 q 256 169 233 208 q 314 129 278 129 q 374 169 351 129 q 406 290 396 208 q 415 496 415 372 q 406 699 415 618 q 374 822 396 781 q 314 863 351 863 q 256 822 278 863 q 224 701 233 782 q 215 496 215 619 z "},"1":{"ha":631,"x_min":74,"x_max":464,"o":"m 464 0 l 304 0 l 304 613 q 305 674 304 644 q 306 735 306 704 q 308 794 307 765 q 287 765 300 782 q 253 728 274 749 l 167 642 l 74 736 l 324 992 l 464 992 l 464 0 z "},"2":{"ha":631,"x_min":43,"x_max":561,"o":"m 561 0 l 43 0 l 43 117 l 235 390 q 328 533 296 475 q 372 639 360 592 q 385 738 385 686 q 356 830 385 796 q 274 864 328 864 q 199 845 233 864 q 122 781 164 826 l 43 888 q 121 956 83 931 q 200 994 158 982 q 290 1006 242 1006 q 425 973 368 1006 q 513 882 482 940 q 544 746 544 824 q 528 613 544 675 q 475 488 513 551 q 375 342 438 424 l 232 147 l 232 142 l 561 142 l 561 0 z "},"3":{"ha":631,"x_min":47,"x_max":567,"o":"m 549 758 q 530 656 549 703 q 474 576 511 610 q 382 521 438 542 l 382 517 q 520 435 474 497 q 567 276 567 374 q 531 124 567 189 q 429 22 496 58 q 268 -14 363 -14 q 154 -3 206 -14 q 49 31 103 7 l 49 183 q 148 140 97 154 q 247 125 199 125 q 363 167 326 125 q 400 283 400 210 q 379 372 400 338 q 317 424 358 407 q 208 442 275 442 l 158 442 l 158 578 l 211 578 q 310 598 269 578 q 371 654 350 618 q 392 740 392 690 q 361 834 392 801 q 272 867 331 867 q 217 859 243 867 q 166 836 192 851 q 114 799 140 821 l 47 914 q 165 985 106 964 q 300 1006 225 1006 q 482 941 415 1006 q 549 758 549 876 z "},"4":{"ha":631,"x_min":24,"x_max":613,"o":"m 613 207 l 511 207 l 511 0 l 354 0 l 354 207 l 24 207 l 24 336 l 350 997 l 511 997 l 511 340 l 613 340 l 613 207 m 354 625 q 355 660 354 639 q 356 704 356 681 q 358 748 357 728 q 358 778 358 768 l 353 778 q 332 719 343 747 q 308 667 321 692 l 157 340 l 354 340 l 354 625 z "},"5":{"ha":631,"x_min":68,"x_max":569,"o":"m 329 625 q 456 587 401 625 q 540 481 510 549 q 569 324 569 414 q 535 144 569 219 q 433 27 500 68 q 264 -14 365 -14 q 156 -3 204 -14 q 68 31 107 8 l 68 183 q 159 141 111 157 q 253 125 207 125 q 338 150 304 125 q 390 219 372 175 q 407 318 407 263 q 368 446 407 403 q 256 489 329 489 q 196 483 226 489 q 135 467 165 478 l 78 513 l 107 992 l 517 992 l 517 849 l 242 849 l 226 613 q 281 622 256 619 q 329 625 307 625 z "},"6":{"ha":631,"x_min":56,"x_max":579,"o":"m 56 421 q 67 613 56 524 q 103 774 78 701 q 169 899 128 847 q 271 978 211 950 q 411 1006 331 1006 q 473 1003 443 1006 q 531 993 503 1000 l 531 854 q 479 865 506 861 q 422 868 453 868 q 333 847 372 868 q 266 784 293 826 q 224 678 239 742 q 206 528 208 614 l 211 528 q 249 589 226 564 q 302 627 272 614 q 367 640 332 640 q 484 600 436 640 q 556 488 532 560 q 579 324 579 417 q 550 149 579 225 q 465 29 521 72 q 325 -14 408 -14 q 211 15 261 -14 q 126 100 161 44 q 74 237 92 156 q 56 421 56 318 m 322 126 q 394 174 368 126 q 421 319 421 222 q 396 456 421 410 q 322 503 371 503 q 265 481 289 503 q 229 426 242 460 q 217 353 217 393 q 223 273 217 313 q 242 200 229 233 q 274 147 254 167 q 322 126 294 126 z "},"7":{"ha":631,"x_min":46,"x_max":581,"o":"m 124 0 l 418 849 l 46 849 l 46 992 l 581 992 l 581 879 l 293 0 l 124 0 z "},"8":{"ha":631,"x_min":44,"x_max":586,"o":"m 317 1006 q 449 977 394 1006 q 533 896 504 949 q 563 771 563 843 q 547 671 563 717 q 499 588 531 625 q 415 519 467 551 q 508 442 471 482 q 566 358 546 403 q 586 256 586 313 q 553 113 586 174 q 460 19 519 53 q 318 -14 401 -14 q 169 18 231 -14 q 76 109 108 50 q 44 250 44 168 q 61 355 44 307 q 113 443 78 403 q 201 518 149 483 q 128 594 157 554 q 84 677 99 633 q 69 769 69 721 q 99 896 69 843 q 185 977 129 949 q 317 1006 240 1006 m 199 253 q 228 154 199 192 q 314 117 258 117 q 402 155 372 117 q 432 254 432 193 q 422 313 432 285 q 389 369 411 342 q 331 425 367 397 l 307 442 q 244 385 268 414 q 210 324 221 357 q 199 253 199 292 m 315 875 q 248 844 274 875 q 222 758 222 813 q 233 697 222 725 q 263 644 243 668 q 314 597 283 621 q 371 648 350 624 q 401 699 392 672 q 411 758 411 726 q 385 844 411 813 q 315 875 358 875 z "},"9":{"ha":631,"x_min":49,"x_max":572,"o":"m 572 578 q 560 381 572 472 q 521 218 547 290 q 453 93 494 146 q 351 13 411 40 q 214 -14 292 -14 q 151 -10 185 -14 q 94 0 118 -6 l 94 139 q 145 128 118 132 q 203 124 172 124 q 301 149 260 124 q 367 221 342 175 q 406 328 393 267 q 422 464 419 390 l 417 464 q 377 403 400 428 q 325 365 354 378 q 260 351 296 351 q 143 392 190 351 q 72 505 96 433 q 49 668 49 576 q 77 844 49 768 q 164 963 106 919 q 307 1006 222 1006 q 419 977 371 1006 q 503 894 468 949 q 555 759 538 839 q 572 578 572 679 m 307 865 q 233 817 260 865 q 207 672 207 769 q 232 535 207 582 q 306 489 257 489 q 365 513 342 489 q 400 573 389 536 q 411 646 411 610 q 407 710 411 674 q 392 783 403 747 q 360 842 382 819 q 307 865 339 865 z "},"\u0000":{"ha":0,"x_min":0,"x_max":0,"o":""},"\r":{"ha":251,"x_min":0,"x_max":0,"o":""}," ":{"ha":251,"x_min":0,"x_max":0,"o":""},"!":{"ha":346,"x_min":78,"x_max":268,"o":"m 236 306 l 110 306 l 81 992 l 264 992 l 236 306 m 78 90 q 101 168 78 142 q 174 194 125 194 q 243 169 218 194 q 268 90 268 143 q 242 13 268 39 q 174 -14 215 -14 q 103 13 128 -14 q 78 90 78 39 z "},"\"":{"ha":582,"x_min":71,"x_max":513,"o":"m 243 992 l 218 633 l 96 633 l 71 992 l 243 992 m 513 992 l 488 633 l 364 633 l 339 992 l 513 992 z "},"#":{"ha":683,"x_min":28,"x_max":663,"o":"m 531 601 l 506 404 l 629 404 l 629 288 l 492 288 l 454 0 l 336 0 l 375 288 l 257 288 l 221 0 l 107 0 l 143 288 l 28 288 l 28 404 l 158 404 l 183 601 l 60 601 l 60 718 l 199 718 l 235 992 l 350 992 l 314 718 l 432 718 l 467 992 l 582 992 l 544 718 l 663 718 l 663 601 l 531 601 m 274 404 l 390 404 l 417 601 l 299 601 l 274 404 z "},"$":{"ha":631,"x_min":58,"x_max":574,"o":"m 278 63 q 163 78 218 65 q 63 113 107 92 l 63 257 q 163 208 106 229 q 278 185 221 188 l 278 453 q 153 518 201 483 q 81 599 104 553 q 58 710 58 646 q 86 828 58 778 q 163 908 114 878 q 278 946 213 939 l 278 1054 l 358 1054 l 358 949 q 460 932 410 946 q 556 893 510 918 l 518 774 q 440 806 481 794 q 358 821 400 817 l 358 560 q 479 498 432 531 q 550 422 526 465 q 574 314 574 378 q 517 153 574 219 q 358 68 461 86 l 358 -81 l 278 -81 l 278 63 m 358 194 q 424 235 403 206 q 446 304 446 264 q 437 352 446 332 q 408 388 428 372 q 358 418 388 404 l 358 194 m 278 819 q 227 799 247 814 q 198 762 207 785 q 189 710 189 739 q 197 660 189 681 q 226 625 206 640 q 278 594 246 610 l 278 819 z "},"%":{"ha":1015,"x_min":47,"x_max":968,"o":"m 229 1006 q 366 924 317 1006 q 415 696 415 842 q 367 465 415 547 q 231 383 318 383 q 95 467 143 383 q 47 696 47 550 q 94 925 47 844 q 229 1006 142 1006 m 231 894 q 185 845 199 894 q 171 696 171 796 q 185 544 171 593 q 231 494 199 494 q 276 543 263 494 q 290 694 290 592 q 275 846 290 797 q 231 894 260 894 m 751 992 l 382 0 l 261 0 l 631 992 l 751 992 m 783 610 q 919 528 869 610 q 968 300 968 446 q 920 69 968 150 q 783 -12 872 -12 q 648 72 696 -12 q 600 300 600 156 q 648 531 600 451 q 783 610 696 610 m 783 500 q 738 450 751 500 q 724 299 724 400 q 738 148 724 197 q 783 99 751 99 q 830 151 817 99 q 843 299 843 203 q 829 447 843 394 q 783 500 815 500 z "},"&":{"ha":750,"x_min":38,"x_max":754,"o":"m 322 1004 q 433 978 388 1004 q 501 904 478 953 q 524 786 524 856 q 490 642 524 706 q 392 522 457 578 l 514 332 q 540 408 531 365 q 554 504 550 451 l 715 504 q 683 345 708 428 q 615 194 657 263 l 754 0 l 560 0 l 507 85 q 440 32 475 54 q 365 -2 406 10 q 274 -14 324 -14 q 142 22 194 -14 q 63 118 89 57 q 38 260 38 179 q 54 369 38 319 q 106 462 71 419 q 196 542 142 504 q 150 622 168 583 q 124 701 132 660 q 115 789 115 742 q 140 903 115 856 q 213 978 165 951 q 322 1004 260 1004 m 269 442 q 227 392 243 418 q 203 337 211 367 q 196 268 196 307 q 224 166 196 206 q 299 126 251 126 q 367 145 338 126 q 424 203 396 164 l 269 442 m 321 886 q 278 861 294 886 q 263 788 263 836 q 276 703 263 749 q 315 624 289 658 q 365 698 350 654 q 381 792 381 742 q 365 863 381 839 q 321 886 349 886 z "},"'":{"ha":313,"x_min":71,"x_max":243,"o":"m 243 992 l 218 633 l 96 633 l 71 992 l 243 992 z "},"(":{"ha":422,"x_min":65,"x_max":397,"o":"m 65 388 q 88 622 65 511 q 155 831 111 733 q 257 1007 199 928 l 397 1007 q 262 717 307 872 q 217 389 217 561 q 238 174 217 279 q 298 -31 258 68 q 396 -219 338 -129 l 257 -219 q 153 -44 196 -139 q 88 159 110 50 q 65 388 65 268 z "},")":{"ha":422,"x_min":26,"x_max":358,"o":"m 358 388 q 335 159 358 268 q 269 -45 313 50 q 165 -219 226 -140 l 26 -219 q 124 -30 85 -128 q 185 174 164 68 q 206 389 206 279 q 186 613 206 506 q 126 818 167 719 q 26 1007 86 917 l 165 1007 q 269 830 225 928 q 335 621 313 732 q 358 388 358 510 z "},"*":{"ha":593,"x_min":38,"x_max":556,"o":"m 372 1058 l 349 867 l 524 926 l 556 786 l 379 768 l 508 615 l 385 535 l 296 710 l 206 533 l 85 615 l 211 768 l 38 785 l 69 926 l 243 867 l 221 1058 l 372 1058 z "},"+":{"ha":635,"x_min":44,"x_max":589,"o":"m 382 554 l 589 554 l 589 426 l 382 426 l 382 161 l 253 161 l 253 426 l 44 426 l 44 554 l 253 554 l 253 822 l 382 822 l 382 554 z "},",":{"ha":339,"x_min":47,"x_max":271,"o":"m 271 160 q 244 35 258 94 q 211 -81 229 -25 q 172 -186 193 -136 l 47 -186 q 72 -67 61 -132 q 93 62 83 -1 q 106 175 103 125 l 263 175 l 271 160 z "},"-":{"ha":407,"x_min":39,"x_max":369,"o":"m 39 299 l 39 449 l 369 449 l 369 299 l 39 299 z "},".":{"ha":339,"x_min":75,"x_max":265,"o":"m 75 90 q 99 168 75 142 q 171 194 124 194 q 240 169 215 194 q 265 90 265 143 q 240 13 265 39 q 171 -14 214 -14 q 101 13 126 -14 q 75 90 75 39 z "},"/":{"ha":544,"x_min":18,"x_max":531,"o":"m 531 999 l 158 -7 l 18 -7 l 392 999 l 531 999 z "},":":{"ha":344,"x_min":78,"x_max":267,"o":"m 78 90 q 102 168 78 142 q 174 194 126 194 q 242 169 217 194 q 267 90 267 143 q 241 13 267 39 q 174 -14 215 -14 q 103 13 128 -14 q 78 90 78 39 m 78 656 q 102 734 78 707 q 174 761 126 761 q 242 734 218 761 q 267 656 267 707 q 241 578 267 604 q 174 551 215 551 q 103 578 128 551 q 78 656 78 606 z "},";":{"ha":344,"x_min":47,"x_max":271,"o":"m 271 160 q 244 35 260 94 q 211 -81 229 -25 q 172 -186 193 -136 l 47 -186 q 66 -97 57 -144 q 83 -2 75 -50 q 96 91 90 46 q 106 175 101 136 l 263 175 l 271 160 m 78 656 q 102 734 78 707 q 174 761 126 761 q 242 734 218 761 q 267 656 267 707 q 241 578 267 604 q 174 551 215 551 q 103 578 128 551 q 78 656 78 606 z "},"<":{"ha":635,"x_min":40,"x_max":590,"o":"m 590 174 l 40 454 l 40 540 l 590 819 l 590 675 l 219 496 l 590 315 l 590 174 z "},"=":{"ha":635,"x_min":44,"x_max":589,"o":"m 44 576 l 44 704 l 589 704 l 589 576 l 44 576 m 44 274 l 44 403 l 589 403 l 589 274 l 44 274 z "},">":{"ha":635,"x_min":43,"x_max":593,"o":"m 43 315 l 414 496 l 43 675 l 43 819 l 593 540 l 593 454 l 43 174 l 43 315 z "},"?":{"ha":486,"x_min":11,"x_max":461,"o":"m 142 353 q 149 436 142 400 q 175 505 157 472 q 222 571 193 538 q 272 636 254 607 q 299 694 290 665 q 308 757 308 722 q 284 838 308 811 q 213 865 260 865 q 140 851 175 865 q 65 808 104 836 l 11 929 q 116 987 63 968 q 225 1006 169 1006 q 401 944 340 1006 q 461 771 461 882 q 448 667 461 711 q 408 583 435 622 q 342 499 382 544 q 295 440 311 465 q 274 392 279 415 q 269 336 269 368 l 269 306 l 142 306 l 142 353 m 111 90 q 135 168 111 142 q 207 194 160 194 q 276 169 251 194 q 301 90 301 143 q 276 13 301 39 q 207 -14 250 -14 q 137 13 163 -14 q 111 90 111 39 z "},"@":{"ha":965,"x_min":60,"x_max":908,"o":"m 908 506 q 894 360 908 425 q 856 251 881 296 q 795 182 831 206 q 717 158 760 158 q 630 188 661 158 q 588 272 599 218 l 581 272 q 528 186 560 214 q 454 158 497 158 q 328 226 372 158 q 283 418 283 294 q 311 590 283 518 q 391 701 339 663 q 515 739 443 739 q 596 731 554 739 q 674 707 638 722 l 663 419 q 660 378 661 400 q 660 342 660 357 q 674 280 660 300 q 711 260 688 260 q 756 285 738 260 q 783 365 774 310 q 792 508 792 419 q 758 714 792 625 q 660 853 724 803 q 504 901 596 903 q 358 860 419 901 q 256 750 296 819 q 196 593 215 681 q 176 413 176 506 q 209 194 176 290 q 310 44 242 99 q 483 -11 379 -11 q 601 5 542 -11 q 713 46 661 21 l 713 -62 q 606 -100 663 -87 q 483 -112 550 -112 q 253 -51 347 -112 q 109 126 158 10 q 60 404 60 242 q 92 652 60 542 q 183 841 124 763 q 323 961 242 919 q 504 1001 404 1003 q 673 965 599 1001 q 800 860 747 928 q 881 703 853 793 q 908 506 908 613 m 406 415 q 423 298 406 336 q 471 260 440 260 q 519 310 503 260 q 542 479 536 361 l 550 636 q 531 640 540 639 q 510 642 521 642 q 454 615 478 642 q 418 539 431 589 q 406 415 406 489 z "},"A":{"ha":690,"x_min":0,"x_max":690,"o":"m 518 0 l 458 265 l 233 265 l 175 0 l 0 0 l 240 992 l 446 992 l 690 0 l 518 0 m 371 696 q 360 755 365 726 q 352 810 356 783 q 344 860 349 836 q 339 811 343 838 q 330 756 335 785 q 318 697 325 726 l 258 410 l 432 410 l 371 696 z "},"B":{"ha":706,"x_min":93,"x_max":649,"o":"m 339 992 q 557 931 483 992 q 631 750 631 871 q 615 642 631 689 q 568 567 599 596 q 493 526 538 538 l 493 519 q 582 476 547 506 q 633 399 617 446 q 649 286 649 351 q 616 135 649 200 q 522 35 583 71 q 371 0 460 0 l 93 0 l 93 992 l 339 992 m 339 582 q 435 619 404 582 q 467 729 467 656 q 434 824 467 792 q 336 857 401 857 l 256 857 l 256 582 l 339 582 m 256 450 l 256 138 l 357 138 q 451 178 419 138 q 482 299 482 218 q 467 381 482 347 q 421 433 451 415 q 347 450 390 450 l 256 450 z "},"C":{"ha":651,"x_min":64,"x_max":618,"o":"m 421 864 q 336 835 372 864 q 277 756 300 807 q 243 638 254 706 q 232 494 232 571 q 256 297 232 379 q 323 172 279 215 q 429 129 367 129 q 513 142 474 129 q 590 176 553 156 l 590 31 q 506 -3 551 8 q 407 -14 460 -14 q 222 47 299 -14 q 104 221 144 107 q 64 496 64 335 q 86 697 64 604 q 152 860 108 790 q 261 967 196 929 q 410 1006 326 1006 q 518 992 467 1006 q 618 949 569 979 l 568 814 q 498 851 535 838 q 421 864 461 864 z "},"D":{"ha":754,"x_min":93,"x_max":692,"o":"m 692 511 q 648 231 692 344 q 521 58 604 117 q 314 0 438 0 l 93 0 l 93 992 l 326 992 q 526 937 444 992 q 649 775 607 882 q 692 511 692 668 m 524 504 q 501 699 524 622 q 433 813 478 775 q 322 850 389 850 l 256 850 l 256 143 l 313 143 q 472 233 421 143 q 524 504 524 322 z "},"E":{"ha":581,"x_min":93,"x_max":519,"o":"m 519 0 l 93 0 l 93 992 l 519 992 l 519 851 l 256 851 l 256 586 l 503 586 l 503 446 l 256 446 l 256 143 l 519 143 l 519 0 z "},"F":{"ha":557,"x_min":93,"x_max":518,"o":"m 256 0 l 93 0 l 93 992 l 518 992 l 518 851 l 256 851 l 256 549 l 501 549 l 501 407 l 256 407 l 256 0 z "},"G":{"ha":782,"x_min":64,"x_max":710,"o":"m 421 546 l 710 546 l 710 39 q 572 -1 643 13 q 428 -14 501 -14 q 224 51 306 -14 q 103 231 143 115 q 64 499 64 346 q 108 765 64 651 q 241 942 153 878 q 458 1006 329 1006 q 587 989 526 1006 q 697 943 647 972 l 646 807 q 557 850 603 836 q 464 864 511 864 q 336 822 388 864 q 258 697 285 779 q 232 494 232 614 q 254 303 232 386 q 322 175 276 221 q 439 129 367 129 q 498 134 469 129 q 551 146 526 139 l 551 406 l 421 406 l 421 546 z "},"H":{"ha":781,"x_min":93,"x_max":688,"o":"m 688 0 l 525 0 l 525 446 l 256 446 l 256 0 l 93 0 l 93 992 l 256 992 l 256 588 l 525 588 l 525 992 l 688 992 l 688 0 z "},"I":{"ha":431,"x_min":43,"x_max":388,"o":"m 388 0 l 43 0 l 43 89 l 135 122 l 135 869 l 43 903 l 43 992 l 388 992 l 388 903 l 297 869 l 297 122 l 388 89 l 388 0 z "},"J":{"ha":346,"x_min":-74,"x_max":254,"o":"m 25 -285 q -26 -281 -1 -285 q -74 -269 -51 -278 l -74 -129 q -38 -139 -57 -135 q 3 -143 -19 -143 q 56 -126 36 -143 q 84 -72 75 -110 q 93 31 93 -35 l 93 992 l 254 992 l 254 28 q 228 -157 254 -89 q 151 -255 201 -225 q 25 -285 100 -285 z "},"K":{"ha":676,"x_min":93,"x_max":685,"o":"m 685 0 l 504 0 l 321 425 l 256 358 l 256 0 l 93 0 l 93 992 l 256 992 l 256 519 q 281 577 264 543 q 322 657 297 611 l 503 992 l 678 992 l 435 551 l 685 0 z "},"L":{"ha":546,"x_min":93,"x_max":524,"o":"m 93 0 l 93 992 l 256 992 l 256 143 l 524 143 l 524 0 l 93 0 z "},"M":{"ha":1044,"x_min":93,"x_max":951,"o":"m 454 0 l 243 769 l 238 769 q 242 684 240 724 q 245 613 244 644 q 246 558 246 582 l 246 0 l 93 0 l 93 992 l 319 992 l 521 264 l 525 264 l 726 992 l 951 992 l 951 0 l 794 0 l 794 558 q 795 617 794 585 q 798 687 796 649 q 803 769 800 725 l 797 769 l 586 0 l 454 0 z "},"N":{"ha":836,"x_min":93,"x_max":743,"o":"m 743 0 l 550 0 l 242 736 l 236 736 q 242 651 240 692 q 245 578 244 611 q 246 515 246 544 l 246 0 l 93 0 l 93 992 l 286 992 l 594 271 l 599 271 q 594 353 596 315 q 590 426 592 392 q 589 486 589 460 l 589 992 l 743 992 l 743 0 z "},"O":{"ha":801,"x_min":64,"x_max":739,"o":"m 739 497 q 719 290 739 383 q 657 128 699 196 q 552 23 615 60 q 401 -14 489 -14 q 250 24 314 -14 q 144 129 186 61 q 83 291 103 197 q 64 499 64 385 q 102 779 64 667 q 215 949 140 892 q 401 1007 290 1007 q 592 942 518 1007 q 703 764 667 878 q 739 497 739 650 m 232 497 q 251 295 232 376 q 308 172 271 214 q 401 131 346 131 q 494 171 457 131 q 550 292 531 211 q 569 497 569 374 q 528 773 569 682 q 401 864 486 864 q 308 822 346 864 q 251 699 269 781 q 232 497 232 618 z "},"P":{"ha":656,"x_min":93,"x_max":614,"o":"m 319 992 q 542 915 469 992 q 614 690 614 839 q 595 554 614 614 q 539 452 576 494 q 445 387 501 410 q 313 364 389 364 l 256 364 l 256 0 l 93 0 l 93 992 l 319 992 m 310 851 l 256 851 l 256 504 l 297 504 q 384 522 350 504 q 435 581 418 540 q 451 689 451 622 q 417 813 451 775 q 310 851 382 851 z "},"Q":{"ha":801,"x_min":64,"x_max":739,"o":"m 739 497 q 718 283 739 376 q 658 125 697 189 q 560 26 618 61 l 718 -236 l 531 -236 l 408 -12 q 399 -12 406 -12 q 389 -12 393 -12 q 242 26 304 -12 q 141 135 181 65 q 83 298 101 206 q 64 499 64 390 q 102 779 64 667 q 215 949 140 892 q 401 1007 290 1007 q 586 949 511 1007 q 700 778 661 892 q 739 497 739 665 m 232 497 q 251 295 232 376 q 308 172 271 214 q 401 131 346 131 q 494 171 457 131 q 550 292 531 211 q 569 497 569 374 q 528 773 569 682 q 401 864 486 864 q 308 822 346 864 q 251 699 269 781 q 232 497 232 618 z "},"R":{"ha":685,"x_min":93,"x_max":676,"o":"m 303 992 q 480 960 410 992 q 584 865 550 928 q 618 707 618 803 q 603 594 618 644 q 556 505 588 543 q 474 439 524 467 l 676 0 l 496 0 l 329 399 l 256 399 l 256 0 l 93 0 l 93 992 l 303 992 m 303 851 l 256 851 l 256 529 l 310 529 q 417 572 381 529 q 453 699 453 614 q 437 786 453 753 q 388 835 421 819 q 303 851 354 851 z "},"S":{"ha":596,"x_min":47,"x_max":550,"o":"m 550 283 q 515 130 550 197 q 417 24 479 63 q 269 -14 354 -14 q 190 -9 228 -14 q 117 7 153 -4 q 47 36 82 18 l 47 203 q 156 154 99 171 q 261 138 213 138 q 329 155 301 138 q 371 202 357 172 q 385 267 385 232 q 373 333 385 306 q 331 388 361 361 q 244 444 300 414 q 165 497 200 469 q 105 556 129 524 q 67 631 81 588 q 54 733 54 675 q 88 876 54 815 q 181 972 121 938 q 325 1006 242 1007 q 441 990 386 1006 q 544 949 496 975 l 497 803 q 410 843 453 831 q 331 856 368 856 q 269 841 294 856 q 231 801 244 826 q 218 742 218 775 q 230 672 218 700 q 273 621 242 644 q 361 564 304 597 q 467 489 425 529 q 529 399 508 449 q 550 283 550 349 z "},"T":{"ha":571,"x_min":17,"x_max":551,"o":"m 365 0 l 204 0 l 204 849 l 17 849 l 17 992 l 551 992 l 551 849 l 365 849 l 365 0 z "},"U":{"ha":760,"x_min":88,"x_max":672,"o":"m 672 321 q 639 133 672 207 q 541 22 606 58 q 379 -14 476 -14 q 163 68 238 -14 q 88 318 88 150 l 88 992 l 250 992 l 250 321 q 283 175 250 219 q 381 131 317 131 q 453 150 424 131 q 497 212 482 169 q 511 322 511 254 l 511 992 l 672 992 l 672 321 z "},"V":{"ha":675,"x_min":0,"x_max":675,"o":"m 675 992 l 431 0 l 243 0 l 0 992 l 169 992 l 301 390 q 315 322 308 360 q 327 246 321 283 q 336 178 333 208 q 347 245 340 208 q 360 321 353 282 q 374 392 367 360 l 506 992 l 675 992 z "},"W":{"ha":1047,"x_min":3,"x_max":1044,"o":"m 1044 992 l 846 0 l 658 0 l 553 532 q 546 577 550 553 q 538 629 542 601 q 531 690 535 657 q 524 757 526 722 q 517 704 521 732 q 510 647 514 676 q 503 588 507 617 q 493 533 499 560 l 389 0 l 203 0 l 3 992 l 164 992 l 265 450 q 276 383 271 418 q 287 315 282 349 q 296 248 292 281 q 303 189 300 215 q 313 256 307 221 q 324 325 318 290 q 334 390 329 360 q 344 447 339 421 l 454 992 l 594 992 l 699 449 q 710 391 704 422 q 720 326 715 360 q 730 258 725 292 q 739 189 735 224 q 750 276 744 232 q 763 366 756 321 q 778 450 771 411 l 881 992 l 1044 992 z "},"X":{"ha":618,"x_min":4,"x_max":615,"o":"m 615 0 l 440 0 l 313 360 l 174 0 l 4 0 l 221 510 l 25 992 l 193 992 l 310 657 l 425 992 l 596 992 l 403 507 l 615 0 z "},"Y":{"ha":615,"x_min":0,"x_max":615,"o":"m 310 565 l 447 992 l 615 992 l 389 383 l 389 0 l 226 0 l 226 379 l 0 992 l 169 992 l 310 565 z "},"Z":{"ha":560,"x_min":33,"x_max":531,"o":"m 531 0 l 33 0 l 33 119 l 347 850 l 39 850 l 39 992 l 522 992 l 522 872 l 207 143 l 531 143 l 531 0 z "},"[":{"ha":428,"x_min":83,"x_max":393,"o":"m 393 -226 l 83 -226 l 83 1007 l 393 1007 l 393 883 l 229 883 l 229 -103 l 393 -103 l 393 -226 z "},"\\":{"ha":544,"x_min":17,"x_max":529,"o":"m 157 999 l 529 -7 l 389 -7 l 17 999 l 157 999 z "},"]":{"ha":428,"x_min":36,"x_max":344,"o":"m 36 -103 l 200 -103 l 200 883 l 36 883 l 36 1007 l 344 1007 l 344 -226 l 36 -226 l 36 -103 z "},"^":{"ha":665,"x_min":15,"x_max":650,"o":"m 15 414 l 290 992 l 375 992 l 650 414 l 506 414 l 333 786 l 160 414 l 15 414 z "},"_":{"ha":640,"x_min":-3,"x_max":643,"o":"m 643 -224 l -3 -224 l -3 -106 l 643 -106 l 643 -224 z "},"`":{"ha":408,"x_min":56,"x_max":353,"o":"m 235 1064 q 270 994 249 1033 q 314 919 292 956 q 353 858 336 882 l 353 842 l 244 842 q 199 885 226 858 q 144 943 172 913 q 93 1002 117 974 q 56 1051 69 1031 l 56 1064 l 235 1064 z "},"a":{"ha":619,"x_min":43,"x_max":539,"o":"m 325 768 q 486 701 433 768 q 539 503 539 633 l 539 0 l 424 0 l 400 101 l 396 101 q 349 37 375 63 q 291 -1 324 11 q 215 -14 258 -14 q 117 19 156 -14 q 61 105 79 51 q 43 218 43 158 q 108 395 43 335 q 293 461 172 456 l 383 465 l 383 503 q 363 608 383 574 q 294 643 342 643 q 225 631 263 643 q 144 592 188 618 l 100 708 q 206 753 149 739 q 325 768 263 768 m 328 356 q 231 320 263 353 q 200 224 200 288 q 219 139 200 167 q 276 111 239 111 q 355 158 325 111 q 385 288 385 206 l 385 360 l 328 356 z "},"b":{"ha":675,"x_min":82,"x_max":622,"o":"m 238 778 q 236 726 238 756 q 232 656 235 696 l 239 656 q 310 740 269 714 q 403 767 351 767 q 565 666 507 767 q 622 379 622 565 q 597 167 622 256 q 522 33 571 79 q 403 -14 474 -14 q 313 9 351 -14 q 239 86 274 32 l 231 86 l 208 0 l 82 0 l 82 1056 l 238 1056 l 238 778 m 356 633 q 284 603 310 633 q 248 520 258 574 q 238 394 238 467 l 238 361 q 267 177 238 236 q 357 118 296 118 q 437 182 410 118 q 464 381 464 246 q 438 570 464 507 q 356 633 411 633 z "},"c":{"ha":526,"x_min":54,"x_max":497,"o":"m 324 -14 q 174 28 235 -14 q 83 157 113 71 q 54 374 54 243 q 83 580 54 492 q 173 718 113 668 q 326 768 233 768 q 420 757 379 768 q 497 724 461 746 l 453 599 q 395 625 424 617 q 339 633 367 633 q 269 604 297 633 q 226 517 240 575 q 211 374 211 460 q 226 233 211 290 q 269 149 240 176 q 342 121 299 121 q 413 133 376 121 q 485 168 449 146 l 485 36 q 408 -1 451 11 q 324 -14 365 -14 z "},"d":{"ha":675,"x_min":53,"x_max":593,"o":"m 275 -14 q 110 89 167 -14 q 53 378 53 192 q 110 666 53 564 q 271 768 167 768 q 336 756 306 768 q 392 719 367 744 q 436 658 418 694 l 443 658 q 440 726 442 697 q 438 776 438 754 l 438 1056 l 593 1056 l 593 0 l 468 0 l 447 88 l 438 88 q 393 31 417 54 q 341 -3 369 8 q 275 -14 313 -14 m 319 117 q 408 174 379 117 q 438 350 438 231 l 438 393 q 410 575 438 517 q 318 633 382 633 q 238 568 264 633 q 211 378 211 503 q 238 183 211 249 q 319 117 265 117 z "},"e":{"ha":614,"x_min":54,"x_max":565,"o":"m 315 767 q 453 724 397 767 q 537 606 508 681 q 565 429 565 531 l 565 336 l 207 336 q 246 169 208 224 q 358 114 283 114 q 446 126 404 114 q 533 168 488 139 l 533 36 q 442 -1 490 11 q 339 -14 394 -14 q 174 35 238 -14 q 83 170 111 83 q 54 372 54 257 q 83 588 54 500 q 171 722 113 676 q 315 767 229 767 m 318 644 q 240 599 268 644 q 208 451 211 553 l 421 451 q 409 551 421 508 q 375 619 397 594 q 318 644 353 644 z "},"f":{"ha":390,"x_min":11,"x_max":421,"o":"m 376 625 l 256 625 l 256 0 l 100 0 l 100 625 l 11 625 l 11 708 l 100 756 l 100 788 q 118 940 100 879 q 177 1032 136 1001 q 288 1063 218 1063 q 353 1056 324 1063 q 421 1035 383 1050 l 385 917 q 349 927 367 924 q 315 931 332 931 q 269 901 282 931 q 256 796 256 871 l 256 754 l 376 754 l 376 625 z "},"g":{"ha":675,"x_min":53,"x_max":593,"o":"m 275 768 q 367 742 329 768 q 436 657 406 717 l 446 657 l 460 754 l 593 754 l 593 21 q 560 -172 593 -92 q 460 -292 528 -251 q 283 -333 392 -333 q 179 -322 226 -333 q 89 -285 132 -310 l 89 -144 q 188 -185 140 -172 q 279 -199 235 -199 q 397 -160 356 -199 q 438 -28 438 -121 l 438 -11 q 440 43 438 13 q 444 103 442 74 l 438 103 q 367 15 407 43 q 271 -14 328 -14 q 110 86 168 -14 q 53 372 53 186 q 113 667 53 565 q 275 768 172 768 m 317 633 q 258 603 282 633 q 222 516 233 574 q 211 371 211 458 q 238 181 211 242 q 321 121 265 121 q 372 135 350 121 q 409 176 394 149 q 431 247 424 204 q 438 346 438 289 l 438 383 q 425 526 438 471 q 386 607 413 581 q 317 633 360 633 z "},"h":{"ha":672,"x_min":82,"x_max":592,"o":"m 238 797 q 235 724 238 760 q 225 656 232 689 l 236 656 q 274 717 250 692 q 330 756 299 743 q 399 768 361 768 q 506 738 463 768 q 570 648 549 707 q 592 503 592 589 l 592 0 l 436 0 l 436 463 q 418 590 436 550 q 356 629 400 629 q 286 602 313 629 q 249 518 260 575 q 238 374 238 461 l 238 0 l 82 0 l 82 1056 l 238 1056 l 238 797 z "},"i":{"ha":322,"x_min":75,"x_max":247,"o":"m 239 754 l 239 0 l 83 0 l 83 754 l 239 754 m 161 1046 q 226 1022 206 1046 q 247 951 247 997 q 226 882 247 906 q 161 858 204 858 q 98 882 121 858 q 75 951 75 906 q 96 1022 75 999 q 161 1046 117 1046 z "},"j":{"ha":322,"x_min":-31,"x_max":247,"o":"m 56 -333 q 10 -330 32 -333 q -31 -319 -11 -326 l -31 -185 q -3 -193 -17 -190 q 22 -196 10 -196 q 69 -169 54 -196 q 83 -89 83 -143 l 83 754 l 239 754 l 239 -94 q 217 -229 239 -176 q 155 -307 196 -282 q 56 -333 114 -332 m 75 951 q 97 1022 75 999 q 161 1046 118 1046 q 226 1022 206 1046 q 247 951 247 997 q 226 882 247 906 q 161 858 204 858 q 98 882 121 858 q 75 951 75 906 z "},"k":{"ha":618,"x_min":82,"x_max":618,"o":"m 238 572 q 236 485 238 528 q 229 400 235 442 l 235 400 q 252 435 243 418 q 269 467 261 451 q 286 497 278 483 l 440 754 l 607 754 l 417 453 l 618 0 l 450 0 l 310 335 l 238 257 l 238 0 l 82 0 l 82 1056 l 238 1056 l 238 572 z "},"l":{"ha":319,"x_min":82,"x_max":238,"o":"m 238 0 l 82 0 l 82 1056 l 238 1056 l 238 0 z "},"m":{"ha":1003,"x_min":82,"x_max":924,"o":"m 738 768 q 878 702 832 768 q 924 500 924 636 l 924 0 l 769 0 l 769 460 q 749 590 769 549 q 686 631 728 631 q 604 572 628 631 q 581 394 581 513 l 581 0 l 425 0 l 425 463 q 417 558 425 521 q 390 613 408 596 q 344 631 372 631 q 278 600 301 631 q 247 512 256 569 q 238 374 238 454 l 238 0 l 82 0 l 82 754 l 206 754 l 222 656 l 232 656 q 272 718 247 693 q 329 756 296 743 q 403 768 363 768 q 505 737 467 768 q 558 656 543 706 l 569 656 q 636 740 596 711 q 738 768 676 768 z "},"n":{"ha":672,"x_min":82,"x_max":592,"o":"m 399 768 q 542 701 492 768 q 592 504 592 635 l 592 0 l 436 0 l 436 463 q 417 588 436 546 q 353 631 399 631 q 264 572 290 631 q 238 374 238 513 l 238 0 l 82 0 l 82 754 l 206 754 l 222 656 l 232 656 q 274 717 249 692 q 331 756 299 743 q 399 768 363 768 z "},"o":{"ha":656,"x_min":53,"x_max":603,"o":"m 603 379 q 587 225 603 296 q 538 101 571 154 q 453 17 506 47 q 326 -14 400 -14 q 206 16 257 -14 q 120 99 154 46 q 69 224 86 153 q 53 379 53 296 q 82 585 53 497 q 172 720 111 672 q 329 768 233 768 q 475 724 414 768 q 569 592 536 679 q 603 379 603 506 m 211 376 q 224 234 211 292 q 262 147 236 176 q 328 118 288 118 q 394 147 369 118 q 432 235 419 176 q 444 378 444 293 q 432 522 444 465 q 394 608 419 579 q 328 636 369 636 q 239 572 267 636 q 211 376 211 508 z "},"p":{"ha":675,"x_min":82,"x_max":622,"o":"m 400 768 q 565 668 507 768 q 622 376 622 568 q 597 167 622 254 q 522 33 571 79 q 406 -14 474 -14 q 340 -1 371 -14 q 283 37 308 11 q 239 100 257 63 l 232 100 q 236 33 235 63 q 238 -18 238 3 l 238 -333 l 82 -333 l 82 754 l 208 754 l 229 654 l 239 654 q 285 722 261 697 q 338 758 310 747 q 400 768 367 768 m 356 636 q 289 611 315 636 q 250 533 263 586 q 238 397 238 481 l 238 364 q 250 226 238 281 q 289 147 263 172 q 356 121 315 121 q 417 149 393 121 q 452 233 440 176 q 464 375 464 290 q 438 572 464 507 q 356 636 413 636 z "},"q":{"ha":675,"x_min":53,"x_max":593,"o":"m 438 -33 q 440 23 438 -11 q 444 103 442 57 l 438 103 q 365 15 407 43 q 271 -14 324 -14 q 110 86 168 -14 q 53 374 53 186 q 80 588 53 500 q 156 722 107 676 q 275 768 206 768 q 367 742 329 768 q 436 657 406 717 l 446 657 l 460 754 l 593 754 l 593 -333 l 438 -333 l 438 -33 m 321 121 q 385 146 360 121 q 424 221 411 171 q 438 346 438 271 l 438 383 q 409 574 438 514 q 318 633 381 633 q 238 567 264 633 q 211 371 211 501 q 238 181 211 242 q 321 121 265 121 z "},"r":{"ha":460,"x_min":83,"x_max":447,"o":"m 385 768 q 415 766 400 768 q 447 758 431 764 l 431 594 q 403 602 418 600 q 371 604 389 604 q 315 589 339 604 q 273 544 290 574 q 247 476 256 515 q 239 388 239 436 l 239 0 l 83 0 l 83 754 l 203 754 l 225 628 l 233 628 q 271 699 249 667 q 322 749 293 731 q 385 768 350 768 z "},"s":{"ha":501,"x_min":42,"x_max":461,"o":"m 461 214 q 433 90 461 140 q 354 13 406 39 q 231 -14 303 -14 q 129 -3 176 -14 q 43 29 82 8 l 43 182 q 124 140 76 157 q 218 122 171 122 q 284 144 261 122 q 307 206 307 165 q 297 248 307 229 q 263 286 288 267 q 193 331 239 306 q 112 389 146 357 q 60 463 78 421 q 42 561 42 506 q 102 712 42 656 q 265 768 163 768 q 365 754 318 768 q 456 713 411 740 l 408 592 q 343 627 378 614 q 272 640 308 640 q 213 621 233 640 q 192 567 192 601 q 201 526 192 543 q 235 490 210 508 q 306 444 260 472 q 386 385 351 417 q 441 313 421 354 q 461 214 461 272 z "},"t":{"ha":410,"x_min":18,"x_max":388,"o":"m 310 122 q 348 127 328 122 q 388 140 368 132 l 388 17 q 329 -6 361 1 q 260 -14 297 -14 q 164 11 201 -14 q 109 85 126 36 q 92 211 92 135 l 92 625 l 18 625 l 18 710 l 101 750 l 140 917 l 246 917 l 246 754 l 378 754 l 378 625 l 246 625 l 246 221 q 260 147 246 172 q 310 122 274 122 z "},"u":{"ha":672,"x_min":81,"x_max":590,"o":"m 590 754 l 590 0 l 468 0 l 450 99 l 440 99 q 400 37 425 63 q 344 -1 375 11 q 275 -14 313 -14 q 165 19 208 -14 q 101 115 122 53 q 81 263 81 178 l 81 754 l 236 754 l 236 304 q 255 169 236 214 q 315 125 274 125 q 388 152 363 125 q 424 233 414 179 q 435 364 435 286 l 435 754 l 590 754 z "},"v":{"ha":578,"x_min":4,"x_max":574,"o":"m 203 0 l 4 754 l 165 754 l 257 338 q 269 283 264 311 q 278 228 274 256 q 285 169 282 200 l 290 169 q 294 213 292 189 q 303 263 297 236 q 315 319 308 290 l 413 754 l 574 754 l 372 0 l 203 0 z "},"w":{"ha":910,"x_min":10,"x_max":899,"o":"m 482 408 q 474 454 478 431 q 467 502 471 478 q 461 549 464 526 q 456 593 458 572 l 453 593 q 445 547 449 571 q 439 498 442 522 q 433 451 436 474 q 425 408 429 429 l 346 0 l 169 0 l 10 754 l 165 754 l 226 432 q 240 353 233 394 q 252 269 247 311 q 261 183 257 226 l 265 183 q 272 238 268 210 q 280 295 276 265 q 289 357 283 325 q 301 424 294 389 l 367 754 l 543 754 l 607 421 q 619 347 614 386 q 631 267 625 308 q 642 183 638 226 l 647 183 q 653 244 650 211 q 662 312 657 276 q 672 383 667 347 l 747 754 l 899 754 l 736 0 l 557 0 l 482 408 z "},"x":{"ha":572,"x_min":14,"x_max":558,"o":"m 190 388 l 22 754 l 190 754 l 288 511 l 383 754 l 550 754 l 382 383 l 558 0 l 390 0 l 283 261 l 178 0 l 14 0 l 190 388 z "},"y":{"ha":578,"x_min":4,"x_max":574,"o":"m 4 754 l 167 754 l 260 367 q 272 315 267 340 q 281 263 276 289 q 289 213 286 236 l 294 213 q 306 282 297 244 q 324 365 314 319 l 413 754 l 574 754 l 350 -89 q 295 -229 326 -175 q 221 -308 264 -283 q 119 -333 178 -333 q 79 -331 99 -333 q 39 -322 60 -328 l 39 -185 q 67 -192 53 -189 q 93 -194 81 -194 q 139 -183 121 -194 q 171 -141 157 -171 q 199 -57 185 -111 l 215 7 l 4 754 z "},"z":{"ha":471,"x_min":31,"x_max":443,"o":"m 443 0 l 31 0 l 31 99 l 261 624 l 44 624 l 44 754 l 433 754 l 433 647 l 208 131 l 443 131 l 443 0 z "},"{":{"ha":506,"x_min":42,"x_max":460,"o":"m 460 -226 q 300 -204 361 -226 q 210 -133 239 -182 q 182 -1 182 -85 l 182 197 q 169 267 182 239 q 125 310 156 296 q 42 325 94 325 l 42 446 q 122 459 90 446 q 167 501 153 472 q 182 575 182 529 l 182 775 q 208 901 182 853 q 294 974 233 950 q 460 999 356 999 l 460 875 q 389 864 418 874 q 345 831 360 854 q 331 765 331 807 l 331 563 q 301 443 331 485 q 204 390 272 401 l 204 382 q 303 328 275 369 q 331 213 331 286 l 331 8 q 344 -54 331 -29 q 385 -90 357 -79 q 460 -103 413 -101 l 460 -226 z "},"|":{"ha":571,"x_min":215,"x_max":354,"o":"m 215 1064 l 354 1064 l 354 -325 l 215 -325 l 215 1064 z "},"}":{"ha":506,"x_min":46,"x_max":463,"o":"m 46 -103 q 120 -90 92 -101 q 161 -55 149 -79 q 174 8 174 -31 l 174 213 q 203 328 174 288 q 300 382 232 369 l 300 390 q 203 444 232 401 q 174 563 174 486 l 174 765 q 158 831 174 807 q 113 864 142 854 q 46 875 85 874 l 46 999 q 204 976 143 999 q 293 906 265 954 q 321 775 321 857 l 321 575 q 334 505 321 533 q 378 461 347 476 q 463 446 410 446 l 463 325 q 381 311 413 325 q 335 269 350 297 q 321 197 321 240 l 321 -1 q 296 -128 321 -79 q 210 -202 271 -178 q 46 -226 150 -226 l 46 -103 z "},"~":{"ha":635,"x_min":39,"x_max":594,"o":"m 300 428 q 233 456 265 447 q 172 465 201 465 q 108 444 143 465 q 39 383 74 424 l 39 522 q 106 576 69 558 q 185 594 142 594 q 260 583 225 594 q 335 551 296 571 q 402 524 372 533 q 461 514 432 514 q 529 537 493 514 q 594 596 565 560 l 594 457 q 529 406 565 424 q 450 388 493 388 q 374 398 408 388 q 300 428 340 408 z "}," ":{"ha":251,"x_min":0,"x_max":0,"o":""},"¡":{"ha":346,"x_min":81,"x_max":269,"o":"m 110 442 l 236 442 l 264 -257 l 81 -257 l 110 442 m 269 658 q 244 579 269 606 q 175 553 219 553 q 104 581 128 553 q 81 658 81 608 q 104 735 81 708 q 174 763 128 763 q 243 736 217 763 q 269 658 269 710 z "},"¢":{"ha":631,"x_min":93,"x_max":535,"o":"m 399 896 q 471 883 435 893 q 535 854 507 872 l 492 728 q 433 753 463 744 q 379 763 404 763 q 308 735 336 763 q 265 650 279 707 q 251 504 251 593 q 265 360 251 415 q 306 277 278 304 q 378 250 333 250 q 449 263 411 250 q 522 299 488 276 l 522 165 q 465 137 497 149 q 399 119 433 125 l 399 -14 l 307 -14 l 307 121 q 185 178 233 129 q 115 309 138 226 q 93 503 93 392 q 116 697 93 614 q 187 831 139 781 q 307 892 235 882 l 307 1006 l 399 1006 l 399 896 z "},"£":{"ha":631,"x_min":58,"x_max":579,"o":"m 382 1006 q 480 992 433 1006 q 571 949 526 978 l 522 821 q 455 853 486 843 q 393 864 424 864 q 331 832 350 864 q 313 731 313 800 l 313 563 l 486 563 l 486 443 l 313 443 l 313 318 q 303 245 313 278 q 274 187 293 213 q 225 143 254 161 l 579 143 l 579 0 l 63 0 l 63 135 q 113 176 93 153 q 144 234 133 200 q 154 317 154 268 l 154 443 l 58 443 l 58 563 l 154 563 l 154 731 q 180 883 154 822 q 257 975 206 944 q 382 1006 308 1006 z "},"¤":{"ha":761,"x_min":67,"x_max":693,"o":"m 110 490 q 122 567 110 531 q 157 639 133 604 l 67 729 l 142 803 l 229 713 q 301 749 263 738 q 379 760 339 760 q 458 748 421 760 q 529 713 494 736 l 618 803 l 693 731 l 604 640 q 638 569 626 607 q 649 490 649 532 q 638 410 649 449 q 604 339 626 372 l 692 250 l 618 178 l 529 267 q 457 233 494 244 q 379 221 419 221 q 299 233 336 221 q 228 267 261 244 l 142 179 l 68 253 l 157 340 q 122 411 133 374 q 110 490 110 449 m 214 490 q 236 407 214 444 q 296 347 258 369 q 379 324 333 324 q 465 347 428 324 q 526 408 503 369 q 549 490 549 446 q 525 574 549 536 q 463 635 501 613 q 379 658 425 658 q 297 635 333 658 q 237 574 260 613 q 214 490 214 536 z "},"¥":{"ha":631,"x_min":31,"x_max":597,"o":"m 315 574 l 431 992 l 597 992 l 421 481 l 556 481 l 556 376 l 394 376 l 394 271 l 556 271 l 556 167 l 394 167 l 394 0 l 235 0 l 235 167 l 74 167 l 74 271 l 235 271 l 235 376 l 74 376 l 74 481 l 206 481 l 31 992 l 197 992 l 315 574 z "},"¦":{"ha":571,"x_min":215,"x_max":354,"o":"m 215 1054 l 354 1054 l 354 508 l 215 508 l 215 1054 m 215 221 l 354 221 l 354 -326 l 215 -326 l 215 221 z "},"§":{"ha":549,"x_min":54,"x_max":488,"o":"m 54 553 q 81 645 54 604 q 154 713 107 686 q 90 785 111 746 q 68 871 68 824 q 131 1008 68 958 q 288 1057 193 1057 q 384 1045 340 1057 q 475 1007 428 1033 l 431 899 q 358 935 393 924 q 293 946 324 946 q 227 926 250 946 q 204 872 204 907 q 217 828 204 846 q 253 794 229 810 q 313 758 278 778 q 410 699 372 729 q 468 633 449 669 q 488 546 488 596 q 466 449 488 492 q 403 376 444 406 q 463 305 444 343 q 481 219 481 267 q 417 70 481 125 q 244 15 353 15 q 143 28 190 15 q 58 65 96 40 l 58 190 q 115 158 83 174 q 179 135 146 143 q 240 126 213 126 q 317 150 289 126 q 344 213 344 174 q 334 258 344 240 q 297 294 324 276 q 222 339 271 313 q 124 403 161 372 q 71 469 88 433 q 54 553 54 506 m 181 572 q 192 527 181 547 q 224 490 203 507 q 275 454 244 472 l 319 429 q 351 468 340 446 q 361 521 361 490 q 351 572 361 550 q 313 614 340 593 q 238 661 286 635 q 194 626 208 650 q 181 572 181 603 z "},"¨":{"ha":694,"x_min":150,"x_max":543,"o":"m 150 939 q 171 1003 150 982 q 225 1024 192 1024 q 279 1002 258 1024 q 300 939 300 981 q 279 876 300 899 q 225 854 258 854 q 171 876 192 854 q 150 939 150 899 m 393 939 q 414 1003 393 982 q 468 1024 435 1024 q 522 1002 501 1024 q 543 939 543 981 q 522 876 543 899 q 467 854 501 854 q 413 876 433 854 q 393 939 393 899 z "},"©":{"ha":1150,"x_min":61,"x_max":1088,"o":"m 596 183 q 386 265 461 183 q 311 494 311 346 q 345 662 311 592 q 444 769 379 732 q 597 807 508 807 q 695 796 647 807 q 789 763 743 785 l 742 668 q 673 693 707 685 q 607 701 639 701 q 485 649 529 701 q 440 493 440 597 q 482 339 440 389 q 606 289 524 289 q 683 299 643 289 q 763 326 724 308 l 763 221 q 682 192 724 201 q 596 183 640 183 m 571 -14 q 362 26 456 -14 q 201 135 268 65 q 97 297 133 204 q 61 494 61 389 q 101 702 61 608 q 211 864 140 796 q 375 969 282 932 q 575 1006 468 1006 q 781 967 688 1006 q 944 860 875 929 q 1050 697 1013 790 q 1088 494 1088 603 q 1049 290 1088 383 q 941 128 1011 197 q 777 23 871 60 q 571 -14 683 -14 m 578 71 q 746 103 669 71 q 877 191 822 135 q 962 325 932 247 q 992 494 992 403 q 960 667 992 589 q 873 802 929 746 q 740 890 817 858 q 574 921 664 921 q 403 888 481 921 q 271 797 326 856 q 185 662 215 739 q 156 493 156 585 q 188 321 156 399 q 277 187 219 243 q 411 101 335 131 q 578 71 488 71 z "},"ª":{"ha":444,"x_min":33,"x_max":381,"o":"m 229 1003 q 343 960 306 1003 q 381 831 381 917 l 381 525 l 303 525 l 283 597 q 230 538 261 558 q 151 517 199 517 q 88 537 115 517 q 47 590 61 557 q 33 663 33 622 q 56 746 33 715 q 119 792 78 776 q 217 811 160 807 l 269 815 l 269 840 q 256 894 269 876 q 208 911 242 911 q 153 902 179 911 q 97 876 126 893 l 64 960 q 143 992 103 982 q 229 1003 183 1003 m 229 740 q 166 719 186 736 q 146 667 146 701 q 159 622 146 636 q 196 607 172 607 q 250 637 231 607 q 269 717 269 667 l 269 744 l 229 740 z "},"«":{"ha":692,"x_min":42,"x_max":647,"o":"m 42 385 l 247 675 l 358 617 l 214 375 l 358 136 l 247 76 l 42 365 l 42 385 m 331 385 l 538 675 l 647 617 l 504 375 l 647 136 l 538 76 l 331 365 l 331 385 z "},"¬":{"ha":635,"x_min":44,"x_max":581,"o":"m 581 554 l 581 165 l 450 165 l 450 426 l 44 426 l 44 554 l 581 554 z "},"­":{"ha":407,"x_min":39,"x_max":369,"o":"m 39 299 l 39 449 l 369 449 l 369 299 l 39 299 z "},"®":{"ha":1150,"x_min":61,"x_max":1088,"o":"m 375 206 l 375 800 l 554 800 q 724 756 665 800 q 782 622 782 713 q 759 523 782 564 q 685 458 736 482 l 818 206 l 681 206 l 572 435 l 501 435 l 501 206 l 375 206 m 547 526 q 624 548 596 526 q 653 617 653 569 q 628 681 653 661 q 547 700 603 700 l 500 700 l 500 526 l 547 526 m 571 -14 q 362 26 456 -14 q 201 135 268 65 q 97 297 133 204 q 61 494 61 389 q 101 702 61 608 q 211 864 140 796 q 375 969 282 932 q 575 1006 468 1006 q 781 967 688 1006 q 944 860 875 929 q 1050 697 1013 790 q 1088 494 1088 603 q 1049 290 1088 383 q 941 128 1011 197 q 777 23 871 60 q 571 -14 683 -14 m 578 71 q 746 103 669 71 q 877 191 822 135 q 962 325 932 247 q 992 494 992 403 q 960 667 992 589 q 873 802 929 746 q 740 890 817 858 q 574 921 664 921 q 403 888 481 921 q 271 797 326 856 q 185 662 215 739 q 156 493 156 585 q 188 321 156 399 q 277 187 219 243 q 411 101 335 131 q 578 71 488 71 z "},"¯":{"ha":636,"x_min":-4,"x_max":640,"o":"m 640 1056 l -4 1056 l -4 1174 l 640 1174 l 640 1056 z "},"°":{"ha":504,"x_min":50,"x_max":454,"o":"m 251 611 q 149 636 194 611 q 76 706 103 661 q 50 808 50 750 q 76 913 50 868 q 149 981 103 957 q 251 1006 194 1006 q 356 981 310 1006 q 428 911 401 956 q 454 808 454 867 q 427 704 454 749 q 354 635 400 660 q 251 611 308 611 m 251 706 q 325 733 299 706 q 351 808 351 761 q 325 882 351 854 q 251 910 299 910 q 177 881 203 910 q 151 808 151 851 q 179 733 151 761 q 251 706 207 706 z "},"±":{"ha":635,"x_min":44,"x_max":590,"o":"m 44 0 l 44 128 l 590 128 l 590 0 l 44 0 m 382 601 l 589 601 l 589 474 l 382 474 l 382 208 l 253 208 l 253 475 l 44 475 l 44 601 l 253 601 l 253 869 l 382 869 l 382 601 z "},"²":{"ha":454,"x_min":35,"x_max":399,"o":"m 399 576 l 39 576 l 39 678 l 163 826 q 221 902 199 871 q 253 960 243 933 q 264 1015 264 986 q 246 1065 264 1046 q 194 1083 228 1083 q 142 1069 168 1083 q 92 1025 117 1054 l 35 1103 q 108 1163 63 1139 q 210 1186 154 1186 q 339 1142 293 1186 q 385 1026 385 1097 q 368 935 385 976 q 313 847 351 893 q 213 732 275 800 l 169 679 l 399 679 l 399 576 z "},"³":{"ha":454,"x_min":35,"x_max":399,"o":"m 207 1185 q 335 1145 288 1185 q 383 1035 383 1106 q 359 947 383 983 q 290 890 335 911 l 290 885 q 372 833 344 869 q 399 736 399 796 q 342 611 399 657 q 194 565 285 565 q 113 575 151 565 q 42 604 75 585 l 42 718 q 112 683 74 694 q 193 672 150 672 q 261 692 239 672 q 283 746 283 711 q 257 812 283 790 q 178 833 231 833 l 125 833 l 125 928 l 172 928 q 245 950 219 928 q 271 1011 271 972 q 252 1063 271 1044 q 196 1082 233 1082 q 141 1071 167 1082 q 88 1033 115 1060 l 35 1113 q 117 1167 74 1149 q 207 1185 160 1185 z "},"´":{"ha":408,"x_min":56,"x_max":353,"o":"m 353 1051 q 316 1003 339 1031 q 267 947 293 976 q 213 890 240 917 q 164 842 186 863 l 56 842 l 56 858 q 102 931 81 896 q 142 1000 124 967 q 174 1064 160 1033 l 353 1064 l 353 1051 z "},"µ":{"ha":674,"x_min":82,"x_max":590,"o":"m 590 754 l 590 0 l 468 0 l 451 99 l 443 99 q 412 38 431 64 q 370 -1 393 13 q 322 -14 347 -14 q 270 2 290 -14 q 235 50 250 18 l 231 50 q 234 3 233 26 q 235 -46 235 -21 q 236 -94 236 -71 l 236 -333 l 82 -333 l 82 754 l 236 754 l 236 297 q 255 169 236 213 q 315 125 274 125 q 390 156 364 125 q 426 244 415 186 q 436 379 436 301 l 436 754 l 590 754 z "},"¶":{"ha":686,"x_min":69,"x_max":588,"o":"m 588 -176 l 493 -176 l 493 965 l 407 965 l 407 -176 l 313 -176 l 313 379 q 286 370 300 374 q 254 367 272 367 q 151 404 192 367 q 90 517 110 442 q 69 707 69 593 q 91 900 69 822 q 160 1017 113 978 q 279 1056 207 1056 l 588 1056 l 588 -176 z "},"·":{"ha":339,"x_min":75,"x_max":265,"o":"m 75 489 q 99 567 75 540 q 171 593 124 593 q 240 567 215 593 q 265 489 265 542 q 240 411 265 438 q 171 385 214 385 q 101 411 126 385 q 75 489 75 438 z "},"¸":{"ha":250,"x_min":-10,"x_max":253,"o":"m 253 -185 q 208 -294 253 -256 q 83 -333 164 -333 q 31 -331 54 -333 q -10 -324 8 -328 l -10 -229 q 24 -237 7 -235 q 56 -239 40 -239 q 110 -224 92 -239 q 129 -182 129 -208 q 103 -134 129 -151 q 29 -112 76 -117 l 76 0 l 158 0 l 132 -61 q 197 -85 171 -68 q 238 -126 224 -101 q 253 -185 253 -151 z "},"¹":{"ha":454,"x_min":50,"x_max":329,"o":"m 329 1171 l 329 576 l 211 576 l 211 894 q 211 940 211 917 q 213 985 211 963 q 215 1031 214 1008 q 197 1013 206 1021 q 182 1000 189 1006 l 108 943 l 50 1021 l 232 1171 l 329 1171 z "},"º":{"ha":451,"x_min":38,"x_max":413,"o":"m 413 760 q 365 581 413 646 q 226 517 317 517 q 87 582 136 517 q 38 760 38 647 q 88 939 38 875 q 226 1003 139 1003 q 325 975 283 1003 q 390 893 367 947 q 413 760 413 839 m 153 760 q 171 649 153 685 q 225 613 189 613 q 283 649 265 613 q 300 760 300 685 q 282 872 300 836 q 226 908 264 908 q 172 872 190 908 q 153 760 153 836 z "},"»":{"ha":692,"x_min":46,"x_max":650,"o":"m 650 365 l 444 76 l 335 136 l 478 375 l 335 617 l 444 675 l 650 385 l 650 365 m 363 365 l 156 76 l 46 136 l 189 375 l 46 617 l 156 675 l 363 385 l 363 365 z "},"¼":{"ha":1064,"x_min":40,"x_max":1043,"o":"m 238 0 l 735 992 l 863 992 l 364 0 l 238 0 m 201 715 q 202 760 201 739 q 204 806 203 782 q 207 853 206 829 q 188 835 196 843 q 172 819 179 826 l 99 764 l 40 842 l 222 992 l 319 992 l 319 397 l 201 397 l 201 715 m 857 0 l 857 115 l 633 115 l 633 203 l 847 596 l 972 596 l 972 213 l 1043 213 l 1043 115 l 972 115 l 972 0 l 857 0 m 735 213 l 857 213 l 857 361 q 858 417 857 392 q 860 463 858 443 q 844 423 853 442 q 826 386 836 404 l 735 213 z "},"½":{"ha":1089,"x_min":40,"x_max":1033,"o":"m 218 0 l 714 992 l 842 992 l 343 0 l 218 0 m 201 715 q 201 749 201 732 q 202 783 201 765 q 204 817 203 800 q 207 853 206 835 q 188 835 196 843 q 172 819 179 826 l 99 764 l 40 842 l 222 992 l 319 992 l 319 397 l 201 397 l 201 715 m 674 0 l 674 103 l 797 246 q 857 321 835 290 q 890 378 879 351 q 900 436 900 406 q 881 487 900 468 q 829 506 863 506 q 777 492 803 506 q 728 447 751 478 l 669 526 q 743 586 697 563 q 844 610 789 610 q 974 565 928 610 q 1019 450 1019 521 q 1004 361 1019 400 q 962 286 989 322 q 900 210 935 250 l 804 103 l 1033 103 l 1033 0 l 674 0 z "},"¾":{"ha":1076,"x_min":35,"x_max":1056,"o":"m 246 0 l 743 992 l 871 992 l 372 0 l 246 0 m 194 386 q 113 396 151 386 q 42 425 75 406 l 42 539 q 112 504 74 517 q 193 492 150 492 q 261 512 239 492 q 283 567 283 532 q 257 633 283 611 q 178 654 231 654 l 125 654 l 125 749 l 172 749 q 245 772 219 749 q 271 833 271 794 q 252 884 271 865 q 196 903 233 903 q 141 891 167 903 q 88 853 115 879 l 35 933 q 117 988 74 969 q 207 1006 160 1006 q 335 966 288 1006 q 383 856 383 926 q 359 767 383 804 q 290 711 335 731 l 290 706 q 372 653 344 690 q 399 557 399 617 q 342 432 399 478 q 194 386 285 386 m 868 0 l 868 115 l 644 115 l 644 203 l 860 596 l 983 596 l 983 213 l 1056 213 l 1056 115 l 983 115 l 983 0 l 868 0 m 746 213 l 868 213 l 868 361 q 869 417 868 392 q 872 463 871 443 q 856 423 864 442 q 839 386 849 404 l 746 213 z "},"¿":{"ha":486,"x_min":25,"x_max":475,"o":"m 344 394 q 337 312 344 349 q 312 243 329 275 q 263 176 294 211 q 215 112 233 140 q 187 55 196 83 q 178 -8 178 26 q 203 -90 178 -62 q 272 -118 228 -118 q 346 -103 311 -118 q 421 -60 381 -87 l 475 -182 q 370 -239 424 -219 q 261 -258 317 -258 q 86 -196 147 -258 q 25 -24 25 -133 q 38 81 25 36 q 78 165 51 125 q 144 249 106 204 q 190 308 175 283 q 211 357 206 333 q 217 411 217 381 l 217 442 l 344 442 l 344 394 m 375 658 q 350 580 375 607 q 279 553 325 553 q 210 579 235 553 q 185 658 185 606 q 210 736 185 710 q 279 763 236 763 q 349 735 324 763 q 375 658 375 708 z "},"À":{"ha":690,"x_min":0,"x_max":690,"o":"m 518 0 l 458 265 l 233 265 l 175 0 l 0 0 l 240 992 l 446 992 l 690 0 l 518 0 m 371 696 q 360 755 365 726 q 352 810 356 783 q 344 860 349 836 q 339 811 343 838 q 330 756 335 785 q 318 697 325 726 l 258 410 l 432 410 l 371 696 m 347 1301 q 383 1232 361 1271 q 426 1156 404 1193 q 465 1096 449 1119 l 465 1079 l 357 1079 q 312 1123 339 1096 q 257 1181 285 1150 q 206 1240 229 1211 q 168 1289 182 1268 l 168 1301 l 347 1301 z "},"Á":{"ha":690,"x_min":0,"x_max":690,"o":"m 518 0 l 458 265 l 233 265 l 175 0 l 0 0 l 240 992 l 446 992 l 690 0 l 518 0 m 371 696 q 360 755 365 726 q 352 810 356 783 q 344 860 349 836 q 339 811 343 838 q 330 756 335 785 q 318 697 325 726 l 258 410 l 432 410 l 371 696 m 557 1289 q 520 1241 543 1268 q 471 1184 497 1214 q 417 1127 444 1154 q 368 1079 390 1100 l 260 1079 l 260 1096 q 306 1169 285 1133 q 346 1238 328 1204 q 378 1301 364 1271 l 557 1301 l 557 1289 z "},"Â":{"ha":690,"x_min":0,"x_max":690,"o":"m 518 0 l 458 265 l 233 265 l 175 0 l 0 0 l 240 992 l 446 992 l 690 0 l 518 0 m 371 696 q 360 755 365 726 q 352 810 356 783 q 344 860 349 836 q 339 811 343 838 q 330 756 335 785 q 318 697 325 726 l 258 410 l 432 410 l 371 696 m 417 1301 q 453 1235 432 1271 q 498 1165 474 1200 q 547 1096 522 1129 l 547 1079 l 456 1079 q 403 1133 431 1103 q 344 1199 375 1164 q 285 1132 314 1164 q 235 1079 257 1100 l 143 1079 l 143 1096 q 191 1163 167 1126 q 238 1237 215 1200 q 274 1301 260 1274 l 417 1301 z "},"Ã":{"ha":690,"x_min":0,"x_max":690,"o":"m 518 0 l 458 265 l 233 265 l 175 0 l 0 0 l 240 992 l 446 992 l 690 0 l 518 0 m 371 696 q 360 755 365 726 q 352 810 356 783 q 344 860 349 836 q 339 811 343 838 q 330 756 335 785 q 318 697 325 726 l 258 410 l 432 410 l 371 696 m 126 1078 q 134 1144 128 1110 q 153 1206 140 1178 q 189 1253 167 1235 q 244 1271 211 1271 q 297 1260 272 1271 q 344 1233 321 1249 q 388 1208 367 1218 q 431 1197 410 1197 q 461 1217 451 1197 q 476 1272 471 1236 l 564 1272 q 528 1128 561 1178 q 446 1079 494 1079 q 394 1090 421 1079 q 344 1117 368 1101 q 299 1143 319 1132 q 261 1154 278 1154 q 233 1135 246 1154 q 214 1078 219 1115 l 126 1078 z "},"Ä":{"ha":690,"x_min":0,"x_max":690,"o":"m 518 0 l 458 265 l 233 265 l 175 0 l 0 0 l 240 992 l 446 992 l 690 0 l 518 0 m 371 696 q 360 755 365 726 q 352 810 356 783 q 344 860 349 836 q 339 811 343 838 q 330 756 335 785 q 318 697 325 726 l 258 410 l 432 410 l 371 696 m 147 1176 q 168 1240 147 1219 q 222 1261 189 1261 q 276 1240 256 1261 q 297 1176 297 1218 q 276 1114 297 1136 q 222 1092 256 1092 q 168 1114 189 1092 q 147 1176 147 1136 m 390 1176 q 411 1240 390 1219 q 465 1261 432 1261 q 519 1240 499 1261 q 540 1176 540 1218 q 519 1114 540 1136 q 464 1092 499 1092 q 410 1114 431 1092 q 390 1176 390 1136 z "},"Å":{"ha":690,"x_min":0,"x_max":690,"o":"m 518 0 l 458 265 l 233 265 l 175 0 l 0 0 l 240 992 l 446 992 l 690 0 l 518 0 m 371 696 q 360 755 365 726 q 352 810 356 783 q 344 860 349 836 q 339 811 343 838 q 330 756 335 785 q 318 697 325 726 l 258 410 l 432 410 l 371 696 m 344 910 q 231 952 274 910 q 189 1061 189 994 q 231 1172 189 1129 q 344 1214 274 1214 q 457 1172 414 1214 q 500 1063 500 1129 q 458 953 500 996 q 344 910 415 910 m 346 996 q 394 1014 375 996 q 413 1063 413 1032 q 394 1110 413 1092 q 346 1128 376 1128 q 297 1109 317 1128 q 278 1061 278 1090 q 295 1014 278 1032 q 346 996 313 996 z "},"Æ":{"ha":921,"x_min":-4,"x_max":861,"o":"m 861 0 l 436 0 l 436 265 l 249 265 l 174 0 l -4 0 l 297 992 l 861 992 l 861 850 l 597 850 l 597 586 l 843 586 l 843 446 l 597 446 l 597 143 l 861 143 l 861 0 m 286 410 l 436 410 l 436 849 l 408 849 l 286 410 z "},"Ç":{"ha":651,"x_min":64,"x_max":618,"o":"m 421 864 q 336 835 372 864 q 277 756 300 807 q 243 638 254 706 q 232 494 232 571 q 256 297 232 379 q 323 172 279 215 q 429 129 367 129 q 513 142 474 129 q 590 176 553 156 l 590 31 q 506 -3 551 8 q 407 -14 460 -14 q 222 47 299 -14 q 104 221 144 107 q 64 496 64 335 q 86 697 64 604 q 152 860 108 790 q 261 967 196 929 q 410 1006 326 1006 q 518 992 467 1006 q 618 949 569 979 l 568 814 q 498 851 535 838 q 421 864 461 864 m 511 -185 q 467 -294 511 -256 q 342 -333 422 -333 q 290 -331 313 -333 q 249 -324 267 -328 l 249 -229 q 282 -237 265 -235 q 314 -239 299 -239 q 369 -224 350 -239 q 388 -182 388 -208 q 361 -134 388 -151 q 288 -112 335 -117 l 335 0 l 417 0 l 390 -61 q 456 -85 429 -68 q 497 -126 482 -101 q 511 -185 511 -151 z "},"È":{"ha":581,"x_min":93,"x_max":519,"o":"m 519 0 l 93 0 l 93 992 l 519 992 l 519 851 l 256 851 l 256 586 l 503 586 l 503 446 l 256 446 l 256 143 l 519 143 l 519 0 m 310 1301 q 345 1232 324 1271 q 389 1156 367 1193 q 428 1096 411 1119 l 428 1079 l 319 1079 q 274 1123 301 1096 q 219 1181 247 1150 q 168 1240 192 1211 q 131 1289 144 1268 l 131 1301 l 310 1301 z "},"É":{"ha":581,"x_min":93,"x_max":519,"o":"m 519 0 l 93 0 l 93 992 l 519 992 l 519 851 l 256 851 l 256 586 l 503 586 l 503 446 l 256 446 l 256 143 l 519 143 l 519 0 m 518 1289 q 481 1241 504 1268 q 432 1184 458 1214 q 378 1127 406 1154 q 329 1079 351 1100 l 221 1079 l 221 1096 q 267 1169 246 1133 q 307 1238 289 1204 q 339 1301 325 1271 l 518 1301 l 518 1289 z "},"Ê":{"ha":581,"x_min":93,"x_max":519,"o":"m 519 0 l 93 0 l 93 992 l 519 992 l 519 851 l 256 851 l 256 586 l 503 586 l 503 446 l 256 446 l 256 143 l 519 143 l 519 0 m 379 1301 q 415 1235 394 1271 q 460 1165 436 1200 q 510 1096 485 1129 l 510 1079 l 418 1079 q 365 1133 393 1103 q 307 1199 338 1164 q 248 1132 276 1164 q 197 1079 219 1100 l 106 1079 l 106 1096 q 153 1163 129 1126 q 200 1237 178 1200 q 236 1301 222 1274 l 379 1301 z "},"Ë":{"ha":581,"x_min":93,"x_max":519,"o":"m 519 0 l 93 0 l 93 992 l 519 992 l 519 851 l 256 851 l 256 586 l 503 586 l 503 446 l 256 446 l 256 143 l 519 143 l 519 0 m 110 1176 q 131 1240 110 1219 q 185 1261 151 1261 q 239 1240 218 1261 q 260 1176 260 1218 q 239 1114 260 1136 q 185 1092 218 1092 q 131 1114 151 1092 q 110 1176 110 1136 m 353 1176 q 374 1240 353 1219 q 428 1261 394 1261 q 482 1240 461 1261 q 503 1176 503 1218 q 482 1114 503 1136 q 426 1092 461 1092 q 373 1114 393 1092 q 353 1176 353 1136 z "},"Ì":{"ha":431,"x_min":38,"x_max":388,"o":"m 388 0 l 43 0 l 43 89 l 135 122 l 135 869 l 43 903 l 43 992 l 388 992 l 388 903 l 297 869 l 297 122 l 388 89 l 388 0 m 217 1301 q 252 1232 231 1271 q 296 1156 274 1193 q 335 1096 318 1119 l 335 1079 l 226 1079 q 181 1123 208 1096 q 126 1181 154 1150 q 75 1240 99 1211 q 38 1289 51 1268 l 38 1301 l 217 1301 z "},"Í":{"ha":431,"x_min":43,"x_max":426,"o":"m 388 0 l 43 0 l 43 89 l 135 122 l 135 869 l 43 903 l 43 992 l 388 992 l 388 903 l 297 869 l 297 122 l 388 89 l 388 0 m 426 1289 q 390 1241 413 1268 q 340 1184 367 1214 q 287 1127 314 1154 q 238 1079 260 1100 l 129 1079 l 129 1096 q 176 1169 154 1133 q 215 1238 197 1204 q 247 1301 233 1271 l 426 1301 l 426 1289 z "},"Î":{"ha":431,"x_min":13,"x_max":417,"o":"m 388 0 l 43 0 l 43 89 l 135 122 l 135 869 l 43 903 l 43 992 l 388 992 l 388 903 l 297 869 l 297 122 l 388 89 l 388 0 m 286 1301 q 322 1235 301 1271 q 367 1165 343 1200 q 417 1096 392 1129 l 417 1079 l 325 1079 q 272 1133 300 1103 q 214 1199 244 1164 q 155 1132 183 1164 q 104 1079 126 1100 l 13 1079 l 13 1096 q 60 1163 36 1126 q 107 1237 85 1200 q 143 1301 129 1274 l 286 1301 z "},"Ï":{"ha":431,"x_min":18,"x_max":411,"o":"m 388 0 l 43 0 l 43 89 l 135 122 l 135 869 l 43 903 l 43 992 l 388 992 l 388 903 l 297 869 l 297 122 l 388 89 l 388 0 m 18 1176 q 39 1240 18 1219 q 93 1261 60 1261 q 147 1240 126 1261 q 168 1176 168 1218 q 147 1114 168 1136 q 93 1092 126 1092 q 39 1114 60 1092 q 18 1176 18 1136 m 261 1176 q 282 1240 261 1219 q 336 1261 303 1261 q 390 1240 369 1261 q 411 1176 411 1218 q 390 1114 411 1136 q 335 1092 369 1092 q 281 1114 301 1092 q 261 1176 261 1136 z "},"Ð":{"ha":754,"x_min":18,"x_max":690,"o":"m 325 992 q 524 937 443 992 q 648 776 606 882 q 690 511 690 669 q 647 231 690 344 q 520 58 604 117 q 314 0 436 0 l 93 0 l 93 449 l 18 449 l 18 572 l 93 572 l 93 992 l 325 992 m 322 850 l 256 850 l 256 572 l 375 572 l 375 449 l 256 449 l 256 143 l 313 143 q 472 233 421 143 q 524 504 524 322 q 501 699 524 622 q 433 813 478 775 q 322 850 389 850 z "},"Ñ":{"ha":836,"x_min":93,"x_max":743,"o":"m 743 0 l 550 0 l 242 736 l 236 736 q 242 651 240 692 q 245 578 244 611 q 246 515 246 544 l 246 0 l 93 0 l 93 992 l 286 992 l 594 271 l 599 271 q 594 353 596 315 q 590 426 592 392 q 589 486 589 460 l 589 992 l 743 992 l 743 0 m 200 1078 q 208 1144 201 1110 q 227 1206 214 1178 q 263 1253 240 1235 q 318 1271 285 1271 q 370 1260 346 1271 q 417 1233 394 1249 q 462 1208 440 1218 q 504 1197 483 1197 q 535 1217 525 1197 q 550 1272 544 1236 l 638 1272 q 601 1128 635 1178 q 519 1079 568 1079 q 468 1090 494 1079 q 417 1117 442 1101 q 372 1143 393 1132 q 335 1154 351 1154 q 306 1135 319 1154 q 288 1078 293 1115 l 200 1078 z "},"Ò":{"ha":801,"x_min":64,"x_max":739,"o":"m 739 497 q 719 290 739 383 q 657 128 699 196 q 552 23 615 60 q 401 -14 489 -14 q 250 24 314 -14 q 144 129 186 61 q 83 291 103 197 q 64 499 64 385 q 102 779 64 667 q 215 949 140 892 q 401 1007 290 1007 q 592 942 518 1007 q 703 764 667 878 q 739 497 739 650 m 232 497 q 251 295 232 376 q 308 172 271 214 q 401 131 346 131 q 494 171 457 131 q 550 292 531 211 q 569 497 569 374 q 528 773 569 682 q 401 864 486 864 q 308 822 346 864 q 251 699 269 781 q 232 497 232 618 m 403 1301 q 438 1232 417 1271 q 482 1156 460 1193 q 521 1096 504 1119 l 521 1079 l 413 1079 q 367 1123 394 1096 q 313 1181 340 1150 q 261 1240 285 1211 q 224 1289 238 1268 l 224 1301 l 403 1301 z "},"Ó":{"ha":801,"x_min":64,"x_max":739,"o":"m 739 497 q 719 290 739 383 q 657 128 699 196 q 552 23 615 60 q 401 -14 489 -14 q 250 24 314 -14 q 144 129 186 61 q 83 291 103 197 q 64 499 64 385 q 102 779 64 667 q 215 949 140 892 q 401 1007 290 1007 q 592 942 518 1007 q 703 764 667 878 q 739 497 739 650 m 232 497 q 251 295 232 376 q 308 172 271 214 q 401 131 346 131 q 494 171 457 131 q 550 292 531 211 q 569 497 569 374 q 528 773 569 682 q 401 864 486 864 q 308 822 346 864 q 251 699 269 781 q 232 497 232 618 m 613 1289 q 576 1241 599 1268 q 526 1184 553 1214 q 473 1127 500 1154 q 424 1079 446 1100 l 315 1079 l 315 1096 q 362 1169 340 1133 q 401 1238 383 1204 q 433 1301 419 1271 l 613 1301 l 613 1289 z "},"Ô":{"ha":801,"x_min":64,"x_max":739,"o":"m 739 497 q 719 290 739 383 q 657 128 699 196 q 552 23 615 60 q 401 -14 489 -14 q 250 24 314 -14 q 144 129 186 61 q 83 291 103 197 q 64 499 64 385 q 102 779 64 667 q 215 949 140 892 q 401 1007 290 1007 q 592 942 518 1007 q 703 764 667 878 q 739 497 739 650 m 232 497 q 251 295 232 376 q 308 172 271 214 q 401 131 346 131 q 494 171 457 131 q 550 292 531 211 q 569 497 569 374 q 528 773 569 682 q 401 864 486 864 q 308 822 346 864 q 251 699 269 781 q 232 497 232 618 m 472 1301 q 508 1235 488 1271 q 553 1165 529 1200 q 603 1096 578 1129 l 603 1079 l 511 1079 q 458 1133 486 1103 q 400 1199 431 1164 q 341 1132 369 1164 q 290 1079 313 1100 l 199 1079 l 199 1096 q 247 1163 222 1126 q 293 1237 271 1200 q 329 1301 315 1274 l 472 1301 z "},"Õ":{"ha":801,"x_min":64,"x_max":739,"o":"m 739 497 q 719 290 739 383 q 657 128 699 196 q 552 23 615 60 q 401 -14 489 -14 q 250 24 314 -14 q 144 129 186 61 q 83 291 103 197 q 64 499 64 385 q 102 779 64 667 q 215 949 140 892 q 401 1007 290 1007 q 592 942 518 1007 q 703 764 667 878 q 739 497 739 650 m 232 497 q 251 295 232 376 q 308 172 271 214 q 401 131 346 131 q 494 171 457 131 q 550 292 531 211 q 569 497 569 374 q 528 773 569 682 q 401 864 486 864 q 308 822 346 864 q 251 699 269 781 q 232 497 232 618 m 183 1078 q 191 1144 185 1110 q 210 1206 197 1178 q 246 1253 224 1235 q 301 1271 268 1271 q 353 1260 329 1271 q 401 1233 378 1249 q 445 1208 424 1218 q 488 1197 467 1197 q 518 1217 508 1197 q 533 1272 528 1236 l 621 1272 q 585 1128 618 1178 q 503 1079 551 1079 q 451 1090 478 1079 q 401 1117 425 1101 q 356 1143 376 1132 q 318 1154 335 1154 q 290 1135 303 1154 q 271 1078 276 1115 l 183 1078 z "},"Ö":{"ha":801,"x_min":64,"x_max":739,"o":"m 739 497 q 719 290 739 383 q 657 128 699 196 q 552 23 615 60 q 401 -14 489 -14 q 250 24 314 -14 q 144 129 186 61 q 83 291 103 197 q 64 499 64 385 q 102 779 64 667 q 215 949 140 892 q 401 1007 290 1007 q 592 942 518 1007 q 703 764 667 878 q 739 497 739 650 m 232 497 q 251 295 232 376 q 308 172 271 214 q 401 131 346 131 q 494 171 457 131 q 550 292 531 211 q 569 497 569 374 q 528 773 569 682 q 401 864 486 864 q 308 822 346 864 q 251 699 269 781 q 232 497 232 618 m 204 1176 q 225 1240 204 1219 q 279 1261 246 1261 q 333 1240 313 1261 q 354 1176 354 1218 q 333 1114 354 1136 q 279 1092 313 1092 q 225 1114 246 1092 q 204 1176 204 1136 m 447 1176 q 468 1240 447 1219 q 522 1261 489 1261 q 576 1240 556 1261 q 597 1176 597 1218 q 576 1114 597 1136 q 521 1092 556 1092 q 467 1114 488 1092 q 447 1176 447 1136 z "},"×":{"ha":635,"x_min":47,"x_max":588,"o":"m 499 761 l 588 674 l 404 490 l 585 308 l 497 221 l 315 401 l 132 221 l 47 310 l 226 490 l 47 671 l 133 760 l 315 579 l 499 761 z "},"Ø":{"ha":801,"x_min":64,"x_max":739,"o":"m 739 497 q 717 277 739 372 q 652 117 694 182 q 547 19 610 53 q 401 -14 483 -14 q 309 0 351 -14 q 232 39 267 14 l 179 -69 l 93 -29 l 160 106 q 86 278 108 182 q 64 499 64 375 q 102 779 64 667 q 215 949 140 892 q 401 1007 290 1007 q 497 992 453 1007 q 578 947 542 976 l 628 1049 l 714 1007 l 649 876 q 717 717 694 813 q 739 497 739 622 m 574 497 q 554 693 574 613 l 297 176 q 343 139 317 151 q 401 126 369 126 q 497 167 458 126 q 554 291 535 208 q 574 497 574 374 m 229 497 q 235 378 229 432 q 251 285 240 325 l 513 806 q 465 852 492 838 q 403 867 438 867 q 306 825 344 867 q 248 701 267 783 q 229 497 229 619 z "},"Ù":{"ha":760,"x_min":88,"x_max":672,"o":"m 672 321 q 639 133 672 207 q 541 22 606 58 q 379 -14 476 -14 q 163 68 238 -14 q 88 318 88 150 l 88 992 l 250 992 l 250 321 q 283 175 250 219 q 381 131 317 131 q 453 150 424 131 q 497 212 482 169 q 511 322 511 254 l 511 992 l 672 992 l 672 321 m 382 1301 q 417 1232 396 1271 q 461 1156 439 1193 q 500 1096 483 1119 l 500 1079 l 392 1079 q 347 1123 374 1096 q 292 1181 319 1150 q 240 1240 264 1211 q 203 1289 217 1268 l 203 1301 l 382 1301 z "},"Ú":{"ha":760,"x_min":88,"x_max":672,"o":"m 672 321 q 639 133 672 207 q 541 22 606 58 q 379 -14 476 -14 q 163 68 238 -14 q 88 318 88 150 l 88 992 l 250 992 l 250 321 q 283 175 250 219 q 381 131 317 131 q 453 150 424 131 q 497 212 482 169 q 511 322 511 254 l 511 992 l 672 992 l 672 321 m 592 1289 q 555 1241 578 1268 q 506 1184 532 1214 q 452 1127 479 1154 q 403 1079 425 1100 l 294 1079 l 294 1096 q 341 1169 319 1133 q 381 1238 363 1204 q 413 1301 399 1271 l 592 1301 l 592 1289 z "},"Û":{"ha":760,"x_min":88,"x_max":672,"o":"m 672 321 q 639 133 672 207 q 541 22 606 58 q 379 -14 476 -14 q 163 68 238 -14 q 88 318 88 150 l 88 992 l 250 992 l 250 321 q 283 175 250 219 q 381 131 317 131 q 453 150 424 131 q 497 212 482 169 q 511 322 511 254 l 511 992 l 672 992 l 672 321 m 451 1301 q 488 1235 467 1271 q 533 1165 508 1200 q 582 1096 557 1129 l 582 1079 l 490 1079 q 438 1133 465 1103 q 379 1199 410 1164 q 320 1132 349 1164 q 269 1079 292 1100 l 178 1079 l 178 1096 q 226 1163 201 1126 q 272 1237 250 1200 q 308 1301 294 1274 l 451 1301 z "},"Ü":{"ha":760,"x_min":88,"x_max":672,"o":"m 672 321 q 639 133 672 207 q 541 22 606 58 q 379 -14 476 -14 q 163 68 238 -14 q 88 318 88 150 l 88 992 l 250 992 l 250 321 q 283 175 250 219 q 381 131 317 131 q 453 150 424 131 q 497 212 482 169 q 511 322 511 254 l 511 992 l 672 992 l 672 321 m 182 1176 q 203 1240 182 1219 q 257 1261 224 1261 q 311 1240 290 1261 q 332 1176 332 1218 q 311 1114 332 1136 q 257 1092 290 1092 q 203 1114 224 1092 q 182 1176 182 1136 m 425 1176 q 446 1240 425 1219 q 500 1261 467 1261 q 554 1240 533 1261 q 575 1176 575 1218 q 554 1114 575 1136 q 499 1092 533 1092 q 445 1114 465 1092 q 425 1176 425 1136 z "},"Ý":{"ha":615,"x_min":0,"x_max":615,"o":"m 310 565 l 447 992 l 615 992 l 389 383 l 389 0 l 226 0 l 226 379 l 0 992 l 169 992 l 310 565 m 519 1289 q 483 1241 506 1268 q 433 1184 460 1214 q 380 1127 407 1154 q 331 1079 353 1100 l 222 1079 l 222 1096 q 269 1169 247 1133 q 308 1238 290 1204 q 340 1301 326 1271 l 519 1301 l 519 1289 z "},"Þ":{"ha":639,"x_min":93,"x_max":606,"o":"m 606 532 q 588 398 606 458 q 536 294 571 338 q 446 226 501 250 q 314 203 390 203 l 256 203 l 256 0 l 93 0 l 93 992 l 256 992 l 256 829 l 317 829 q 535 754 465 829 q 606 532 606 679 m 299 343 q 382 363 350 343 q 429 423 414 382 q 444 528 444 464 q 412 650 444 611 q 311 689 379 689 l 256 689 l 256 343 l 299 343 z "},"ß":{"ha":703,"x_min":82,"x_max":664,"o":"m 599 839 q 585 759 599 793 q 552 699 572 725 q 513 652 532 674 q 480 610 493 631 q 467 564 467 589 q 475 527 467 544 q 500 490 483 510 q 542 447 517 471 q 610 374 583 408 q 651 304 638 340 q 664 221 664 268 q 638 94 664 146 q 563 14 613 42 q 443 -14 514 -14 q 367 -5 407 -14 q 292 25 326 4 l 292 172 q 334 147 313 158 q 378 128 356 135 q 425 122 401 122 q 486 145 465 122 q 507 208 507 168 q 499 254 507 233 q 471 298 490 275 q 418 350 451 321 q 351 424 374 389 q 320 490 329 458 q 311 553 311 522 q 324 622 311 593 q 358 673 338 650 q 397 719 378 696 q 430 768 417 742 q 443 831 443 794 q 419 903 443 876 q 347 931 396 931 q 287 912 311 931 q 250 856 263 893 q 238 764 238 819 l 238 0 l 82 0 l 82 776 q 115 929 82 865 q 207 1028 147 993 q 349 1063 267 1063 q 481 1036 425 1063 q 567 960 536 1010 q 599 839 599 910 z "},"à":{"ha":619,"x_min":43,"x_max":539,"o":"m 325 768 q 486 701 433 768 q 539 503 539 633 l 539 0 l 424 0 l 400 101 l 396 101 q 349 37 375 63 q 291 -1 324 11 q 215 -14 258 -14 q 117 19 156 -14 q 61 105 79 51 q 43 218 43 158 q 108 395 43 335 q 293 461 172 456 l 383 465 l 383 503 q 363 608 383 574 q 294 643 342 643 q 225 631 263 643 q 144 592 188 618 l 100 708 q 206 753 149 739 q 325 768 263 768 m 328 356 q 231 320 263 353 q 200 224 200 288 q 219 139 200 167 q 276 111 239 111 q 355 158 325 111 q 385 288 385 206 l 385 360 l 328 356 m 322 1064 q 358 994 336 1033 q 401 919 379 956 q 440 858 424 882 l 440 842 l 332 842 q 287 885 314 858 q 232 943 260 913 q 181 1002 204 974 q 143 1051 157 1031 l 143 1064 l 322 1064 z "},"á":{"ha":619,"x_min":43,"x_max":539,"o":"m 325 768 q 486 701 433 768 q 539 503 539 633 l 539 0 l 424 0 l 400 101 l 396 101 q 349 37 375 63 q 291 -1 324 11 q 215 -14 258 -14 q 117 19 156 -14 q 61 105 79 51 q 43 218 43 158 q 108 395 43 335 q 293 461 172 456 l 383 465 l 383 503 q 363 608 383 574 q 294 643 342 643 q 225 631 263 643 q 144 592 188 618 l 100 708 q 206 753 149 739 q 325 768 263 768 m 328 356 q 231 320 263 353 q 200 224 200 288 q 219 139 200 167 q 276 111 239 111 q 355 158 325 111 q 385 288 385 206 l 385 360 l 328 356 m 532 1051 q 495 1003 518 1031 q 446 947 472 976 q 392 890 419 917 q 343 842 365 863 l 235 842 l 235 858 q 281 931 260 896 q 321 1000 303 967 q 353 1064 339 1033 l 532 1064 l 532 1051 z "},"â":{"ha":619,"x_min":43,"x_max":539,"o":"m 325 768 q 486 701 433 768 q 539 503 539 633 l 539 0 l 424 0 l 400 101 l 396 101 q 349 37 375 63 q 291 -1 324 11 q 215 -14 258 -14 q 117 19 156 -14 q 61 105 79 51 q 43 218 43 158 q 108 395 43 335 q 293 461 172 456 l 383 465 l 383 503 q 363 608 383 574 q 294 643 342 643 q 225 631 263 643 q 144 592 188 618 l 100 708 q 206 753 149 739 q 325 768 263 768 m 328 356 q 231 320 263 353 q 200 224 200 288 q 219 139 200 167 q 276 111 239 111 q 355 158 325 111 q 385 288 385 206 l 385 360 l 328 356 m 392 1064 q 428 998 407 1033 q 473 927 449 963 q 522 858 497 892 l 522 842 l 431 842 q 378 896 406 865 q 319 961 350 926 q 260 894 289 926 q 210 842 232 863 l 118 842 l 118 858 q 166 926 142 889 q 213 999 190 963 q 249 1064 235 1036 l 392 1064 z "},"ã":{"ha":619,"x_min":43,"x_max":540,"o":"m 325 768 q 486 701 433 768 q 539 503 539 633 l 539 0 l 424 0 l 400 101 l 396 101 q 349 37 375 63 q 291 -1 324 11 q 215 -14 258 -14 q 117 19 156 -14 q 61 105 79 51 q 43 218 43 158 q 108 395 43 335 q 293 461 172 456 l 383 465 l 383 503 q 363 608 383 574 q 294 643 342 643 q 225 631 263 643 q 144 592 188 618 l 100 708 q 206 753 149 739 q 325 768 263 768 m 328 356 q 231 320 263 353 q 200 224 200 288 q 219 139 200 167 q 276 111 239 111 q 355 158 325 111 q 385 288 385 206 l 385 360 l 328 356 m 101 840 q 109 906 103 872 q 128 969 115 940 q 164 1015 142 997 q 219 1033 186 1033 q 272 1022 247 1033 q 319 996 296 1011 q 363 970 342 981 q 406 960 385 960 q 436 979 426 960 q 451 1035 446 999 l 539 1035 q 503 891 536 940 q 421 842 469 842 q 369 853 396 842 q 319 879 343 864 q 274 906 294 894 q 236 917 253 917 q 208 897 221 917 q 189 840 194 878 l 101 840 z "},"ä":{"ha":619,"x_min":43,"x_max":539,"o":"m 325 768 q 486 701 433 768 q 539 503 539 633 l 539 0 l 424 0 l 400 101 l 396 101 q 349 37 375 63 q 291 -1 324 11 q 215 -14 258 -14 q 117 19 156 -14 q 61 105 79 51 q 43 218 43 158 q 108 395 43 335 q 293 461 172 456 l 383 465 l 383 503 q 363 608 383 574 q 294 643 342 643 q 225 631 263 643 q 144 592 188 618 l 100 708 q 206 753 149 739 q 325 768 263 768 m 328 356 q 231 320 263 353 q 200 224 200 288 q 219 139 200 167 q 276 111 239 111 q 355 158 325 111 q 385 288 385 206 l 385 360 l 328 356 m 122 939 q 143 1003 122 982 q 197 1024 164 1024 q 251 1002 231 1024 q 272 939 272 981 q 251 876 272 899 q 197 854 231 854 q 143 876 164 854 q 122 939 122 899 m 365 939 q 386 1003 365 982 q 440 1024 407 1024 q 494 1002 474 1024 q 515 939 515 981 q 494 876 515 899 q 439 854 474 854 q 385 876 406 854 q 365 939 365 899 z "},"å":{"ha":619,"x_min":43,"x_max":539,"o":"m 325 768 q 486 701 433 768 q 539 503 539 633 l 539 0 l 424 0 l 400 101 l 396 101 q 349 37 375 63 q 291 -1 324 11 q 215 -14 258 -14 q 117 19 156 -14 q 61 105 79 51 q 43 218 43 158 q 108 395 43 335 q 293 461 172 456 l 383 465 l 383 503 q 363 608 383 574 q 294 643 342 643 q 225 631 263 643 q 144 592 188 618 l 100 708 q 206 753 149 739 q 325 768 263 768 m 328 356 q 231 320 263 353 q 200 224 200 288 q 219 139 200 167 q 276 111 239 111 q 355 158 325 111 q 385 288 385 206 l 385 360 l 328 356 m 319 843 q 206 885 249 843 q 164 994 164 928 q 206 1105 164 1063 q 319 1147 249 1147 q 432 1105 389 1147 q 475 996 475 1063 q 433 886 475 929 q 319 843 390 843 m 321 929 q 369 947 350 929 q 388 996 388 965 q 369 1043 388 1025 q 321 1061 351 1061 q 272 1042 292 1061 q 253 994 253 1024 q 270 947 253 965 q 321 929 288 929 z "},"æ":{"ha":940,"x_min":43,"x_max":890,"o":"m 643 767 q 781 724 725 767 q 863 606 836 681 q 890 429 890 531 l 890 336 l 532 336 q 571 168 535 224 q 682 113 607 113 q 771 126 728 113 q 858 167 814 139 l 858 36 q 769 -1 815 11 q 665 -14 722 -14 q 572 2 617 -14 q 493 49 528 18 q 436 125 458 79 q 378 47 410 78 q 310 1 347 15 q 228 -14 272 -14 q 122 19 163 -14 q 63 105 82 51 q 43 218 43 158 q 72 348 43 294 q 158 430 101 401 q 293 461 214 458 l 383 465 l 383 503 q 362 608 383 572 q 294 643 340 643 q 225 631 263 643 q 144 592 188 618 l 100 708 q 197 752 144 736 q 308 768 250 768 q 408 747 368 768 q 471 681 447 725 q 544 745 501 724 q 643 767 586 767 m 328 356 q 231 321 263 353 q 200 224 200 289 q 219 139 200 167 q 276 111 239 111 q 333 132 308 111 q 371 193 357 153 q 385 288 385 233 l 385 360 l 328 356 m 642 643 q 565 597 594 643 q 533 451 536 551 l 746 451 q 734 553 746 510 q 699 619 722 596 q 642 643 676 643 z "},"ç":{"ha":526,"x_min":54,"x_max":497,"o":"m 324 -14 q 174 28 235 -14 q 83 157 113 71 q 54 374 54 243 q 83 580 54 492 q 173 718 113 668 q 326 768 233 768 q 420 757 379 768 q 497 724 461 746 l 453 599 q 395 625 424 617 q 339 633 367 633 q 269 604 297 633 q 226 517 240 575 q 211 374 211 460 q 226 233 211 290 q 269 149 240 176 q 342 121 299 121 q 413 133 376 121 q 485 168 449 146 l 485 36 q 408 -1 451 11 q 324 -14 365 -14 m 453 -185 q 408 -294 453 -256 q 283 -333 364 -333 q 231 -331 254 -333 q 190 -324 208 -328 l 190 -229 q 224 -237 207 -235 q 256 -239 240 -239 q 310 -224 292 -239 q 329 -182 329 -208 q 303 -134 329 -151 q 229 -112 276 -117 l 276 0 l 358 0 l 332 -61 q 397 -85 371 -68 q 438 -126 424 -101 q 453 -185 453 -151 z "},"è":{"ha":614,"x_min":54,"x_max":565,"o":"m 315 767 q 453 724 397 767 q 537 606 508 681 q 565 429 565 531 l 565 336 l 207 336 q 246 169 208 224 q 358 114 283 114 q 446 126 404 114 q 533 168 488 139 l 533 36 q 442 -1 490 11 q 339 -14 394 -14 q 174 35 238 -14 q 83 170 111 83 q 54 372 54 257 q 83 588 54 500 q 171 722 113 676 q 315 767 229 767 m 318 644 q 240 599 268 644 q 208 451 211 553 l 421 451 q 409 551 421 508 q 375 619 397 594 q 318 644 353 644 m 315 1064 q 351 994 329 1033 q 394 919 372 956 q 433 858 417 882 l 433 842 l 325 842 q 280 885 307 858 q 225 943 253 913 q 174 1002 197 974 q 136 1051 150 1031 l 136 1064 l 315 1064 z "},"é":{"ha":614,"x_min":54,"x_max":565,"o":"m 315 767 q 453 724 397 767 q 537 606 508 681 q 565 429 565 531 l 565 336 l 207 336 q 246 169 208 224 q 358 114 283 114 q 446 126 404 114 q 533 168 488 139 l 533 36 q 442 -1 490 11 q 339 -14 394 -14 q 174 35 238 -14 q 83 170 111 83 q 54 372 54 257 q 83 588 54 500 q 171 722 113 676 q 315 767 229 767 m 318 644 q 240 599 268 644 q 208 451 211 553 l 421 451 q 409 551 421 508 q 375 619 397 594 q 318 644 353 644 m 524 1051 q 487 1003 510 1031 q 438 947 464 976 q 384 890 411 917 q 335 842 357 863 l 226 842 l 226 858 q 273 931 251 896 q 313 1000 294 967 q 344 1064 331 1033 l 524 1064 l 524 1051 z "},"ê":{"ha":614,"x_min":54,"x_max":565,"o":"m 315 767 q 453 724 397 767 q 537 606 508 681 q 565 429 565 531 l 565 336 l 207 336 q 246 169 208 224 q 358 114 283 114 q 446 126 404 114 q 533 168 488 139 l 533 36 q 442 -1 490 11 q 339 -14 394 -14 q 174 35 238 -14 q 83 170 111 83 q 54 372 54 257 q 83 588 54 500 q 171 722 113 676 q 315 767 229 767 m 318 644 q 240 599 268 644 q 208 451 211 553 l 421 451 q 409 551 421 508 q 375 619 397 594 q 318 644 353 644 m 385 1064 q 421 998 400 1033 q 466 927 442 963 q 515 858 490 892 l 515 842 l 424 842 q 371 896 399 865 q 313 961 343 926 q 253 894 282 926 q 203 842 225 863 l 111 842 l 111 858 q 159 926 135 889 q 206 999 183 963 q 242 1064 228 1036 l 385 1064 z "},"ë":{"ha":614,"x_min":54,"x_max":565,"o":"m 315 767 q 453 724 397 767 q 537 606 508 681 q 565 429 565 531 l 565 336 l 207 336 q 246 169 208 224 q 358 114 283 114 q 446 126 404 114 q 533 168 488 139 l 533 36 q 442 -1 490 11 q 339 -14 394 -14 q 174 35 238 -14 q 83 170 111 83 q 54 372 54 257 q 83 588 54 500 q 171 722 113 676 q 315 767 229 767 m 318 644 q 240 599 268 644 q 208 451 211 553 l 421 451 q 409 551 421 508 q 375 619 397 594 q 318 644 353 644 m 115 939 q 136 1003 115 982 q 190 1024 157 1024 q 244 1002 224 1024 q 265 939 265 981 q 244 876 265 899 q 190 854 224 854 q 136 876 157 854 q 115 939 115 899 m 358 939 q 379 1003 358 982 q 433 1024 400 1024 q 488 1002 467 1024 q 508 939 508 981 q 488 876 508 899 q 432 854 467 854 q 378 876 399 854 q 358 939 358 899 z "},"ì":{"ha":322,"x_min":-17,"x_max":281,"o":"m 239 0 l 83 0 l 83 754 l 239 754 l 239 0 m 163 1064 q 198 994 176 1033 q 242 919 219 956 q 281 858 264 882 l 281 842 l 172 842 q 127 885 154 858 q 72 943 100 913 q 21 1002 44 974 q -17 1051 -3 1031 l -17 1064 l 163 1064 z "},"í":{"ha":322,"x_min":74,"x_max":371,"o":"m 239 0 l 83 0 l 83 754 l 239 754 l 239 0 m 371 1051 q 334 1003 357 1031 q 285 947 311 976 q 231 890 258 917 q 182 842 204 863 l 74 842 l 74 858 q 120 931 99 896 q 160 1000 142 967 q 192 1064 178 1033 l 371 1064 l 371 1051 z "},"î":{"ha":322,"x_min":-42,"x_max":361,"o":"m 239 0 l 83 0 l 83 754 l 239 754 l 239 0 m 232 1064 q 268 998 247 1033 q 313 927 289 963 q 363 858 338 892 l 363 842 l 271 842 q 218 896 246 865 q 160 961 190 926 q 101 894 129 926 q 50 842 72 863 l -42 842 l -42 858 q 6 926 -18 889 q 53 999 31 963 q 89 1064 75 1036 l 232 1064 z "},"ï":{"ha":322,"x_min":-37,"x_max":356,"o":"m 239 0 l 83 0 l 83 754 l 239 754 l 239 0 m -37 939 q -17 1003 -37 982 q 38 1024 4 1024 q 92 1002 71 1024 q 113 939 113 981 q 92 876 113 899 q 38 854 71 854 q -17 876 4 854 q -37 939 -37 899 m 206 939 q 226 1003 206 982 q 281 1024 247 1024 q 335 1002 314 1024 q 356 939 356 981 q 335 876 356 899 q 279 854 314 854 q 226 876 246 854 q 206 939 206 899 z "},"ð":{"ha":657,"x_min":53,"x_max":604,"o":"m 247 1061 q 300 1028 274 1047 q 354 986 326 1010 l 458 1061 l 519 983 l 424 918 q 522 772 482 851 q 583 592 561 692 q 604 369 604 493 q 572 161 604 247 q 478 31 540 75 q 326 -14 417 -14 q 179 31 240 -14 q 85 154 118 76 q 53 329 53 232 q 85 515 53 439 q 174 630 118 590 q 301 669 231 669 q 346 665 326 669 q 383 650 365 660 q 414 625 401 640 l 418 628 q 381 736 407 685 q 318 833 356 788 l 221 765 l 163 843 l 256 910 q 218 944 238 928 q 179 974 199 960 l 247 1061 m 329 536 q 264 513 290 536 q 224 443 238 490 q 210 325 210 396 q 222 218 210 265 q 261 144 235 171 q 329 118 288 118 q 420 172 393 118 q 447 333 447 226 q 440 415 447 378 q 419 479 433 451 q 382 522 404 507 q 329 536 360 536 z "},"ñ":{"ha":672,"x_min":82,"x_max":592,"o":"m 399 768 q 542 701 492 768 q 592 504 592 635 l 592 0 l 436 0 l 436 463 q 417 588 436 546 q 353 631 399 631 q 264 572 290 631 q 238 374 238 513 l 238 0 l 82 0 l 82 754 l 206 754 l 222 656 l 232 656 q 274 717 249 692 q 331 756 299 743 q 399 768 363 768 m 131 840 q 138 906 132 872 q 158 969 144 940 q 193 1015 171 997 q 249 1033 215 1033 q 301 1022 276 1033 q 348 996 325 1011 q 392 970 371 981 q 435 960 414 960 q 465 979 456 960 q 481 1035 475 999 l 568 1035 q 532 891 565 940 q 450 842 499 842 q 399 853 425 842 q 348 879 372 864 q 303 906 324 894 q 265 917 282 917 q 237 897 250 917 q 218 840 224 878 l 131 840 z "},"ò":{"ha":656,"x_min":53,"x_max":603,"o":"m 603 379 q 587 225 603 296 q 538 101 571 154 q 453 17 506 47 q 326 -14 400 -14 q 206 16 257 -14 q 120 99 154 46 q 69 224 86 153 q 53 379 53 296 q 82 585 53 497 q 172 720 111 672 q 329 768 233 768 q 475 724 414 768 q 569 592 536 679 q 603 379 603 506 m 211 376 q 224 234 211 292 q 262 147 236 176 q 328 118 288 118 q 394 147 369 118 q 432 235 419 176 q 444 378 444 293 q 432 522 444 465 q 394 608 419 579 q 328 636 369 636 q 239 572 267 636 q 211 376 211 508 m 329 1064 q 365 994 343 1033 q 408 919 386 956 q 447 858 431 882 l 447 842 l 339 842 q 294 885 321 858 q 239 943 267 913 q 188 1002 211 974 q 150 1051 164 1031 l 150 1064 l 329 1064 z "},"ó":{"ha":656,"x_min":53,"x_max":603,"o":"m 603 379 q 587 225 603 296 q 538 101 571 154 q 453 17 506 47 q 326 -14 400 -14 q 206 16 257 -14 q 120 99 154 46 q 69 224 86 153 q 53 379 53 296 q 82 585 53 497 q 172 720 111 672 q 329 768 233 768 q 475 724 414 768 q 569 592 536 679 q 603 379 603 506 m 211 376 q 224 234 211 292 q 262 147 236 176 q 328 118 288 118 q 394 147 369 118 q 432 235 419 176 q 444 378 444 293 q 432 522 444 465 q 394 608 419 579 q 328 636 369 636 q 239 572 267 636 q 211 376 211 508 m 539 1051 q 502 1003 525 1031 q 453 947 479 976 q 399 890 426 917 q 350 842 372 863 l 242 842 l 242 858 q 288 931 267 896 q 328 1000 310 967 q 360 1064 346 1033 l 539 1064 l 539 1051 z "},"ô":{"ha":656,"x_min":53,"x_max":603,"o":"m 603 379 q 587 225 603 296 q 538 101 571 154 q 453 17 506 47 q 326 -14 400 -14 q 206 16 257 -14 q 120 99 154 46 q 69 224 86 153 q 53 379 53 296 q 82 585 53 497 q 172 720 111 672 q 329 768 233 768 q 475 724 414 768 q 569 592 536 679 q 603 379 603 506 m 211 376 q 224 234 211 292 q 262 147 236 176 q 328 118 288 118 q 394 147 369 118 q 432 235 419 176 q 444 378 444 293 q 432 522 444 465 q 394 608 419 579 q 328 636 369 636 q 239 572 267 636 q 211 376 211 508 m 399 1064 q 435 998 414 1033 q 480 927 456 963 q 529 858 504 892 l 529 842 l 438 842 q 385 896 413 865 q 326 961 357 926 q 267 894 296 926 q 217 842 239 863 l 125 842 l 125 858 q 173 926 149 889 q 219 999 197 963 q 256 1064 242 1036 l 399 1064 z "},"õ":{"ha":656,"x_min":53,"x_max":603,"o":"m 603 379 q 587 225 603 296 q 538 101 571 154 q 453 17 506 47 q 326 -14 400 -14 q 206 16 257 -14 q 120 99 154 46 q 69 224 86 153 q 53 379 53 296 q 82 585 53 497 q 172 720 111 672 q 329 768 233 768 q 475 724 414 768 q 569 592 536 679 q 603 379 603 506 m 211 376 q 224 234 211 292 q 262 147 236 176 q 328 118 288 118 q 394 147 369 118 q 432 235 419 176 q 444 378 444 293 q 432 522 444 465 q 394 608 419 579 q 328 636 369 636 q 239 572 267 636 q 211 376 211 508 m 110 840 q 117 906 111 872 q 137 969 124 940 q 172 1015 150 997 q 228 1033 194 1033 q 280 1022 256 1033 q 327 996 304 1011 q 372 970 350 981 q 414 960 393 960 q 444 979 435 960 q 460 1035 454 999 l 547 1035 q 511 891 544 940 q 429 842 478 842 q 378 853 404 842 q 327 879 351 864 q 282 906 303 894 q 244 917 261 917 q 216 897 229 917 q 197 840 203 878 l 110 840 z "},"ö":{"ha":656,"x_min":53,"x_max":603,"o":"m 603 379 q 587 225 603 296 q 538 101 571 154 q 453 17 506 47 q 326 -14 400 -14 q 206 16 257 -14 q 120 99 154 46 q 69 224 86 153 q 53 379 53 296 q 82 585 53 497 q 172 720 111 672 q 329 768 233 768 q 475 724 414 768 q 569 592 536 679 q 603 379 603 506 m 211 376 q 224 234 211 292 q 262 147 236 176 q 328 118 288 118 q 394 147 369 118 q 432 235 419 176 q 444 378 444 293 q 432 522 444 465 q 394 608 419 579 q 328 636 369 636 q 239 572 267 636 q 211 376 211 508 m 131 939 q 151 1003 131 982 q 206 1024 172 1024 q 260 1002 239 1024 q 281 939 281 981 q 260 876 281 899 q 206 854 239 854 q 151 876 172 854 q 131 939 131 899 m 374 939 q 394 1003 374 982 q 449 1024 415 1024 q 503 1002 482 1024 q 524 939 524 981 q 503 876 524 899 q 447 854 482 854 q 394 876 414 854 q 374 939 374 899 z "},"÷":{"ha":635,"x_min":44,"x_max":589,"o":"m 44 426 l 44 554 l 589 554 l 589 426 l 44 426 m 318 133 q 255 158 278 133 q 232 232 232 183 q 254 306 232 281 q 318 331 276 331 q 380 306 358 331 q 401 232 401 281 q 379 158 401 183 q 318 133 357 133 m 318 649 q 255 674 278 649 q 232 747 232 699 q 254 821 232 796 q 318 846 276 846 q 380 821 358 846 q 401 747 401 796 q 379 674 401 699 q 318 649 357 649 z "},"ø":{"ha":656,"x_min":53,"x_max":601,"o":"m 601 379 q 569 167 601 256 q 476 33 538 79 q 325 -14 414 -14 q 260 -5 290 -14 q 203 21 229 4 l 151 -87 l 68 -49 l 133 82 q 72 213 90 139 q 53 379 53 286 q 124 667 53 567 q 328 768 196 768 q 397 758 365 768 q 454 728 428 749 l 500 819 l 582 781 l 526 665 q 583 542 564 614 q 601 379 601 469 m 204 376 q 207 300 204 335 q 218 239 210 265 l 401 608 q 369 634 388 626 q 328 642 350 642 q 233 576 263 642 q 204 376 204 511 m 451 379 q 448 449 451 418 q 440 507 444 481 l 258 140 q 288 119 271 126 q 326 111 306 111 q 399 141 371 111 q 439 231 426 171 q 451 379 451 290 z "},"ù":{"ha":672,"x_min":81,"x_max":590,"o":"m 590 754 l 590 0 l 468 0 l 450 99 l 440 99 q 400 37 425 63 q 344 -1 375 11 q 275 -14 313 -14 q 165 19 208 -14 q 101 115 122 53 q 81 263 81 178 l 81 754 l 236 754 l 236 304 q 255 169 236 214 q 315 125 274 125 q 388 152 363 125 q 424 233 414 179 q 435 364 435 286 l 435 754 l 590 754 m 339 1064 q 374 994 353 1033 q 418 919 396 956 q 457 858 440 882 l 457 842 l 349 842 q 303 885 331 858 q 249 943 276 913 q 197 1002 221 974 q 160 1051 174 1031 l 160 1064 l 339 1064 z "},"ú":{"ha":672,"x_min":81,"x_max":590,"o":"m 590 754 l 590 0 l 468 0 l 450 99 l 440 99 q 400 37 425 63 q 344 -1 375 11 q 275 -14 313 -14 q 165 19 208 -14 q 101 115 122 53 q 81 263 81 178 l 81 754 l 236 754 l 236 304 q 255 169 236 214 q 315 125 274 125 q 388 152 363 125 q 424 233 414 179 q 435 364 435 286 l 435 754 l 590 754 m 549 1051 q 512 1003 535 1031 q 463 947 489 976 q 409 890 436 917 q 360 842 382 863 l 251 842 l 251 858 q 298 931 276 896 q 338 1000 319 967 q 369 1064 356 1033 l 549 1064 l 549 1051 z "},"û":{"ha":672,"x_min":81,"x_max":590,"o":"m 590 754 l 590 0 l 468 0 l 450 99 l 440 99 q 400 37 425 63 q 344 -1 375 11 q 275 -14 313 -14 q 165 19 208 -14 q 101 115 122 53 q 81 263 81 178 l 81 754 l 236 754 l 236 304 q 255 169 236 214 q 315 125 274 125 q 388 152 363 125 q 424 233 414 179 q 435 364 435 286 l 435 754 l 590 754 m 408 1064 q 444 998 424 1033 q 490 927 465 963 q 539 858 514 892 l 539 842 l 447 842 q 394 896 422 865 q 336 961 367 926 q 277 894 306 926 q 226 842 249 863 l 135 842 l 135 858 q 183 926 158 889 q 229 999 207 963 q 265 1064 251 1036 l 408 1064 z "},"ü":{"ha":672,"x_min":81,"x_max":590,"o":"m 590 754 l 590 0 l 468 0 l 450 99 l 440 99 q 400 37 425 63 q 344 -1 375 11 q 275 -14 313 -14 q 165 19 208 -14 q 101 115 122 53 q 81 263 81 178 l 81 754 l 236 754 l 236 304 q 255 169 236 214 q 315 125 274 125 q 388 152 363 125 q 424 233 414 179 q 435 364 435 286 l 435 754 l 590 754 m 140 939 q 161 1003 140 982 q 215 1024 182 1024 q 269 1002 249 1024 q 290 939 290 981 q 269 876 290 899 q 215 854 249 854 q 161 876 182 854 q 140 939 140 899 m 383 939 q 404 1003 383 982 q 458 1024 425 1024 q 513 1002 492 1024 q 533 939 533 981 q 513 876 533 899 q 457 854 492 854 q 403 876 424 854 q 383 939 383 899 z "},"ý":{"ha":578,"x_min":4,"x_max":574,"o":"m 4 754 l 167 754 l 260 367 q 272 315 267 340 q 281 263 276 289 q 289 213 286 236 l 294 213 q 306 282 297 244 q 324 365 314 319 l 413 754 l 574 754 l 350 -89 q 295 -229 326 -175 q 221 -308 264 -283 q 119 -333 178 -333 q 79 -331 99 -333 q 39 -322 60 -328 l 39 -185 q 67 -192 53 -189 q 93 -194 81 -194 q 139 -183 121 -194 q 171 -141 157 -171 q 199 -57 185 -111 l 215 7 l 4 754 m 500 1051 q 463 1003 486 1031 q 414 947 440 976 q 360 890 388 917 q 311 842 333 863 l 203 842 l 203 858 q 249 931 228 896 q 289 1000 271 967 q 321 1064 307 1033 l 500 1064 l 500 1051 z "},"þ":{"ha":675,"x_min":82,"x_max":622,"o":"m 622 376 q 597 167 622 254 q 522 33 571 79 q 406 -14 474 -14 q 339 -1 371 -14 q 281 37 307 11 q 238 100 256 63 l 232 100 q 236 53 235 75 q 238 13 238 31 q 239 -18 239 -4 l 239 -333 l 82 -333 l 82 1056 l 238 1056 l 238 782 q 236 718 238 750 q 232 654 235 686 l 238 654 q 284 722 260 697 q 338 758 308 747 q 400 768 367 768 q 565 667 507 768 q 622 376 622 565 m 464 375 q 438 573 464 510 q 356 636 411 636 q 266 579 294 636 q 238 397 238 522 l 238 364 q 266 179 238 238 q 356 121 294 121 q 422 154 397 121 q 455 244 446 188 q 464 375 464 301 z "},"ÿ":{"ha":578,"x_min":4,"x_max":574,"o":"m 4 754 l 167 754 l 260 367 q 272 315 267 340 q 281 263 276 289 q 289 213 286 236 l 294 213 q 306 282 297 244 q 324 365 314 319 l 413 754 l 574 754 l 350 -89 q 295 -229 326 -175 q 221 -308 264 -283 q 119 -333 178 -333 q 79 -331 99 -333 q 39 -322 60 -328 l 39 -185 q 67 -192 53 -189 q 93 -194 81 -194 q 139 -183 121 -194 q 171 -141 157 -171 q 199 -57 185 -111 l 215 7 l 4 754 m 92 939 q 113 1003 92 982 q 167 1024 133 1024 q 221 1002 200 1024 q 242 939 242 981 q 221 876 242 899 q 167 854 200 854 q 113 876 133 854 q 92 939 92 899 m 335 939 q 356 1003 335 982 q 410 1024 376 1024 q 464 1002 443 1024 q 485 939 485 981 q 464 876 485 899 q 408 854 443 854 q 355 876 375 854 q 335 939 335 899 z "},"Ā":{"ha":690,"x_min":0,"x_max":690,"o":"m 518 0 l 458 265 l 233 265 l 175 0 l 0 0 l 240 992 l 446 992 l 690 0 l 518 0 m 371 696 q 360 755 365 726 q 352 810 356 783 q 344 860 349 836 q 339 811 343 838 q 330 756 335 785 q 318 697 325 726 l 258 410 l 432 410 l 371 696 m 528 1208 l 528 1093 l 161 1093 l 161 1208 l 528 1208 z "},"ā":{"ha":619,"x_min":43,"x_max":539,"o":"m 325 768 q 486 701 433 768 q 539 503 539 633 l 539 0 l 424 0 l 400 101 l 396 101 q 349 37 375 63 q 291 -1 324 11 q 215 -14 258 -14 q 117 19 156 -14 q 61 105 79 51 q 43 218 43 158 q 108 395 43 335 q 293 461 172 456 l 383 465 l 383 503 q 363 608 383 574 q 294 643 342 643 q 225 631 263 643 q 144 592 188 618 l 100 708 q 206 753 149 739 q 325 768 263 768 m 328 356 q 231 320 263 353 q 200 224 200 288 q 219 139 200 167 q 276 111 239 111 q 355 158 325 111 q 385 288 385 206 l 385 360 l 328 356 m 503 971 l 503 856 l 136 856 l 136 971 l 503 971 z "},"Ă":{"ha":690,"x_min":0,"x_max":690,"o":"m 518 0 l 458 265 l 233 265 l 175 0 l 0 0 l 240 992 l 446 992 l 690 0 l 518 0 m 371 696 q 360 755 365 726 q 352 810 356 783 q 344 860 349 836 q 339 811 343 838 q 330 756 335 785 q 318 697 325 726 l 258 410 l 432 410 l 371 696 m 533 1290 q 508 1178 533 1226 q 440 1106 483 1131 q 342 1081 397 1081 q 208 1133 258 1081 q 156 1290 157 1186 l 251 1290 q 265 1235 254 1257 q 297 1203 276 1214 q 344 1193 317 1193 q 392 1203 372 1193 q 424 1235 413 1213 q 439 1290 436 1257 l 533 1290 z "},"ă":{"ha":619,"x_min":43,"x_max":539,"o":"m 325 768 q 486 701 433 768 q 539 503 539 633 l 539 0 l 424 0 l 400 101 l 396 101 q 349 37 375 63 q 291 -1 324 11 q 215 -14 258 -14 q 117 19 156 -14 q 61 105 79 51 q 43 218 43 158 q 108 395 43 335 q 293 461 172 456 l 383 465 l 383 503 q 363 608 383 574 q 294 643 342 643 q 225 631 263 643 q 144 592 188 618 l 100 708 q 206 753 149 739 q 325 768 263 768 m 328 356 q 231 320 263 353 q 200 224 200 288 q 219 139 200 167 q 276 111 239 111 q 355 158 325 111 q 385 288 385 206 l 385 360 l 328 356 m 508 1053 q 483 941 508 989 q 415 868 458 893 q 317 843 372 843 q 183 896 233 843 q 131 1053 132 949 l 226 1053 q 240 998 229 1019 q 272 966 251 976 q 319 956 292 956 q 367 965 347 956 q 399 997 388 975 q 414 1053 411 1019 l 508 1053 z "},"Ą":{"ha":690,"x_min":0,"x_max":690,"o":"m 518 0 l 458 265 l 233 265 l 175 0 l 0 0 l 240 992 l 446 992 l 690 0 l 518 0 m 371 696 q 360 755 365 726 q 352 810 356 783 q 344 860 349 836 q 339 811 343 838 q 330 756 335 785 q 318 697 325 726 l 258 410 l 432 410 l 371 696 m 547 -150 q 563 -197 547 -179 q 607 -214 579 -214 q 635 -210 625 -214 q 654 -203 646 -207 l 654 -304 q 622 -315 642 -311 q 575 -319 601 -319 q 463 -283 500 -319 q 425 -181 425 -247 q 438 -113 425 -147 q 476 -44 450 -79 q 542 19 503 -10 l 625 0 q 564 -81 581 -47 q 547 -150 547 -114 z "},"ą":{"ha":619,"x_min":43,"x_max":553,"o":"m 325 768 q 486 701 433 768 q 539 503 539 633 l 539 0 l 424 0 l 400 101 l 396 101 q 349 37 375 63 q 291 -1 324 11 q 215 -14 258 -14 q 117 19 156 -14 q 61 105 79 51 q 43 218 43 158 q 108 395 43 335 q 293 461 172 456 l 383 465 l 383 503 q 363 608 383 574 q 294 643 342 643 q 225 631 263 643 q 144 592 188 618 l 100 708 q 206 753 149 739 q 325 768 263 768 m 328 356 q 231 320 263 353 q 200 224 200 288 q 219 139 200 167 q 276 111 239 111 q 355 158 325 111 q 385 288 385 206 l 385 360 l 328 356 m 446 -150 q 462 -197 446 -179 q 506 -214 478 -214 q 534 -210 524 -214 q 553 -203 544 -207 l 553 -304 q 520 -315 540 -311 q 474 -319 500 -319 q 361 -283 399 -319 q 324 -181 324 -247 q 336 -113 324 -147 q 375 -44 349 -79 q 440 19 401 -10 l 524 0 q 463 -81 479 -47 q 446 -150 446 -114 z "},"Ć":{"ha":651,"x_min":64,"x_max":618,"o":"m 421 864 q 336 835 372 864 q 277 756 300 807 q 243 638 254 706 q 232 494 232 571 q 256 297 232 379 q 323 172 279 215 q 429 129 367 129 q 513 142 474 129 q 590 176 553 156 l 590 31 q 506 -3 551 8 q 407 -14 460 -14 q 222 47 299 -14 q 104 221 144 107 q 64 496 64 335 q 86 697 64 604 q 152 860 108 790 q 261 967 196 929 q 410 1006 326 1006 q 518 992 467 1006 q 618 949 569 979 l 568 814 q 498 851 535 838 q 421 864 461 864 m 606 1289 q 569 1241 592 1268 q 519 1184 546 1214 q 466 1127 493 1154 q 417 1079 439 1100 l 308 1079 l 308 1096 q 355 1169 333 1133 q 394 1238 376 1204 q 426 1301 413 1271 l 606 1301 l 606 1289 z "},"ć":{"ha":526,"x_min":54,"x_max":521,"o":"m 324 -14 q 174 28 235 -14 q 83 157 113 71 q 54 374 54 243 q 83 580 54 492 q 173 718 113 668 q 326 768 233 768 q 420 757 379 768 q 497 724 461 746 l 453 599 q 395 625 424 617 q 339 633 367 633 q 269 604 297 633 q 226 517 240 575 q 211 374 211 460 q 226 233 211 290 q 269 149 240 176 q 342 121 299 121 q 413 133 376 121 q 485 168 449 146 l 485 36 q 408 -1 451 11 q 324 -14 365 -14 m 521 1051 q 484 1003 507 1031 q 435 947 461 976 q 381 890 408 917 q 332 842 354 863 l 224 842 l 224 858 q 270 931 249 896 q 310 1000 292 967 q 342 1064 328 1033 l 521 1064 l 521 1051 z "},"Ĉ":{"ha":651,"x_min":64,"x_max":618,"o":"m 421 864 q 336 835 372 864 q 277 756 300 807 q 243 638 254 706 q 232 494 232 571 q 256 297 232 379 q 323 172 279 215 q 429 129 367 129 q 513 142 474 129 q 590 176 553 156 l 590 31 q 506 -3 551 8 q 407 -14 460 -14 q 222 47 299 -14 q 104 221 144 107 q 64 496 64 335 q 86 697 64 604 q 152 860 108 790 q 261 967 196 929 q 410 1006 326 1006 q 518 992 467 1006 q 618 949 569 979 l 568 814 q 498 851 535 838 q 421 864 461 864 m 465 1301 q 501 1235 481 1271 q 547 1165 522 1200 q 596 1096 571 1129 l 596 1079 l 504 1079 q 451 1133 479 1103 q 393 1199 424 1164 q 334 1132 363 1164 q 283 1079 306 1100 l 192 1079 l 192 1096 q 240 1163 215 1126 q 286 1237 264 1200 q 322 1301 308 1274 l 465 1301 z "},"ĉ":{"ha":526,"x_min":54,"x_max":511,"o":"m 324 -14 q 174 28 235 -14 q 83 157 113 71 q 54 374 54 243 q 83 580 54 492 q 173 718 113 668 q 326 768 233 768 q 420 757 379 768 q 497 724 461 746 l 453 599 q 395 625 424 617 q 339 633 367 633 q 269 604 297 633 q 226 517 240 575 q 211 374 211 460 q 226 233 211 290 q 269 149 240 176 q 342 121 299 121 q 413 133 376 121 q 485 168 449 146 l 485 36 q 408 -1 451 11 q 324 -14 365 -14 m 382 1064 q 418 998 397 1033 q 463 927 439 963 q 513 858 488 892 l 513 842 l 421 842 q 368 896 396 865 q 310 961 340 926 q 251 894 279 926 q 200 842 222 863 l 108 842 l 108 858 q 156 926 132 889 q 203 999 181 963 q 239 1064 225 1036 l 382 1064 z "},"Ċ":{"ha":651,"x_min":64,"x_max":618,"o":"m 421 864 q 336 835 372 864 q 277 756 300 807 q 243 638 254 706 q 232 494 232 571 q 256 297 232 379 q 323 172 279 215 q 429 129 367 129 q 513 142 474 129 q 590 176 553 156 l 590 31 q 506 -3 551 8 q 407 -14 460 -14 q 222 47 299 -14 q 104 221 144 107 q 64 496 64 335 q 86 697 64 604 q 152 860 108 790 q 261 967 196 929 q 410 1006 326 1006 q 518 992 467 1006 q 618 949 569 979 l 568 814 q 498 851 535 838 q 421 864 461 864 m 403 1283 q 468 1259 447 1283 q 489 1189 489 1235 q 467 1119 489 1143 q 403 1096 446 1096 q 340 1119 363 1096 q 317 1189 317 1143 q 338 1260 317 1236 q 403 1283 360 1283 z "},"ċ":{"ha":526,"x_min":54,"x_max":497,"o":"m 324 -14 q 174 28 235 -14 q 83 157 113 71 q 54 374 54 243 q 83 580 54 492 q 173 718 113 668 q 326 768 233 768 q 420 757 379 768 q 497 724 461 746 l 453 599 q 395 625 424 617 q 339 633 367 633 q 269 604 297 633 q 226 517 240 575 q 211 374 211 460 q 226 233 211 290 q 269 149 240 176 q 342 121 299 121 q 413 133 376 121 q 485 168 449 146 l 485 36 q 408 -1 451 11 q 324 -14 365 -14 m 319 1046 q 385 1022 364 1046 q 406 951 406 997 q 384 882 406 906 q 319 858 363 858 q 256 882 279 858 q 233 951 233 906 q 255 1022 233 999 q 319 1046 276 1046 z "},"Č":{"ha":651,"x_min":64,"x_max":618,"o":"m 421 864 q 336 835 372 864 q 277 756 300 807 q 243 638 254 706 q 232 494 232 571 q 256 297 232 379 q 323 172 279 215 q 429 129 367 129 q 513 142 474 129 q 590 176 553 156 l 590 31 q 506 -3 551 8 q 407 -14 460 -14 q 222 47 299 -14 q 104 221 144 107 q 64 496 64 335 q 86 697 64 604 q 152 860 108 790 q 261 967 196 929 q 410 1006 326 1006 q 518 992 467 1006 q 618 949 569 979 l 568 814 q 498 851 535 838 q 421 864 461 864 m 322 1079 q 286 1145 308 1108 q 239 1219 264 1182 q 192 1285 214 1257 l 192 1301 l 283 1301 q 337 1248 308 1279 q 393 1182 365 1217 q 451 1247 426 1221 q 504 1301 475 1274 l 596 1301 l 596 1285 q 551 1222 575 1258 q 503 1147 526 1185 q 465 1079 481 1110 l 322 1079 z "},"č":{"ha":526,"x_min":54,"x_max":511,"o":"m 324 -14 q 174 28 235 -14 q 83 157 113 71 q 54 374 54 243 q 83 580 54 492 q 173 718 113 668 q 326 768 233 768 q 420 757 379 768 q 497 724 461 746 l 453 599 q 395 625 424 617 q 339 633 367 633 q 269 604 297 633 q 226 517 240 575 q 211 374 211 460 q 226 233 211 290 q 269 149 240 176 q 342 121 299 121 q 413 133 376 121 q 485 168 449 146 l 485 36 q 408 -1 451 11 q 324 -14 365 -14 m 239 842 q 203 908 225 871 q 156 982 181 944 q 108 1047 131 1019 l 108 1064 l 200 1064 q 253 1010 225 1042 q 310 944 282 979 q 367 1010 343 983 q 421 1064 392 1036 l 513 1064 l 513 1047 q 467 984 492 1021 q 420 910 443 947 q 382 842 397 872 l 239 842 z "},"Ď":{"ha":754,"x_min":93,"x_max":692,"o":"m 692 511 q 648 231 692 344 q 521 58 604 117 q 314 0 438 0 l 93 0 l 93 992 l 326 992 q 526 937 444 992 q 649 775 607 882 q 692 511 692 668 m 524 504 q 501 699 524 622 q 433 813 478 775 q 322 850 389 850 l 256 850 l 256 143 l 313 143 q 472 233 421 143 q 524 504 524 322 m 300 1079 q 264 1145 286 1108 q 217 1219 242 1182 q 169 1285 192 1257 l 169 1301 l 261 1301 q 315 1248 286 1279 q 371 1182 343 1217 q 428 1247 404 1221 q 482 1301 453 1274 l 574 1301 l 574 1285 q 528 1222 553 1258 q 481 1147 504 1185 q 443 1079 458 1110 l 300 1079 z "},"ď":{"ha":675,"x_min":53,"x_max":828,"o":"m 828 1040 q 806 971 821 1010 q 775 896 792 932 q 742 833 758 860 l 644 833 l 644 850 q 652 890 647 864 q 662 948 657 917 q 669 1008 667 979 q 674 1056 672 1038 l 828 1056 l 828 1040 m 275 -14 q 110 89 167 -14 q 53 378 53 192 q 110 666 53 564 q 271 768 167 768 q 336 756 306 768 q 392 719 367 744 q 436 658 418 694 l 443 658 q 440 726 442 697 q 438 776 438 754 l 438 1056 l 593 1056 l 593 0 l 468 0 l 447 88 l 438 88 q 393 31 417 54 q 341 -3 369 8 q 275 -14 313 -14 m 319 117 q 408 174 379 117 q 438 350 438 231 l 438 393 q 410 575 438 517 q 318 633 382 633 q 238 568 264 633 q 211 378 211 503 q 238 183 211 249 q 319 117 265 117 z "},"Đ":{"ha":754,"x_min":18,"x_max":690,"o":"m 325 992 q 524 937 443 992 q 648 776 606 882 q 690 511 690 669 q 647 231 690 344 q 520 58 604 117 q 314 0 436 0 l 93 0 l 93 449 l 18 449 l 18 572 l 93 572 l 93 992 l 325 992 m 322 850 l 256 850 l 256 572 l 375 572 l 375 449 l 256 449 l 256 143 l 313 143 q 472 233 421 143 q 524 504 524 322 q 501 699 524 622 q 433 813 478 775 q 322 850 389 850 z "},"đ":{"ha":675,"x_min":53,"x_max":675,"o":"m 275 -14 q 110 87 167 -14 q 53 369 53 188 q 110 651 53 551 q 271 750 167 750 q 336 738 306 750 q 392 701 367 726 q 436 639 418 676 l 443 639 q 440 708 442 678 q 438 758 438 738 l 438 828 l 299 828 l 299 940 l 438 940 l 438 1056 l 593 1056 l 593 940 l 675 940 l 675 828 l 593 828 l 593 0 l 468 0 l 446 88 l 438 88 q 392 31 417 54 q 340 -3 368 8 q 275 -14 313 -14 m 319 117 q 408 173 379 117 q 438 349 438 229 l 438 382 q 410 558 438 501 q 318 614 382 614 q 238 552 264 614 q 211 369 211 490 q 238 180 211 243 q 319 117 265 117 z "},"Ē":{"ha":581,"x_min":93,"x_max":519,"o":"m 519 0 l 93 0 l 93 992 l 519 992 l 519 851 l 256 851 l 256 586 l 503 586 l 503 446 l 256 446 l 256 143 l 519 143 l 519 0 m 490 1208 l 490 1093 l 124 1093 l 124 1208 l 490 1208 z "},"ē":{"ha":614,"x_min":54,"x_max":565,"o":"m 315 767 q 453 724 397 767 q 537 606 508 681 q 565 429 565 531 l 565 336 l 207 336 q 246 169 208 224 q 358 114 283 114 q 446 126 404 114 q 533 168 488 139 l 533 36 q 442 -1 490 11 q 339 -14 394 -14 q 174 35 238 -14 q 83 170 111 83 q 54 372 54 257 q 83 588 54 500 q 171 722 113 676 q 315 767 229 767 m 318 644 q 240 599 268 644 q 208 451 211 553 l 421 451 q 409 551 421 508 q 375 619 397 594 q 318 644 353 644 m 496 971 l 496 856 l 129 856 l 129 971 l 496 971 z "},"Ĕ":{"ha":581,"x_min":93,"x_max":519,"o":"m 519 0 l 93 0 l 93 992 l 519 992 l 519 851 l 256 851 l 256 586 l 503 586 l 503 446 l 256 446 l 256 143 l 519 143 l 519 0 m 496 1290 q 471 1178 496 1226 q 403 1106 446 1131 q 304 1081 360 1081 q 170 1133 221 1081 q 118 1290 119 1186 l 214 1290 q 228 1235 217 1257 q 259 1203 239 1214 q 307 1193 279 1193 q 355 1203 335 1193 q 387 1235 375 1213 q 401 1290 399 1257 l 496 1290 z "},"ĕ":{"ha":614,"x_min":54,"x_max":565,"o":"m 315 767 q 453 724 397 767 q 537 606 508 681 q 565 429 565 531 l 565 336 l 207 336 q 246 169 208 224 q 358 114 283 114 q 446 126 404 114 q 533 168 488 139 l 533 36 q 442 -1 490 11 q 339 -14 394 -14 q 174 35 238 -14 q 83 170 111 83 q 54 372 54 257 q 83 588 54 500 q 171 722 113 676 q 315 767 229 767 m 318 644 q 240 599 268 644 q 208 451 211 553 l 421 451 q 409 551 421 508 q 375 619 397 594 q 318 644 353 644 m 501 1053 q 476 941 501 989 q 408 868 451 893 q 310 843 365 843 q 176 896 226 843 q 124 1053 125 949 l 219 1053 q 233 998 222 1019 q 265 966 244 976 q 313 956 285 956 q 360 965 340 956 q 392 997 381 975 q 407 1053 404 1019 l 501 1053 z "},"Ė":{"ha":581,"x_min":93,"x_max":519,"o":"m 519 0 l 93 0 l 93 992 l 519 992 l 519 851 l 256 851 l 256 586 l 503 586 l 503 446 l 256 446 l 256 143 l 519 143 l 519 0 m 317 1283 q 382 1259 361 1283 q 403 1189 403 1235 q 381 1119 403 1143 q 317 1096 360 1096 q 253 1119 276 1096 q 231 1189 231 1143 q 252 1260 231 1236 q 317 1283 274 1283 z "},"ė":{"ha":614,"x_min":54,"x_max":565,"o":"m 315 767 q 453 724 397 767 q 537 606 508 681 q 565 429 565 531 l 565 336 l 207 336 q 246 169 208 224 q 358 114 283 114 q 446 126 404 114 q 533 168 488 139 l 533 36 q 442 -1 490 11 q 339 -14 394 -14 q 174 35 238 -14 q 83 170 111 83 q 54 372 54 257 q 83 588 54 500 q 171 722 113 676 q 315 767 229 767 m 318 644 q 240 599 268 644 q 208 451 211 553 l 421 451 q 409 551 421 508 q 375 619 397 594 q 318 644 353 644 m 322 1046 q 388 1022 367 1046 q 408 951 408 997 q 387 882 408 906 q 322 858 365 858 q 259 882 282 858 q 236 951 236 906 q 258 1022 236 999 q 322 1046 279 1046 z "},"Ę":{"ha":581,"x_min":93,"x_max":519,"o":"m 519 0 l 93 0 l 93 992 l 519 992 l 519 851 l 256 851 l 256 586 l 503 586 l 503 446 l 256 446 l 256 143 l 519 143 l 519 0 m 410 -150 q 426 -197 410 -179 q 469 -214 442 -214 q 498 -210 488 -214 q 517 -203 508 -207 l 517 -304 q 484 -315 504 -311 q 438 -319 464 -319 q 325 -283 363 -319 q 288 -181 288 -247 q 300 -113 288 -147 q 339 -44 313 -79 q 404 19 365 -10 l 488 0 q 426 -81 443 -47 q 410 -150 410 -114 z "},"ę":{"ha":614,"x_min":54,"x_max":565,"o":"m 424 -153 q 439 -195 424 -181 q 479 -210 454 -210 q 509 -206 493 -210 q 535 -199 525 -203 l 535 -304 q 492 -315 517 -312 q 446 -318 468 -318 q 336 -281 371 -318 q 301 -178 301 -244 q 314 -112 301 -144 q 349 -52 326 -81 q 406 1 372 -24 l 533 36 q 470 -35 494 -1 q 435 -99 446 -69 q 424 -153 424 -128 m 315 767 q 453 724 397 767 q 537 606 508 681 q 565 429 565 531 l 565 336 l 207 336 q 246 169 208 224 q 358 114 283 114 q 446 126 404 114 q 533 168 488 139 l 533 36 q 442 -1 490 11 q 339 -14 394 -14 q 174 35 238 -14 q 83 170 111 83 q 54 372 54 257 q 83 588 54 500 q 171 722 113 676 q 315 767 229 767 m 318 644 q 240 599 268 644 q 208 451 211 553 l 421 451 q 409 551 421 508 q 375 619 397 594 q 318 644 353 644 z "},"Ě":{"ha":581,"x_min":93,"x_max":519,"o":"m 519 0 l 93 0 l 93 992 l 519 992 l 519 851 l 256 851 l 256 586 l 503 586 l 503 446 l 256 446 l 256 143 l 519 143 l 519 0 m 236 1079 q 200 1145 222 1108 q 153 1219 178 1182 q 106 1285 128 1257 l 106 1301 l 197 1301 q 251 1248 222 1279 q 307 1182 279 1217 q 365 1247 340 1221 q 418 1301 389 1274 l 510 1301 l 510 1285 q 465 1222 489 1258 q 417 1147 440 1185 q 379 1079 394 1110 l 236 1079 z "},"ě":{"ha":614,"x_min":54,"x_max":565,"o":"m 315 767 q 453 724 397 767 q 537 606 508 681 q 565 429 565 531 l 565 336 l 207 336 q 246 169 208 224 q 358 114 283 114 q 446 126 404 114 q 533 168 488 139 l 533 36 q 442 -1 490 11 q 339 -14 394 -14 q 174 35 238 -14 q 83 170 111 83 q 54 372 54 257 q 83 588 54 500 q 171 722 113 676 q 315 767 229 767 m 318 644 q 240 599 268 644 q 208 451 211 553 l 421 451 q 409 551 421 508 q 375 619 397 594 q 318 644 353 644 m 242 842 q 206 908 228 871 q 158 982 183 944 q 111 1047 133 1019 l 111 1064 l 203 1064 q 256 1010 228 1042 q 313 944 285 979 q 370 1010 346 983 q 424 1064 394 1036 l 515 1064 l 515 1047 q 470 984 494 1021 q 423 910 446 947 q 385 842 400 872 l 242 842 z "},"Ĝ":{"ha":782,"x_min":64,"x_max":710,"o":"m 421 546 l 710 546 l 710 39 q 572 -1 643 13 q 428 -14 501 -14 q 224 51 306 -14 q 103 231 143 115 q 64 499 64 346 q 108 765 64 651 q 241 942 153 878 q 458 1006 329 1006 q 587 989 526 1006 q 697 943 647 972 l 646 807 q 557 850 603 836 q 464 864 511 864 q 336 822 388 864 q 258 697 285 779 q 232 494 232 614 q 254 303 232 386 q 322 175 276 221 q 439 129 367 129 q 498 134 469 129 q 551 146 526 139 l 551 406 l 421 406 l 421 546 m 511 1301 q 547 1235 526 1271 q 592 1165 568 1200 q 642 1096 617 1129 l 642 1079 l 550 1079 q 497 1133 525 1103 q 439 1199 469 1164 q 380 1132 408 1164 q 329 1079 351 1100 l 238 1079 l 238 1096 q 285 1163 261 1126 q 332 1237 310 1200 q 368 1301 354 1274 l 511 1301 z "},"ĝ":{"ha":675,"x_min":53,"x_max":593,"o":"m 275 768 q 367 742 329 768 q 436 657 406 717 l 446 657 l 460 754 l 593 754 l 593 21 q 560 -172 593 -92 q 460 -292 528 -251 q 283 -333 392 -333 q 179 -322 226 -333 q 89 -285 132 -310 l 89 -144 q 188 -185 140 -172 q 279 -199 235 -199 q 397 -160 356 -199 q 438 -28 438 -121 l 438 -11 q 440 43 438 13 q 444 103 442 74 l 438 103 q 367 15 407 43 q 271 -14 328 -14 q 110 86 168 -14 q 53 372 53 186 q 113 667 53 565 q 275 768 172 768 m 317 633 q 258 603 282 633 q 222 516 233 574 q 211 371 211 458 q 238 181 211 242 q 321 121 265 121 q 372 135 350 121 q 409 176 394 149 q 431 247 424 204 q 438 346 438 289 l 438 383 q 425 526 438 471 q 386 607 413 581 q 317 633 360 633 m 421 1064 q 457 998 436 1033 q 502 927 478 963 q 551 858 526 892 l 551 842 l 460 842 q 407 896 435 865 q 349 961 379 926 q 290 894 318 926 q 239 842 261 863 l 147 842 l 147 858 q 195 926 171 889 q 242 999 219 963 q 278 1064 264 1036 l 421 1064 z "},"Ğ":{"ha":782,"x_min":64,"x_max":710,"o":"m 421 546 l 710 546 l 710 39 q 572 -1 643 13 q 428 -14 501 -14 q 224 51 306 -14 q 103 231 143 115 q 64 499 64 346 q 108 765 64 651 q 241 942 153 878 q 458 1006 329 1006 q 587 989 526 1006 q 697 943 647 972 l 646 807 q 557 850 603 836 q 464 864 511 864 q 336 822 388 864 q 258 697 285 779 q 232 494 232 614 q 254 303 232 386 q 322 175 276 221 q 439 129 367 129 q 498 134 469 129 q 551 146 526 139 l 551 406 l 421 406 l 421 546 m 628 1290 q 603 1178 628 1226 q 535 1106 578 1131 q 436 1081 492 1081 q 302 1133 353 1081 q 250 1290 251 1186 l 346 1290 q 360 1235 349 1257 q 391 1203 371 1214 q 439 1193 411 1193 q 487 1203 467 1193 q 519 1235 507 1213 q 533 1290 531 1257 l 628 1290 z "},"ğ":{"ha":675,"x_min":53,"x_max":593,"o":"m 275 768 q 367 742 329 768 q 436 657 406 717 l 446 657 l 460 754 l 593 754 l 593 21 q 560 -172 593 -92 q 460 -292 528 -251 q 283 -333 392 -333 q 179 -322 226 -333 q 89 -285 132 -310 l 89 -144 q 188 -185 140 -172 q 279 -199 235 -199 q 397 -160 356 -199 q 438 -28 438 -121 l 438 -11 q 440 43 438 13 q 444 103 442 74 l 438 103 q 367 15 407 43 q 271 -14 328 -14 q 110 86 168 -14 q 53 372 53 186 q 113 667 53 565 q 275 768 172 768 m 317 633 q 258 603 282 633 q 222 516 233 574 q 211 371 211 458 q 238 181 211 242 q 321 121 265 121 q 372 135 350 121 q 409 176 394 149 q 431 247 424 204 q 438 346 438 289 l 438 383 q 425 526 438 471 q 386 607 413 581 q 317 633 360 633 m 538 1053 q 513 941 538 989 q 444 868 488 893 q 346 843 401 843 q 212 896 263 843 q 160 1053 161 949 l 256 1053 q 269 998 258 1019 q 301 966 281 976 q 349 956 321 956 q 397 965 376 956 q 428 997 417 975 q 443 1053 440 1019 l 538 1053 z "},"Ġ":{"ha":782,"x_min":64,"x_max":710,"o":"m 421 546 l 710 546 l 710 39 q 572 -1 643 13 q 428 -14 501 -14 q 224 51 306 -14 q 103 231 143 115 q 64 499 64 346 q 108 765 64 651 q 241 942 153 878 q 458 1006 329 1006 q 587 989 526 1006 q 697 943 647 972 l 646 807 q 557 850 603 836 q 464 864 511 864 q 336 822 388 864 q 258 697 285 779 q 232 494 232 614 q 254 303 232 386 q 322 175 276 221 q 439 129 367 129 q 498 134 469 129 q 551 146 526 139 l 551 406 l 421 406 l 421 546 m 449 1283 q 514 1259 493 1283 q 535 1189 535 1235 q 513 1119 535 1143 q 449 1096 492 1096 q 385 1119 408 1096 q 363 1189 363 1143 q 384 1260 363 1236 q 449 1283 406 1283 z "},"ġ":{"ha":675,"x_min":53,"x_max":593,"o":"m 275 768 q 367 742 329 768 q 436 657 406 717 l 446 657 l 460 754 l 593 754 l 593 21 q 560 -172 593 -92 q 460 -292 528 -251 q 283 -333 392 -333 q 179 -322 226 -333 q 89 -285 132 -310 l 89 -144 q 188 -185 140 -172 q 279 -199 235 -199 q 397 -160 356 -199 q 438 -28 438 -121 l 438 -11 q 440 43 438 13 q 444 103 442 74 l 438 103 q 367 15 407 43 q 271 -14 328 -14 q 110 86 168 -14 q 53 372 53 186 q 113 667 53 565 q 275 768 172 768 m 317 633 q 258 603 282 633 q 222 516 233 574 q 211 371 211 458 q 238 181 211 242 q 321 121 265 121 q 372 135 350 121 q 409 176 394 149 q 431 247 424 204 q 438 346 438 289 l 438 383 q 425 526 438 471 q 386 607 413 581 q 317 633 360 633 m 358 1046 q 424 1022 403 1046 q 444 951 444 997 q 423 882 444 906 q 358 858 401 858 q 295 882 318 858 q 272 951 272 906 q 294 1022 272 999 q 358 1046 315 1046 z "},"Ģ":{"ha":782,"x_min":64,"x_max":710,"o":"m 421 546 l 710 546 l 710 39 q 572 -1 643 13 q 428 -14 501 -14 q 224 51 306 -14 q 103 231 143 115 q 64 499 64 346 q 108 765 64 651 q 241 942 153 878 q 458 1006 329 1006 q 587 989 526 1006 q 697 943 647 972 l 646 807 q 557 850 603 836 q 464 864 511 864 q 336 822 388 864 q 258 697 285 779 q 232 494 232 614 q 254 303 232 386 q 322 175 276 221 q 439 129 367 129 q 498 134 469 129 q 551 146 526 139 l 551 406 l 421 406 l 421 546 m 533 -100 q 508 -171 524 -133 q 476 -243 493 -208 q 439 -307 458 -278 l 343 -307 l 343 -290 q 358 -228 350 -265 q 372 -151 365 -190 q 379 -85 378 -112 l 533 -85 l 533 -100 z "},"ģ":{"ha":675,"x_min":53,"x_max":593,"o":"m 435 1047 q 417 978 426 1015 q 401 904 408 940 q 393 842 394 868 l 240 842 l 240 857 q 263 927 249 890 q 296 999 276 964 q 338 1064 315 1035 l 435 1064 l 435 1047 m 275 768 q 367 742 329 768 q 436 657 406 717 l 446 657 l 460 754 l 593 754 l 593 21 q 560 -172 593 -92 q 460 -292 528 -251 q 283 -333 392 -333 q 179 -322 226 -333 q 89 -285 132 -310 l 89 -144 q 188 -185 140 -172 q 279 -199 235 -199 q 397 -160 356 -199 q 438 -28 438 -121 l 438 -11 q 440 43 438 13 q 444 103 442 74 l 438 103 q 367 15 407 43 q 271 -14 328 -14 q 110 86 168 -14 q 53 372 53 186 q 113 667 53 565 q 275 768 172 768 m 317 633 q 258 603 282 633 q 222 516 233 574 q 211 371 211 458 q 238 181 211 242 q 321 121 265 121 q 372 135 350 121 q 409 176 394 149 q 431 247 424 204 q 438 346 438 289 l 438 383 q 425 526 438 471 q 386 607 413 581 q 317 633 360 633 z "},"Ĥ":{"ha":781,"x_min":93,"x_max":688,"o":"m 688 0 l 525 0 l 525 446 l 256 446 l 256 0 l 93 0 l 93 992 l 256 992 l 256 588 l 525 588 l 525 992 l 688 992 l 688 0 m 463 1301 q 499 1235 478 1271 q 544 1165 519 1200 q 593 1096 568 1129 l 593 1079 l 501 1079 q 449 1133 476 1103 q 390 1199 421 1164 q 331 1132 360 1164 q 281 1079 303 1100 l 189 1079 l 189 1096 q 237 1163 213 1126 q 283 1237 261 1200 q 319 1301 306 1274 l 463 1301 z "},"ĥ":{"ha":672,"x_min":-42,"x_max":592,"o":"m 238 797 q 235 724 238 760 q 225 656 232 689 l 236 656 q 274 717 250 692 q 330 756 299 743 q 399 768 361 768 q 506 738 463 768 q 570 648 549 707 q 592 503 592 589 l 592 0 l 436 0 l 436 463 q 418 590 436 550 q 356 629 400 629 q 286 602 313 629 q 249 518 260 575 q 238 374 238 461 l 238 0 l 82 0 l 82 1056 l 238 1056 l 238 797 m 232 1365 q 268 1299 247 1335 q 313 1228 289 1264 q 363 1160 338 1193 l 363 1143 l 271 1143 q 218 1197 246 1167 q 160 1263 190 1228 q 101 1196 129 1228 q 50 1143 72 1164 l -42 1143 l -42 1160 q 6 1227 -18 1190 q 53 1301 31 1264 q 89 1365 75 1338 l 232 1365 z "},"Ħ":{"ha":781,"x_min":-4,"x_max":785,"o":"m 94 0 l 94 732 l -4 732 l -4 847 l 94 847 l 94 992 l 256 992 l 256 847 l 525 847 l 525 992 l 688 992 l 688 847 l 785 847 l 785 732 l 688 732 l 688 0 l 525 0 l 525 444 l 256 444 l 256 0 l 94 0 m 256 589 l 525 589 l 525 732 l 256 732 l 256 589 z "},"ħ":{"ha":672,"x_min":1,"x_max":592,"o":"m 238 1056 l 238 939 l 383 939 l 383 825 l 238 825 l 238 754 q 235 701 238 731 q 225 639 232 671 l 235 639 q 274 700 250 675 q 329 738 297 725 q 397 750 361 750 q 506 720 463 750 q 570 631 549 690 q 592 486 592 571 l 592 0 l 436 0 l 436 444 q 417 572 436 532 q 354 611 399 611 q 287 586 313 611 q 249 506 261 561 q 238 356 238 450 l 238 0 l 82 0 l 82 825 l 1 825 l 1 939 l 82 939 l 82 1056 l 238 1056 z "},"Ĩ":{"ha":431,"x_min":-3,"x_max":435,"o":"m 388 0 l 43 0 l 43 89 l 135 122 l 135 869 l 43 903 l 43 992 l 388 992 l 388 903 l 297 869 l 297 122 l 388 89 l 388 0 m -3 1078 q 5 1144 -1 1110 q 24 1206 11 1178 q 60 1253 38 1235 q 115 1271 82 1271 q 167 1260 143 1271 q 215 1233 192 1249 q 259 1208 238 1218 q 301 1197 281 1197 q 332 1217 322 1197 q 347 1272 342 1236 l 435 1272 q 399 1128 432 1178 q 317 1079 365 1079 q 265 1090 292 1079 q 215 1117 239 1101 q 169 1143 190 1132 q 132 1154 149 1154 q 103 1135 117 1154 q 85 1078 90 1115 l -3 1078 z "},"ĩ":{"ha":322,"x_min":-58,"x_max":379,"o":"m 239 0 l 83 0 l 83 754 l 239 754 l 239 0 m -58 840 q -51 906 -57 872 q -31 969 -44 940 q 4 1015 -18 997 q 60 1033 26 1033 q 112 1022 88 1033 q 159 996 136 1011 q 203 970 182 981 q 246 960 225 960 q 276 979 267 960 q 292 1035 286 999 l 379 1035 q 343 891 376 940 q 261 842 310 842 q 210 853 236 842 q 159 879 183 864 q 114 906 135 894 q 76 917 93 917 q 48 897 61 917 q 29 840 35 878 l -58 840 z "},"Ī":{"ha":431,"x_min":32,"x_max":397,"o":"m 388 0 l 43 0 l 43 89 l 135 122 l 135 869 l 43 903 l 43 992 l 388 992 l 388 903 l 297 869 l 297 122 l 388 89 l 388 0 m 399 1208 l 399 1093 l 32 1093 l 32 1208 l 399 1208 z "},"ī":{"ha":322,"x_min":-24,"x_max":343,"o":"m 239 0 l 83 0 l 83 754 l 239 754 l 239 0 m 343 971 l 343 856 l -24 856 l -24 971 l 343 971 z "},"Ĭ":{"ha":431,"x_min":25,"x_max":403,"o":"m 388 0 l 43 0 l 43 89 l 135 122 l 135 869 l 43 903 l 43 992 l 388 992 l 388 903 l 297 869 l 297 122 l 388 89 l 388 0 m 403 1290 q 378 1178 403 1226 q 310 1106 353 1131 q 211 1081 267 1081 q 77 1133 128 1081 q 25 1290 26 1186 l 121 1290 q 135 1235 124 1257 q 166 1203 146 1214 q 214 1193 186 1193 q 262 1203 242 1193 q 294 1235 282 1213 q 308 1290 306 1257 l 403 1290 z "},"ĭ":{"ha":322,"x_min":-29,"x_max":349,"o":"m 239 0 l 83 0 l 83 754 l 239 754 l 239 0 m 349 1053 q 324 941 349 989 q 256 868 299 893 q 157 843 213 843 q 23 896 74 843 q -29 1053 -28 949 l 67 1053 q 81 998 69 1019 q 112 966 92 976 q 160 956 132 956 q 208 965 188 956 q 240 997 228 975 q 254 1053 251 1019 l 349 1053 z "},"Į":{"ha":431,"x_min":43,"x_max":388,"o":"m 388 0 l 43 0 l 43 89 l 135 122 l 135 869 l 43 903 l 43 992 l 388 992 l 388 903 l 297 869 l 297 122 l 388 89 l 388 0 m 272 -150 q 288 -197 272 -179 q 332 -214 304 -214 q 360 -210 350 -214 q 379 -203 371 -207 l 379 -304 q 347 -315 367 -311 q 300 -319 326 -319 q 188 -283 225 -319 q 150 -181 150 -247 q 163 -113 150 -147 q 201 -44 175 -79 q 267 19 228 -10 l 350 0 q 289 -81 306 -47 q 272 -150 272 -114 z "},"į":{"ha":322,"x_min":13,"x_max":247,"o":"m 239 754 l 239 0 l 83 0 l 83 754 l 239 754 m 161 1046 q 226 1022 206 1046 q 247 951 247 997 q 226 882 247 906 q 161 858 204 858 q 98 882 121 858 q 75 951 75 906 q 96 1022 75 999 q 161 1046 117 1046 m 135 -150 q 151 -197 135 -179 q 194 -214 167 -214 q 223 -210 213 -214 q 242 -203 233 -207 l 242 -304 q 209 -315 229 -311 q 163 -319 189 -319 q 50 -283 88 -319 q 13 -181 13 -247 q 25 -113 13 -147 q 64 -44 38 -79 q 129 19 90 -10 l 213 0 q 151 -81 168 -47 q 135 -150 135 -114 z "},"İ":{"ha":431,"x_min":43,"x_max":388,"o":"m 388 0 l 43 0 l 43 89 l 135 122 l 135 869 l 43 903 l 43 992 l 388 992 l 388 903 l 297 869 l 297 122 l 388 89 l 388 0 m 225 1283 q 290 1259 269 1283 q 311 1189 311 1235 q 290 1119 311 1143 q 225 1096 268 1096 q 162 1119 185 1096 q 139 1189 139 1143 q 160 1260 139 1236 q 225 1283 182 1283 z "},"Ĳ":{"ha":763,"x_min":43,"x_max":669,"o":"m 388 0 l 43 0 l 43 89 l 135 122 l 135 869 l 43 903 l 43 992 l 388 992 l 388 903 l 297 869 l 297 122 l 388 89 l 388 0 m 440 -285 q 389 -281 414 -285 q 342 -269 364 -278 l 342 -129 q 377 -139 358 -135 q 418 -143 396 -143 q 471 -126 451 -143 q 499 -72 490 -110 q 508 31 508 -35 l 508 992 l 669 992 l 669 28 q 643 -157 669 -89 q 566 -255 617 -225 q 440 -285 515 -285 z "},"ĳ":{"ha":643,"x_min":75,"x_max":568,"o":"m 239 754 l 239 0 l 83 0 l 83 754 l 239 754 m 161 1046 q 226 1022 206 1046 q 247 951 247 997 q 226 882 247 906 q 161 858 204 858 q 98 882 121 858 q 75 951 75 906 q 96 1022 75 999 q 161 1046 117 1046 m 378 -333 q 333 -330 354 -333 q 292 -319 311 -326 l 292 -185 q 319 -193 306 -190 q 344 -196 332 -196 q 391 -169 376 -196 q 406 -89 406 -143 l 406 754 l 561 754 l 561 -94 q 540 -229 561 -176 q 477 -307 518 -282 q 378 -333 436 -332 m 397 951 q 419 1022 397 999 q 483 1046 440 1046 q 549 1022 528 1046 q 569 951 569 997 q 548 882 569 906 q 483 858 526 858 q 420 882 443 858 q 397 951 397 906 z "},"Ĵ":{"ha":346,"x_min":-74,"x_max":375,"o":"m 25 -285 q -26 -281 -1 -285 q -74 -269 -51 -278 l -74 -129 q -38 -139 -57 -135 q 3 -143 -19 -143 q 56 -126 36 -143 q 84 -72 75 -110 q 93 31 93 -35 l 93 992 l 254 992 l 254 28 q 228 -157 254 -89 q 151 -255 201 -225 q 25 -285 100 -285 m 246 1301 q 282 1235 261 1271 q 327 1165 303 1200 q 376 1096 351 1129 l 376 1079 l 285 1079 q 232 1133 260 1103 q 174 1199 204 1164 q 115 1132 143 1164 q 64 1079 86 1100 l -28 1079 l -28 1096 q 20 1163 -4 1126 q 67 1237 44 1200 q 103 1301 89 1274 l 246 1301 z "},"ĵ":{"ha":322,"x_min":-42,"x_max":363,"o":"m 56 -333 q 9 -329 35 -333 q -31 -319 -17 -325 l -31 -185 q -3 -193 -17 -190 q 22 -196 10 -196 q 69 -171 54 -196 q 83 -93 83 -146 l 83 754 l 239 754 l 239 -94 q 218 -224 239 -171 q 156 -306 197 -278 q 56 -333 115 -333 m 232 1064 q 268 998 247 1033 q 313 927 289 963 q 363 858 338 892 l 363 842 l 271 842 q 218 896 246 865 q 160 961 190 926 q 101 894 129 926 q 50 842 72 863 l -42 842 l -42 858 q 6 926 -18 889 q 53 999 31 963 q 89 1064 75 1036 l 232 1064 z "},"Ķ":{"ha":676,"x_min":93,"x_max":685,"o":"m 685 0 l 504 0 l 321 425 l 256 358 l 256 0 l 93 0 l 93 992 l 256 992 l 256 519 q 281 577 264 543 q 322 657 297 611 l 503 992 l 678 992 l 435 551 l 685 0 m 469 -100 q 444 -171 460 -133 q 412 -243 429 -208 q 375 -307 394 -278 l 279 -307 l 279 -290 q 294 -228 286 -265 q 308 -151 301 -190 q 315 -85 314 -112 l 469 -85 l 469 -100 z "},"ķ":{"ha":618,"x_min":82,"x_max":618,"o":"m 238 572 q 236 485 238 528 q 229 400 235 442 l 235 400 q 252 435 243 418 q 269 467 261 451 q 286 497 278 483 l 440 754 l 607 754 l 417 453 l 618 0 l 450 0 l 310 335 l 238 257 l 238 0 l 82 0 l 82 1056 l 238 1056 l 238 572 m 425 -100 q 400 -171 415 -133 q 367 -243 385 -208 q 331 -307 350 -278 l 235 -307 l 235 -290 q 249 -228 242 -265 q 263 -151 257 -190 q 271 -85 269 -112 l 425 -85 l 425 -100 z "},"ĸ":{"ha":618,"x_min":82,"x_max":618,"o":"m 607 754 l 417 453 l 618 0 l 450 0 l 310 335 l 238 257 l 238 0 l 82 0 l 82 754 l 238 754 l 238 572 q 236 483 238 526 q 229 400 235 440 l 235 400 q 259 447 247 425 q 281 488 271 469 l 440 754 l 607 754 z "},"Ĺ":{"ha":546,"x_min":90,"x_max":524,"o":"m 93 0 l 93 992 l 256 992 l 256 143 l 524 143 l 524 0 l 93 0 m 388 1289 q 351 1241 374 1268 q 301 1184 328 1214 q 248 1127 275 1154 q 199 1079 221 1100 l 90 1079 l 90 1096 q 137 1169 115 1133 q 176 1238 158 1204 q 208 1301 194 1271 l 388 1301 l 388 1289 z "},"ĺ":{"ha":319,"x_min":75,"x_max":372,"o":"m 238 0 l 82 0 l 82 1056 l 238 1056 l 238 0 m 372 1353 q 335 1305 358 1332 q 286 1248 313 1278 q 233 1191 260 1218 q 183 1143 206 1164 l 75 1143 l 75 1160 q 122 1233 100 1197 q 161 1301 143 1268 q 193 1365 179 1335 l 372 1365 l 372 1353 z "},"Ļ":{"ha":546,"x_min":93,"x_max":524,"o":"m 93 0 l 93 992 l 256 992 l 256 143 l 524 143 l 524 0 l 93 0 m 407 -100 q 382 -171 397 -133 q 349 -243 367 -208 q 313 -307 332 -278 l 217 -307 l 217 -290 q 231 -228 224 -265 q 245 -151 239 -190 q 253 -85 251 -112 l 407 -85 l 407 -100 z "},"ļ":{"ha":319,"x_min":67,"x_max":257,"o":"m 238 0 l 82 0 l 82 1056 l 238 1056 l 238 0 m 257 -100 q 232 -171 247 -133 q 199 -243 217 -208 q 163 -307 182 -278 l 67 -307 l 67 -290 q 81 -228 74 -265 q 95 -151 89 -190 q 103 -85 101 -112 l 257 -85 l 257 -100 z "},"Ľ":{"ha":546,"x_min":93,"x_max":571,"o":"m 571 976 q 549 906 564 944 q 518 831 535 867 q 485 768 501 796 l 388 768 l 388 786 q 395 826 390 799 q 405 883 400 853 q 413 943 410 914 q 417 990 415 972 l 571 990 l 571 976 m 93 0 l 93 992 l 256 992 l 256 143 l 524 143 l 524 0 l 93 0 z "},"ľ":{"ha":319,"x_min":82,"x_max":469,"o":"m 469 1040 q 448 971 463 1010 q 417 896 433 932 q 383 833 400 860 l 286 833 l 286 850 q 294 890 289 864 q 303 948 299 917 q 312 1008 308 979 q 315 1056 315 1038 l 469 1056 l 469 1040 m 238 0 l 82 0 l 82 1056 l 238 1056 l 238 0 z "},"Ŀ":{"ha":546,"x_min":93,"x_max":540,"o":"m 93 0 l 93 992 l 256 992 l 256 143 l 524 143 l 524 0 l 93 0 m 456 636 q 521 612 500 636 q 542 542 542 588 q 520 472 542 496 q 456 449 499 449 q 392 472 415 449 q 369 542 369 496 q 391 613 369 589 q 456 636 413 636 z "},"ŀ":{"ha":435,"x_min":82,"x_max":465,"o":"m 238 0 l 82 0 l 82 1056 l 238 1056 l 238 0 m 379 640 q 444 616 424 640 q 465 546 465 592 q 444 476 465 500 q 379 453 422 453 q 316 476 339 453 q 293 546 293 500 q 315 617 293 593 q 379 640 336 640 z "},"Ł":{"ha":565,"x_min":-19,"x_max":542,"o":"m 113 0 l 113 335 l 56 299 l -19 396 l 113 493 l 113 992 l 274 992 l 274 608 l 401 696 l 476 596 l 274 451 l 274 143 l 542 143 l 542 0 l 113 0 z "},"ł":{"ha":365,"x_min":-32,"x_max":400,"o":"m 106 0 l 106 382 l 43 335 l -32 433 l 106 540 l 106 1056 l 261 1056 l 261 656 l 324 703 l 400 606 l 261 496 l 261 0 l 106 0 z "},"Ń":{"ha":836,"x_min":93,"x_max":743,"o":"m 743 0 l 550 0 l 242 736 l 236 736 q 242 651 240 692 q 245 578 244 611 q 246 515 246 544 l 246 0 l 93 0 l 93 992 l 286 992 l 594 271 l 599 271 q 594 353 596 315 q 590 426 592 392 q 589 486 589 460 l 589 992 l 743 992 l 743 0 m 629 1289 q 592 1241 615 1268 q 543 1184 569 1214 q 490 1127 517 1154 q 440 1079 463 1100 l 332 1079 l 332 1096 q 378 1169 357 1133 q 418 1238 400 1204 q 450 1301 436 1271 l 629 1301 l 629 1289 z "},"ń":{"ha":672,"x_min":82,"x_max":592,"o":"m 399 768 q 542 701 492 768 q 592 504 592 635 l 592 0 l 436 0 l 436 463 q 417 588 436 546 q 353 631 399 631 q 264 572 290 631 q 238 374 238 513 l 238 0 l 82 0 l 82 754 l 206 754 l 222 656 l 232 656 q 274 717 249 692 q 331 756 299 743 q 399 768 363 768 m 560 1051 q 523 1003 546 1031 q 474 947 500 976 q 420 890 447 917 q 371 842 393 863 l 263 842 l 263 858 q 309 931 288 896 q 349 1000 331 967 q 381 1064 367 1033 l 560 1064 l 560 1051 z "},"Ņ":{"ha":836,"x_min":93,"x_max":743,"o":"m 743 0 l 550 0 l 242 736 l 236 736 q 242 651 240 692 q 245 578 244 611 q 246 515 246 544 l 246 0 l 93 0 l 93 992 l 286 992 l 594 271 l 599 271 q 594 353 596 315 q 590 426 592 392 q 589 486 589 460 l 589 992 l 743 992 l 743 0 m 514 -100 q 489 -171 504 -133 q 456 -243 474 -208 q 419 -307 439 -278 l 324 -307 l 324 -290 q 338 -228 331 -265 q 352 -151 346 -190 q 360 -85 358 -112 l 514 -85 l 514 -100 z "},"ņ":{"ha":672,"x_min":82,"x_max":592,"o":"m 399 768 q 542 701 492 768 q 592 504 592 635 l 592 0 l 436 0 l 436 463 q 417 588 436 546 q 353 631 399 631 q 264 572 290 631 q 238 374 238 513 l 238 0 l 82 0 l 82 754 l 206 754 l 222 656 l 232 656 q 274 717 249 692 q 331 756 299 743 q 399 768 363 768 m 433 -100 q 408 -171 424 -133 q 376 -243 393 -208 q 339 -307 358 -278 l 243 -307 l 243 -290 q 258 -228 250 -265 q 272 -151 265 -190 q 279 -85 278 -112 l 433 -85 l 433 -100 z "},"Ň":{"ha":836,"x_min":93,"x_max":743,"o":"m 743 0 l 550 0 l 242 736 l 236 736 q 242 651 240 692 q 245 578 244 611 q 246 515 246 544 l 246 0 l 93 0 l 93 992 l 286 992 l 594 271 l 599 271 q 594 353 596 315 q 590 426 592 392 q 589 486 589 460 l 589 992 l 743 992 l 743 0 m 346 1079 q 310 1145 332 1108 q 263 1219 288 1182 q 215 1285 238 1257 l 215 1301 l 307 1301 q 360 1248 332 1279 q 417 1182 389 1217 q 474 1247 450 1221 q 528 1301 499 1274 l 619 1301 l 619 1285 q 574 1222 599 1258 q 527 1147 550 1185 q 489 1079 504 1110 l 346 1079 z "},"ň":{"ha":672,"x_min":82,"x_max":592,"o":"m 399 768 q 542 701 492 768 q 592 504 592 635 l 592 0 l 436 0 l 436 463 q 417 588 436 546 q 353 631 399 631 q 264 572 290 631 q 238 374 238 513 l 238 0 l 82 0 l 82 754 l 206 754 l 222 656 l 232 656 q 274 717 249 692 q 331 756 299 743 q 399 768 363 768 m 278 842 q 242 908 264 871 q 194 982 219 944 q 147 1047 169 1019 l 147 1064 l 239 1064 q 292 1010 264 1042 q 349 944 321 979 q 406 1010 382 983 q 460 1064 431 1036 l 551 1064 l 551 1047 q 506 984 531 1021 q 459 910 482 947 q 421 842 436 872 l 278 842 z "},"ŉ":{"ha":810,"x_min":1,"x_max":729,"o":"m 536 768 q 679 701 629 768 q 729 504 729 635 l 729 0 l 574 0 l 574 463 q 555 588 574 546 q 490 631 536 631 q 401 572 428 631 q 375 374 375 513 l 375 0 l 219 0 l 219 754 l 343 754 l 360 656 l 369 656 q 411 717 386 692 q 468 756 436 743 q 536 768 500 768 m 225 976 q 199 852 214 913 q 165 736 183 792 q 126 629 147 681 l 1 629 q 21 717 11 669 q 38 815 31 765 q 51 910 46 864 q 60 992 57 957 l 217 992 l 225 976 z "},"Ŋ":{"ha":836,"x_min":93,"x_max":743,"o":"m 522 -285 q 470 -281 494 -285 q 422 -269 446 -278 l 422 -129 q 458 -139 439 -135 q 500 -143 478 -143 q 551 -128 532 -143 q 580 -80 571 -112 q 589 4 589 -47 l 240 754 l 236 754 q 242 672 240 711 q 245 598 244 632 q 246 535 246 564 l 246 0 l 93 0 l 93 992 l 286 992 l 593 329 l 597 329 q 592 410 594 372 q 590 482 590 449 q 589 544 589 515 l 589 992 l 743 992 l 743 24 q 719 -149 743 -81 q 647 -251 696 -217 q 522 -285 599 -285 z "},"ŋ":{"ha":672,"x_min":82,"x_max":592,"o":"m 408 -333 q 365 -330 388 -333 q 324 -319 343 -326 l 324 -185 q 351 -193 338 -190 q 376 -196 365 -196 q 422 -169 407 -196 q 436 -89 436 -143 l 436 463 q 417 586 436 544 q 353 628 397 628 q 288 605 314 628 q 250 527 263 582 q 238 374 238 472 l 238 0 l 82 0 l 82 754 l 206 754 l 222 656 l 231 656 q 273 717 249 692 q 329 755 297 742 q 399 768 361 768 q 509 735 467 768 q 572 640 551 701 q 592 492 592 578 l 592 -94 q 572 -217 592 -162 q 513 -302 553 -271 q 408 -333 472 -333 z "},"Ō":{"ha":801,"x_min":64,"x_max":739,"o":"m 739 497 q 719 290 739 383 q 657 128 699 196 q 552 23 615 60 q 401 -14 489 -14 q 250 24 314 -14 q 144 129 186 61 q 83 291 103 197 q 64 499 64 385 q 102 779 64 667 q 215 949 140 892 q 401 1007 290 1007 q 592 942 518 1007 q 703 764 667 878 q 739 497 739 650 m 232 497 q 251 295 232 376 q 308 172 271 214 q 401 131 346 131 q 494 171 457 131 q 550 292 531 211 q 569 497 569 374 q 528 773 569 682 q 401 864 486 864 q 308 822 346 864 q 251 699 269 781 q 232 497 232 618 m 585 1208 l 585 1093 l 218 1093 l 218 1208 l 585 1208 z "},"ō":{"ha":656,"x_min":53,"x_max":603,"o":"m 603 379 q 587 225 603 296 q 538 101 571 154 q 453 17 506 47 q 326 -14 400 -14 q 206 16 257 -14 q 120 99 154 46 q 69 224 86 153 q 53 379 53 296 q 82 585 53 497 q 172 720 111 672 q 329 768 233 768 q 475 724 414 768 q 569 592 536 679 q 603 379 603 506 m 211 376 q 224 234 211 292 q 262 147 236 176 q 328 118 288 118 q 394 147 369 118 q 432 235 419 176 q 444 378 444 293 q 432 522 444 465 q 394 608 419 579 q 328 636 369 636 q 239 572 267 636 q 211 376 211 508 m 511 971 l 511 856 l 144 856 l 144 971 l 511 971 z "},"Ŏ":{"ha":801,"x_min":64,"x_max":739,"o":"m 739 497 q 719 290 739 383 q 657 128 699 196 q 552 23 615 60 q 401 -14 489 -14 q 250 24 314 -14 q 144 129 186 61 q 83 291 103 197 q 64 499 64 385 q 102 779 64 667 q 215 949 140 892 q 401 1007 290 1007 q 592 942 518 1007 q 703 764 667 878 q 739 497 739 650 m 232 497 q 251 295 232 376 q 308 172 271 214 q 401 131 346 131 q 494 171 457 131 q 550 292 531 211 q 569 497 569 374 q 528 773 569 682 q 401 864 486 864 q 308 822 346 864 q 251 699 269 781 q 232 497 232 618 m 589 1290 q 564 1178 589 1226 q 496 1106 539 1131 q 397 1081 453 1081 q 263 1133 314 1081 q 211 1290 213 1186 l 307 1290 q 321 1235 310 1257 q 352 1203 332 1214 q 400 1193 372 1193 q 448 1203 428 1193 q 480 1235 468 1213 q 494 1290 492 1257 l 589 1290 z "},"ŏ":{"ha":656,"x_min":53,"x_max":603,"o":"m 603 379 q 587 225 603 296 q 538 101 571 154 q 453 17 506 47 q 326 -14 400 -14 q 206 16 257 -14 q 120 99 154 46 q 69 224 86 153 q 53 379 53 296 q 82 585 53 497 q 172 720 111 672 q 329 768 233 768 q 475 724 414 768 q 569 592 536 679 q 603 379 603 506 m 211 376 q 224 234 211 292 q 262 147 236 176 q 328 118 288 118 q 394 147 369 118 q 432 235 419 176 q 444 378 444 293 q 432 522 444 465 q 394 608 419 579 q 328 636 369 636 q 239 572 267 636 q 211 376 211 508 m 515 1053 q 490 941 515 989 q 422 868 465 893 q 324 843 379 843 q 190 896 240 843 q 138 1053 139 949 l 233 1053 q 247 998 236 1019 q 278 966 258 976 q 326 956 299 956 q 374 965 354 956 q 406 997 394 975 q 421 1053 418 1019 l 515 1053 z "},"Ő":{"ha":801,"x_min":64,"x_max":739,"o":"m 739 497 q 719 290 739 383 q 657 128 699 196 q 552 23 615 60 q 401 -14 489 -14 q 250 24 314 -14 q 144 129 186 61 q 83 291 103 197 q 64 499 64 385 q 102 779 64 667 q 215 949 140 892 q 401 1007 290 1007 q 592 942 518 1007 q 703 764 667 878 q 739 497 739 650 m 232 497 q 251 295 232 376 q 308 172 271 214 q 401 131 346 131 q 494 171 457 131 q 550 292 531 211 q 569 497 569 374 q 528 773 569 682 q 401 864 486 864 q 308 822 346 864 q 251 699 269 781 q 232 497 232 618 m 636 1289 q 606 1240 626 1268 q 560 1181 586 1211 q 509 1125 535 1151 q 463 1079 483 1099 l 382 1079 l 382 1096 q 426 1174 406 1135 q 464 1248 447 1214 q 488 1301 481 1282 l 636 1301 l 636 1289 m 419 1289 q 389 1239 408 1267 q 345 1183 369 1211 q 294 1128 321 1156 q 239 1079 267 1101 l 165 1079 l 165 1096 q 208 1176 188 1136 q 246 1249 229 1215 q 271 1301 263 1282 l 419 1301 l 419 1289 z "},"ő":{"ha":656,"x_min":53,"x_max":603,"o":"m 603 379 q 587 225 603 296 q 538 101 571 154 q 453 17 506 47 q 326 -14 400 -14 q 206 16 257 -14 q 120 99 154 46 q 69 224 86 153 q 53 379 53 296 q 82 585 53 497 q 172 720 111 672 q 329 768 233 768 q 475 724 414 768 q 569 592 536 679 q 603 379 603 506 m 211 376 q 224 234 211 292 q 262 147 236 176 q 328 118 288 118 q 394 147 369 118 q 432 235 419 176 q 444 378 444 293 q 432 522 444 465 q 394 608 419 579 q 328 636 369 636 q 239 572 267 636 q 211 376 211 508 m 563 1051 q 533 1002 553 1031 q 487 944 513 974 q 435 888 461 914 q 389 842 410 861 l 308 842 l 308 858 q 353 937 332 897 q 390 1010 374 976 q 414 1064 407 1044 l 563 1064 l 563 1051 m 346 1051 q 315 1001 335 1029 q 272 946 296 974 q 220 891 247 918 q 165 842 193 864 l 92 842 l 92 858 q 135 938 114 899 q 172 1011 156 978 q 197 1064 189 1044 l 346 1064 l 346 1051 z "},"Œ":{"ha":951,"x_min":64,"x_max":892,"o":"m 410 1001 q 458 999 435 1001 q 501 992 482 997 l 892 992 l 892 851 l 628 851 l 628 586 l 874 586 l 874 446 l 628 446 l 628 143 l 892 143 l 892 0 l 501 0 q 459 -7 482 -4 q 410 -10 436 -10 q 214 53 290 -10 q 101 230 138 115 q 64 499 64 344 q 101 767 64 654 q 216 941 139 881 q 410 1001 293 1001 m 418 860 q 331 833 367 858 q 274 762 294 808 q 243 649 253 715 q 233 497 233 582 q 251 303 233 385 q 310 180 268 222 q 419 136 351 138 q 447 138 435 136 q 469 140 460 139 l 469 849 q 447 857 460 854 q 418 860 433 860 z "},"œ":{"ha":1003,"x_min":53,"x_max":951,"o":"m 706 767 q 843 724 789 767 q 924 605 897 681 q 951 429 951 529 l 951 336 l 594 336 q 632 168 594 224 q 744 113 669 113 q 832 125 790 113 q 919 167 874 138 l 919 36 q 830 -1 876 11 q 728 -14 783 -14 q 606 15 657 -14 q 519 101 554 44 q 440 15 489 44 q 326 -14 392 -14 q 176 35 236 -14 q 84 173 115 85 q 53 379 53 261 q 83 587 53 500 q 174 721 113 674 q 329 768 235 768 q 439 740 392 768 q 518 656 486 713 q 567 717 540 693 q 628 754 593 742 q 706 767 663 767 m 328 636 q 239 572 267 636 q 211 376 211 508 q 224 234 211 292 q 263 147 236 176 q 328 118 289 118 q 394 147 369 118 q 431 233 419 175 q 443 379 443 290 q 431 522 443 465 q 394 608 419 579 q 328 636 368 636 m 704 643 q 627 597 656 643 q 594 451 599 551 l 808 451 q 797 552 808 508 q 762 619 785 596 q 704 643 739 643 z "},"Ŕ":{"ha":685,"x_min":93,"x_max":676,"o":"m 303 992 q 480 960 410 992 q 584 865 550 928 q 618 707 618 803 q 603 594 618 644 q 556 505 588 543 q 474 439 524 467 l 676 0 l 496 0 l 329 399 l 256 399 l 256 0 l 93 0 l 93 992 l 303 992 m 303 851 l 256 851 l 256 529 l 310 529 q 417 572 381 529 q 453 699 453 614 q 437 786 453 753 q 388 835 421 819 q 303 851 354 851 m 560 1289 q 523 1241 546 1268 q 474 1184 500 1214 q 420 1127 447 1154 q 371 1079 393 1100 l 263 1079 l 263 1096 q 309 1169 288 1133 q 349 1238 331 1204 q 381 1301 367 1271 l 560 1301 l 560 1289 z "},"ŕ":{"ha":460,"x_min":83,"x_max":472,"o":"m 385 768 q 415 766 400 768 q 447 758 431 764 l 431 594 q 403 602 418 600 q 371 604 389 604 q 315 589 339 604 q 273 544 290 574 q 247 476 256 515 q 239 388 239 436 l 239 0 l 83 0 l 83 754 l 203 754 l 225 628 l 233 628 q 271 699 249 667 q 322 749 293 731 q 385 768 350 768 m 472 1051 q 435 1003 458 1031 q 386 947 413 976 q 333 890 360 917 q 283 842 306 863 l 175 842 l 175 858 q 222 931 200 896 q 261 1000 243 967 q 293 1064 279 1033 l 472 1064 l 472 1051 z "},"Ŗ":{"ha":685,"x_min":93,"x_max":676,"o":"m 303 992 q 480 960 410 992 q 584 865 550 928 q 618 707 618 803 q 603 594 618 644 q 556 505 588 543 q 474 439 524 467 l 676 0 l 496 0 l 329 399 l 256 399 l 256 0 l 93 0 l 93 992 l 303 992 m 303 851 l 256 851 l 256 529 l 310 529 q 417 572 381 529 q 453 699 453 614 q 437 786 453 753 q 388 835 421 819 q 303 851 354 851 m 453 -100 q 428 -171 443 -133 q 395 -243 413 -208 q 358 -307 378 -278 l 263 -307 l 263 -290 q 277 -228 269 -265 q 291 -151 285 -190 q 299 -85 297 -112 l 453 -85 l 453 -100 z "},"ŗ":{"ha":460,"x_min":74,"x_max":447,"o":"m 385 768 q 415 766 400 768 q 447 758 431 764 l 431 594 q 403 602 418 600 q 371 604 389 604 q 315 589 339 604 q 273 544 290 574 q 247 476 256 515 q 239 388 239 436 l 239 0 l 83 0 l 83 754 l 203 754 l 225 628 l 233 628 q 271 699 249 667 q 322 749 293 731 q 385 768 350 768 m 264 -100 q 239 -171 254 -133 q 206 -243 224 -208 q 169 -307 189 -278 l 74 -307 l 74 -290 q 88 -228 81 -265 q 102 -151 96 -190 q 110 -85 108 -112 l 264 -85 l 264 -100 z "},"Ř":{"ha":685,"x_min":93,"x_max":676,"o":"m 303 992 q 480 960 410 992 q 584 865 550 928 q 618 707 618 803 q 603 594 618 644 q 556 505 588 543 q 474 439 524 467 l 676 0 l 496 0 l 329 399 l 256 399 l 256 0 l 93 0 l 93 992 l 303 992 m 303 851 l 256 851 l 256 529 l 310 529 q 417 572 381 529 q 453 699 453 614 q 437 786 453 753 q 388 835 421 819 q 303 851 354 851 m 278 1079 q 242 1145 264 1108 q 194 1219 219 1182 q 147 1285 169 1257 l 147 1301 l 239 1301 q 292 1248 264 1279 q 349 1182 321 1217 q 406 1247 382 1221 q 460 1301 431 1274 l 551 1301 l 551 1285 q 506 1222 531 1258 q 459 1147 482 1185 q 421 1079 436 1110 l 278 1079 z "},"ř":{"ha":460,"x_min":58,"x_max":463,"o":"m 385 768 q 415 766 400 768 q 447 758 431 764 l 431 594 q 403 602 418 600 q 371 604 389 604 q 315 589 339 604 q 273 544 290 574 q 247 476 256 515 q 239 388 239 436 l 239 0 l 83 0 l 83 754 l 203 754 l 225 628 l 233 628 q 271 699 249 667 q 322 749 293 731 q 385 768 350 768 m 189 842 q 153 908 175 871 q 106 982 131 944 q 58 1047 81 1019 l 58 1064 l 150 1064 q 203 1010 175 1042 q 260 944 232 979 q 317 1010 293 983 q 371 1064 342 1036 l 463 1064 l 463 1047 q 417 984 442 1021 q 370 910 393 947 q 332 842 347 872 l 189 842 z "},"Ś":{"ha":596,"x_min":47,"x_max":550,"o":"m 550 283 q 515 130 550 197 q 417 24 479 63 q 269 -14 354 -14 q 190 -9 228 -14 q 117 7 153 -4 q 47 36 82 18 l 47 203 q 156 154 99 171 q 261 138 213 138 q 329 155 301 138 q 371 202 357 172 q 385 267 385 232 q 373 333 385 306 q 331 388 361 361 q 244 444 300 414 q 165 497 200 469 q 105 556 129 524 q 67 631 81 588 q 54 733 54 675 q 88 876 54 815 q 181 972 121 938 q 325 1006 242 1007 q 441 990 386 1006 q 544 949 496 975 l 497 803 q 410 843 453 831 q 331 856 368 856 q 269 841 294 856 q 231 801 244 826 q 218 742 218 775 q 230 672 218 700 q 273 621 242 644 q 361 564 304 597 q 467 489 425 529 q 529 399 508 449 q 550 283 550 349 m 525 1289 q 488 1241 511 1268 q 439 1184 465 1214 q 385 1127 413 1154 q 336 1079 358 1100 l 228 1079 l 228 1096 q 274 1169 253 1133 q 314 1238 296 1204 q 346 1301 332 1271 l 525 1301 l 525 1289 z "},"ś":{"ha":501,"x_min":42,"x_max":474,"o":"m 461 214 q 433 90 461 140 q 354 13 406 39 q 231 -14 303 -14 q 129 -3 176 -14 q 43 29 82 8 l 43 182 q 124 140 76 157 q 218 122 171 122 q 284 144 261 122 q 307 206 307 165 q 297 248 307 229 q 263 286 288 267 q 193 331 239 306 q 112 389 146 357 q 60 463 78 421 q 42 561 42 506 q 102 712 42 656 q 265 768 163 768 q 365 754 318 768 q 456 713 411 740 l 408 592 q 343 627 378 614 q 272 640 308 640 q 213 621 233 640 q 192 567 192 601 q 201 526 192 543 q 235 490 210 508 q 306 444 260 472 q 386 385 351 417 q 441 313 421 354 q 461 214 461 272 m 474 1051 q 437 1003 460 1031 q 388 947 414 976 q 334 890 361 917 q 285 842 307 863 l 176 842 l 176 858 q 223 931 201 896 q 263 1000 244 967 q 294 1064 281 1033 l 474 1064 l 474 1051 z "},"Ŝ":{"ha":596,"x_min":47,"x_max":550,"o":"m 550 283 q 515 130 550 197 q 417 24 479 63 q 269 -14 354 -14 q 190 -9 228 -14 q 117 7 153 -4 q 47 36 82 18 l 47 203 q 156 154 99 171 q 261 138 213 138 q 329 155 301 138 q 371 202 357 172 q 385 267 385 232 q 373 333 385 306 q 331 388 361 361 q 244 444 300 414 q 165 497 200 469 q 105 556 129 524 q 67 631 81 588 q 54 733 54 675 q 88 876 54 815 q 181 972 121 938 q 325 1006 242 1007 q 441 990 386 1006 q 544 949 496 975 l 497 803 q 410 843 453 831 q 331 856 368 856 q 269 841 294 856 q 231 801 244 826 q 218 742 218 775 q 230 672 218 700 q 273 621 242 644 q 361 564 304 597 q 467 489 425 529 q 529 399 508 449 q 550 283 550 349 m 386 1301 q 422 1235 401 1271 q 467 1165 443 1200 q 517 1096 492 1129 l 517 1079 l 425 1079 q 372 1133 400 1103 q 314 1199 344 1164 q 255 1132 283 1164 q 204 1079 226 1100 l 113 1079 l 113 1096 q 160 1163 136 1126 q 207 1237 185 1200 q 243 1301 229 1274 l 386 1301 z "},"ŝ":{"ha":501,"x_min":42,"x_max":464,"o":"m 461 214 q 433 90 461 140 q 354 13 406 39 q 231 -14 303 -14 q 129 -3 176 -14 q 43 29 82 8 l 43 182 q 124 140 76 157 q 218 122 171 122 q 284 144 261 122 q 307 206 307 165 q 297 248 307 229 q 263 286 288 267 q 193 331 239 306 q 112 389 146 357 q 60 463 78 421 q 42 561 42 506 q 102 712 42 656 q 265 768 163 768 q 365 754 318 768 q 456 713 411 740 l 408 592 q 343 627 378 614 q 272 640 308 640 q 213 621 233 640 q 192 567 192 601 q 201 526 192 543 q 235 490 210 508 q 306 444 260 472 q 386 385 351 417 q 441 313 421 354 q 461 214 461 272 m 333 1064 q 369 998 349 1033 q 415 927 390 963 q 464 858 439 892 l 464 842 l 372 842 q 319 896 347 865 q 261 961 292 926 q 202 894 231 926 q 151 842 174 863 l 60 842 l 60 858 q 108 926 83 889 q 154 999 132 963 q 190 1064 176 1036 l 333 1064 z "},"Ş":{"ha":596,"x_min":47,"x_max":550,"o":"m 550 283 q 515 130 550 197 q 417 24 479 63 q 269 -14 354 -14 q 190 -9 228 -14 q 117 7 153 -4 q 47 36 82 18 l 47 203 q 156 154 99 171 q 261 138 213 138 q 329 155 301 138 q 371 202 357 172 q 385 267 385 232 q 373 333 385 306 q 331 388 361 361 q 244 444 300 414 q 165 497 200 469 q 105 556 129 524 q 67 631 81 588 q 54 733 54 675 q 88 876 54 815 q 181 972 121 938 q 325 1006 242 1007 q 441 990 386 1006 q 544 949 496 975 l 497 803 q 410 843 453 831 q 331 856 368 856 q 269 841 294 856 q 231 801 244 826 q 218 742 218 775 q 230 672 218 700 q 273 621 242 644 q 361 564 304 597 q 467 489 425 529 q 529 399 508 449 q 550 283 550 349 m 413 -185 q 368 -294 413 -256 q 243 -333 324 -333 q 191 -331 214 -333 q 150 -324 168 -328 l 150 -229 q 183 -237 167 -235 q 215 -239 200 -239 q 270 -224 251 -239 q 289 -182 289 -208 q 263 -134 289 -151 q 189 -112 236 -117 l 236 0 l 318 0 l 292 -61 q 357 -85 331 -68 q 398 -126 383 -101 q 413 -185 413 -151 z "},"ş":{"ha":501,"x_min":42,"x_max":461,"o":"m 461 214 q 433 90 461 140 q 354 13 406 39 q 231 -14 303 -14 q 129 -3 176 -14 q 43 29 82 8 l 43 182 q 124 140 76 157 q 218 122 171 122 q 284 144 261 122 q 307 206 307 165 q 297 248 307 229 q 263 286 288 267 q 193 331 239 306 q 112 389 146 357 q 60 463 78 421 q 42 561 42 506 q 102 712 42 656 q 265 768 163 768 q 365 754 318 768 q 456 713 411 740 l 408 592 q 343 627 378 614 q 272 640 308 640 q 213 621 233 640 q 192 567 192 601 q 201 526 192 543 q 235 490 210 508 q 306 444 260 472 q 386 385 351 417 q 441 313 421 354 q 461 214 461 272 m 365 -185 q 321 -294 365 -256 q 196 -333 276 -333 q 144 -331 167 -333 q 103 -324 121 -328 l 103 -229 q 136 -237 119 -235 q 168 -239 153 -239 q 223 -224 204 -239 q 242 -182 242 -208 q 215 -134 242 -151 q 142 -112 189 -117 l 189 0 l 271 0 l 244 -61 q 310 -85 283 -68 q 351 -126 336 -101 q 365 -185 365 -151 z "},"Š":{"ha":596,"x_min":47,"x_max":550,"o":"m 550 283 q 515 130 550 197 q 417 24 479 63 q 269 -14 354 -14 q 190 -9 228 -14 q 117 7 153 -4 q 47 36 82 18 l 47 203 q 156 154 99 171 q 261 138 213 138 q 329 155 301 138 q 371 202 357 172 q 385 267 385 232 q 373 333 385 306 q 331 388 361 361 q 244 444 300 414 q 165 497 200 469 q 105 556 129 524 q 67 631 81 588 q 54 733 54 675 q 88 876 54 815 q 181 972 121 938 q 325 1006 242 1007 q 441 990 386 1006 q 544 949 496 975 l 497 803 q 410 843 453 831 q 331 856 368 856 q 269 841 294 856 q 231 801 244 826 q 218 742 218 775 q 230 672 218 700 q 273 621 242 644 q 361 564 304 597 q 467 489 425 529 q 529 399 508 449 q 550 283 550 349 m 243 1079 q 207 1145 229 1108 q 160 1219 185 1182 q 113 1285 135 1257 l 113 1301 l 204 1301 q 258 1248 229 1279 q 314 1182 286 1217 q 372 1247 347 1221 q 425 1301 396 1274 l 517 1301 l 517 1285 q 472 1222 496 1258 q 424 1147 447 1185 q 386 1079 401 1110 l 243 1079 z "},"š":{"ha":501,"x_min":42,"x_max":464,"o":"m 461 214 q 433 90 461 140 q 354 13 406 39 q 231 -14 303 -14 q 129 -3 176 -14 q 43 29 82 8 l 43 182 q 124 140 76 157 q 218 122 171 122 q 284 144 261 122 q 307 206 307 165 q 297 248 307 229 q 263 286 288 267 q 193 331 239 306 q 112 389 146 357 q 60 463 78 421 q 42 561 42 506 q 102 712 42 656 q 265 768 163 768 q 365 754 318 768 q 456 713 411 740 l 408 592 q 343 627 378 614 q 272 640 308 640 q 213 621 233 640 q 192 567 192 601 q 201 526 192 543 q 235 490 210 508 q 306 444 260 472 q 386 385 351 417 q 441 313 421 354 q 461 214 461 272 m 190 842 q 154 908 176 871 q 107 982 132 944 q 60 1047 82 1019 l 60 1064 l 151 1064 q 205 1010 176 1042 q 261 944 233 979 q 319 1010 294 983 q 372 1064 343 1036 l 464 1064 l 464 1047 q 419 984 443 1021 q 372 910 394 947 q 333 842 349 872 l 190 842 z "},"Ț":{"ha":571,"x_min":17,"x_max":551,"o":"m 365 0 l 204 0 l 204 849 l 17 849 l 17 992 l 551 992 l 551 849 l 365 849 l 365 0 m 382 -100 q 357 -171 372 -133 q 324 -243 342 -208 q 288 -307 307 -278 l 192 -307 l 192 -290 q 206 -228 199 -265 q 220 -151 214 -190 q 228 -85 226 -112 l 382 -85 l 382 -100 z "},"ț":{"ha":410,"x_min":18,"x_max":388,"o":"m 310 122 q 348 127 328 122 q 388 140 368 132 l 388 17 q 329 -6 361 1 q 260 -14 297 -14 q 164 11 201 -14 q 109 85 126 36 q 92 211 92 135 l 92 625 l 18 625 l 18 710 l 101 750 l 140 917 l 246 917 l 246 754 l 378 754 l 378 625 l 246 625 l 246 221 q 260 147 246 172 q 310 122 274 122 m 343 -100 q 318 -171 333 -133 q 285 -243 303 -208 q 249 -307 268 -278 l 153 -307 l 153 -290 q 167 -228 160 -265 q 181 -151 175 -190 q 189 -85 188 -112 l 343 -85 l 343 -100 z "},"Ť":{"ha":571,"x_min":17,"x_max":551,"o":"m 365 0 l 204 0 l 204 849 l 17 849 l 17 992 l 551 992 l 551 849 l 365 849 l 365 0 m 215 1079 q 179 1145 201 1108 q 132 1219 157 1182 q 85 1285 107 1257 l 85 1301 l 176 1301 q 230 1248 201 1279 q 286 1182 258 1217 q 344 1247 319 1221 q 397 1301 368 1274 l 489 1301 l 489 1285 q 444 1222 468 1258 q 397 1147 419 1185 q 358 1079 374 1110 l 215 1079 z "},"ť":{"ha":410,"x_min":18,"x_max":579,"o":"m 579 1040 q 558 971 572 1010 q 526 896 543 932 q 492 833 508 860 l 396 833 l 396 850 q 403 890 399 864 q 412 948 407 917 q 420 1008 417 979 q 425 1056 424 1038 l 579 1056 l 579 1040 m 310 122 q 348 127 328 122 q 388 140 368 132 l 388 17 q 329 -6 361 1 q 260 -14 297 -14 q 164 11 201 -14 q 109 85 126 36 q 92 211 92 135 l 92 625 l 18 625 l 18 710 l 101 750 l 140 917 l 246 917 l 246 754 l 378 754 l 378 625 l 246 625 l 246 221 q 260 147 246 172 q 310 122 274 122 z "},"Ŧ":{"ha":571,"x_min":17,"x_max":551,"o":"m 204 0 l 204 429 l 75 429 l 75 554 l 204 554 l 204 847 l 17 847 l 17 992 l 551 992 l 551 847 l 365 847 l 365 554 l 496 554 l 496 429 l 365 429 l 365 0 l 204 0 z "},"ŧ":{"ha":410,"x_min":18,"x_max":388,"o":"m 22 351 l 22 464 l 369 464 l 369 351 l 22 351 m 310 122 q 348 127 328 122 q 388 140 368 132 l 388 17 q 329 -6 361 1 q 260 -14 297 -14 q 164 11 201 -14 q 109 85 126 36 q 92 211 92 135 l 92 625 l 18 625 l 18 710 l 101 750 l 140 917 l 246 917 l 246 754 l 378 754 l 378 625 l 246 625 l 246 221 q 260 147 246 172 q 310 122 274 122 z "},"Ũ":{"ha":760,"x_min":88,"x_max":672,"o":"m 672 321 q 639 133 672 207 q 541 22 606 58 q 379 -14 476 -14 q 163 68 238 -14 q 88 318 88 150 l 88 992 l 250 992 l 250 321 q 283 175 250 219 q 381 131 317 131 q 453 150 424 131 q 497 212 482 169 q 511 322 511 254 l 511 992 l 672 992 l 672 321 m 161 1078 q 169 1144 163 1110 q 188 1206 175 1178 q 224 1253 201 1235 q 279 1271 246 1271 q 331 1260 307 1271 q 378 1233 356 1249 q 423 1208 401 1218 q 465 1197 444 1197 q 496 1217 486 1197 q 511 1272 506 1236 l 599 1272 q 563 1128 596 1178 q 481 1079 529 1079 q 429 1090 456 1079 q 378 1117 403 1101 q 333 1143 354 1132 q 296 1154 313 1154 q 267 1135 281 1154 q 249 1078 254 1115 l 161 1078 z "},"ũ":{"ha":672,"x_min":81,"x_max":590,"o":"m 590 754 l 590 0 l 468 0 l 450 99 l 440 99 q 400 37 425 63 q 344 -1 375 11 q 275 -14 313 -14 q 165 19 208 -14 q 101 115 122 53 q 81 263 81 178 l 81 754 l 236 754 l 236 304 q 255 169 236 214 q 315 125 274 125 q 388 152 363 125 q 424 233 414 179 q 435 364 435 286 l 435 754 l 590 754 m 119 840 q 127 906 121 872 q 147 969 133 940 q 182 1015 160 997 q 238 1033 204 1033 q 290 1022 265 1033 q 337 996 314 1011 q 381 970 360 981 q 424 960 403 960 q 454 979 444 960 q 469 1035 464 999 l 557 1035 q 521 891 554 940 q 439 842 488 842 q 388 853 414 842 q 337 879 361 864 q 292 906 313 894 q 254 917 271 917 q 226 897 239 917 q 207 840 213 878 l 119 840 z "},"Ū":{"ha":760,"x_min":88,"x_max":672,"o":"m 672 321 q 639 133 672 207 q 541 22 606 58 q 379 -14 476 -14 q 163 68 238 -14 q 88 318 88 150 l 88 992 l 250 992 l 250 321 q 283 175 250 219 q 381 131 317 131 q 453 150 424 131 q 497 212 482 169 q 511 322 511 254 l 511 992 l 672 992 l 672 321 m 563 1208 l 563 1093 l 196 1093 l 196 1208 l 563 1208 z "},"ū":{"ha":672,"x_min":81,"x_max":590,"o":"m 590 754 l 590 0 l 468 0 l 450 99 l 440 99 q 400 37 425 63 q 344 -1 375 11 q 275 -14 313 -14 q 165 19 208 -14 q 101 115 122 53 q 81 263 81 178 l 81 754 l 236 754 l 236 304 q 255 169 236 214 q 315 125 274 125 q 388 152 363 125 q 424 233 414 179 q 435 364 435 286 l 435 754 l 590 754 m 521 971 l 521 856 l 154 856 l 154 971 l 521 971 z "},"Ŭ":{"ha":760,"x_min":88,"x_max":672,"o":"m 672 321 q 639 133 672 207 q 541 22 606 58 q 379 -14 476 -14 q 163 68 238 -14 q 88 318 88 150 l 88 992 l 250 992 l 250 321 q 283 175 250 219 q 381 131 317 131 q 453 150 424 131 q 497 212 482 169 q 511 322 511 254 l 511 992 l 672 992 l 672 321 m 568 1290 q 543 1178 568 1226 q 475 1106 518 1131 q 376 1081 432 1081 q 242 1133 293 1081 q 190 1290 192 1186 l 286 1290 q 300 1235 289 1257 q 331 1203 311 1214 q 379 1193 351 1193 q 427 1203 407 1193 q 459 1235 447 1213 q 474 1290 471 1257 l 568 1290 z "},"ŭ":{"ha":672,"x_min":81,"x_max":590,"o":"m 590 754 l 590 0 l 468 0 l 450 99 l 440 99 q 400 37 425 63 q 344 -1 375 11 q 275 -14 313 -14 q 165 19 208 -14 q 101 115 122 53 q 81 263 81 178 l 81 754 l 236 754 l 236 304 q 255 169 236 214 q 315 125 274 125 q 388 152 363 125 q 424 233 414 179 q 435 364 435 286 l 435 754 l 590 754 m 525 1053 q 500 941 525 989 q 432 868 475 893 q 333 843 389 843 q 199 896 250 843 q 147 1053 149 949 l 243 1053 q 257 998 246 1019 q 288 966 268 976 q 336 956 308 956 q 384 965 364 956 q 416 997 404 975 q 431 1053 428 1019 l 525 1053 z "},"Ů":{"ha":760,"x_min":88,"x_max":672,"o":"m 672 321 q 639 133 672 207 q 541 22 606 58 q 379 -14 476 -14 q 163 68 238 -14 q 88 318 88 150 l 88 992 l 250 992 l 250 321 q 283 175 250 219 q 381 131 317 131 q 453 150 424 131 q 497 212 482 169 q 511 322 511 254 l 511 992 l 672 992 l 672 321 m 381 1081 q 267 1123 310 1081 q 225 1232 225 1165 q 267 1342 225 1300 q 381 1385 310 1385 q 493 1342 450 1385 q 536 1233 536 1300 q 494 1124 536 1167 q 381 1081 451 1081 m 382 1167 q 430 1185 411 1167 q 449 1233 449 1203 q 431 1281 449 1263 q 382 1299 413 1299 q 333 1280 353 1299 q 314 1232 314 1261 q 331 1185 314 1203 q 382 1167 349 1167 z "},"ů":{"ha":672,"x_min":81,"x_max":590,"o":"m 590 754 l 590 0 l 468 0 l 450 99 l 440 99 q 400 37 425 63 q 344 -1 375 11 q 275 -14 313 -14 q 165 19 208 -14 q 101 115 122 53 q 81 263 81 178 l 81 754 l 236 754 l 236 304 q 255 169 236 214 q 315 125 274 125 q 388 152 363 125 q 424 233 414 179 q 435 364 435 286 l 435 754 l 590 754 m 338 843 q 224 885 267 843 q 182 994 182 928 q 224 1105 182 1063 q 338 1147 267 1147 q 450 1105 407 1147 q 493 996 493 1063 q 451 886 493 929 q 338 843 408 843 m 339 929 q 387 947 368 929 q 406 996 406 965 q 388 1043 406 1025 q 339 1061 369 1061 q 290 1042 310 1061 q 271 994 271 1024 q 288 947 271 965 q 339 929 306 929 z "},"Ű":{"ha":760,"x_min":88,"x_max":672,"o":"m 672 321 q 639 133 672 207 q 541 22 606 58 q 379 -14 476 -14 q 163 68 238 -14 q 88 318 88 150 l 88 992 l 250 992 l 250 321 q 283 175 250 219 q 381 131 317 131 q 453 150 424 131 q 497 212 482 169 q 511 322 511 254 l 511 992 l 672 992 l 672 321 m 614 1289 q 584 1240 604 1268 q 538 1181 564 1211 q 487 1125 513 1151 q 440 1079 461 1099 l 360 1079 l 360 1096 q 404 1174 383 1135 q 442 1248 425 1214 q 465 1301 458 1282 l 614 1301 l 614 1289 m 397 1289 q 367 1239 386 1267 q 323 1183 347 1211 q 272 1128 299 1156 q 217 1079 244 1101 l 143 1079 l 143 1096 q 186 1176 165 1136 q 224 1249 207 1215 q 249 1301 240 1282 l 397 1301 l 397 1289 z "},"ű":{"ha":672,"x_min":81,"x_max":590,"o":"m 590 754 l 590 0 l 468 0 l 450 99 l 440 99 q 400 37 425 63 q 344 -1 375 11 q 275 -14 313 -14 q 165 19 208 -14 q 101 115 122 53 q 81 263 81 178 l 81 754 l 236 754 l 236 304 q 255 169 236 214 q 315 125 274 125 q 388 152 363 125 q 424 233 414 179 q 435 364 435 286 l 435 754 l 590 754 m 572 1051 q 542 1002 563 1031 q 497 944 522 974 q 445 888 471 914 q 399 842 419 861 l 318 842 l 318 858 q 363 937 342 897 q 400 1010 383 976 q 424 1064 417 1044 l 572 1064 l 572 1051 m 356 1051 q 325 1001 344 1029 q 281 946 306 974 q 230 891 257 918 q 175 842 203 864 l 101 842 l 101 858 q 144 938 124 899 q 182 1011 165 978 q 207 1064 199 1044 l 356 1064 l 356 1051 z "},"Ų":{"ha":760,"x_min":88,"x_max":672,"o":"m 454 -153 q 469 -197 454 -182 q 510 -211 485 -211 q 540 -208 524 -211 q 565 -200 556 -204 l 565 -306 q 522 -316 546 -312 q 475 -319 497 -319 q 366 -283 401 -319 q 331 -179 331 -246 q 344 -115 331 -146 q 380 -55 357 -83 q 435 0 403 -26 l 586 58 q 506 -31 535 7 q 466 -97 478 -68 q 454 -153 454 -126 m 672 321 q 639 133 672 207 q 541 22 606 58 q 379 -14 476 -14 q 163 68 238 -14 q 88 318 88 150 l 88 992 l 250 992 l 250 321 q 283 175 250 219 q 381 131 317 131 q 453 150 424 131 q 497 212 482 169 q 511 322 511 254 l 511 992 l 672 992 l 672 321 z "},"ų":{"ha":672,"x_min":81,"x_max":597,"o":"m 590 754 l 590 0 l 468 0 l 450 99 l 440 99 q 400 37 425 63 q 344 -1 375 11 q 275 -14 313 -14 q 165 19 208 -14 q 101 115 122 53 q 81 263 81 178 l 81 754 l 236 754 l 236 304 q 255 169 236 214 q 315 125 274 125 q 388 152 363 125 q 424 233 414 179 q 435 364 435 286 l 435 754 l 590 754 m 489 -150 q 505 -197 489 -179 q 549 -214 521 -214 q 577 -210 567 -214 q 596 -203 588 -207 l 596 -304 q 563 -315 583 -311 q 517 -319 543 -319 q 404 -283 442 -319 q 367 -181 367 -247 q 379 -113 367 -147 q 418 -44 392 -79 q 483 19 444 -10 l 567 0 q 506 -81 522 -47 q 489 -150 489 -114 z "},"Ŵ":{"ha":1047,"x_min":3,"x_max":1044,"o":"m 1044 992 l 846 0 l 658 0 l 553 532 q 546 577 550 553 q 538 629 542 601 q 531 690 535 657 q 524 757 526 722 q 517 704 521 732 q 510 647 514 676 q 503 588 507 617 q 493 533 499 560 l 389 0 l 203 0 l 3 992 l 164 992 l 265 450 q 276 383 271 418 q 287 315 282 349 q 296 248 292 281 q 303 189 300 215 q 313 256 307 221 q 324 325 318 290 q 334 390 329 360 q 344 447 339 421 l 454 992 l 594 992 l 699 449 q 710 391 704 422 q 720 326 715 360 q 730 258 725 292 q 739 189 735 224 q 750 276 744 232 q 763 366 756 321 q 778 450 771 411 l 881 992 l 1044 992 m 594 1301 q 631 1235 610 1271 q 676 1165 651 1200 q 725 1096 700 1129 l 725 1079 l 633 1079 q 581 1133 608 1103 q 522 1199 553 1164 q 463 1132 492 1164 q 413 1079 435 1100 l 321 1079 l 321 1096 q 369 1163 344 1126 q 415 1237 393 1200 q 451 1301 438 1274 l 594 1301 z "},"ŵ":{"ha":910,"x_min":10,"x_max":899,"o":"m 482 408 q 474 454 478 431 q 467 502 471 478 q 461 549 464 526 q 456 593 458 572 l 453 593 q 445 547 449 571 q 439 498 442 522 q 433 451 436 474 q 425 408 429 429 l 346 0 l 169 0 l 10 754 l 165 754 l 226 432 q 240 353 233 394 q 252 269 247 311 q 261 183 257 226 l 265 183 q 272 238 268 210 q 280 295 276 265 q 289 357 283 325 q 301 424 294 389 l 367 754 l 543 754 l 607 421 q 619 347 614 386 q 631 267 625 308 q 642 183 638 226 l 647 183 q 653 244 650 211 q 662 312 657 276 q 672 383 667 347 l 747 754 l 899 754 l 736 0 l 557 0 l 482 408 m 526 1064 q 563 998 542 1033 q 608 927 583 963 q 657 858 632 892 l 657 842 l 565 842 q 513 896 540 865 q 454 961 485 926 q 395 894 424 926 q 344 842 367 863 l 253 842 l 253 858 q 301 926 276 889 q 347 999 325 963 q 383 1064 369 1036 l 526 1064 z "},"Ŷ":{"ha":615,"x_min":0,"x_max":615,"o":"m 310 565 l 447 992 l 615 992 l 389 383 l 389 0 l 226 0 l 226 379 l 0 992 l 169 992 l 310 565 m 379 1301 q 415 1235 394 1271 q 460 1165 436 1200 q 510 1096 485 1129 l 510 1079 l 418 1079 q 365 1133 393 1103 q 307 1199 338 1164 q 248 1132 276 1164 q 197 1079 219 1100 l 106 1079 l 106 1096 q 153 1163 129 1126 q 200 1237 178 1200 q 236 1301 222 1274 l 379 1301 z "},"ŷ":{"ha":578,"x_min":4,"x_max":574,"o":"m 4 754 l 167 754 l 260 367 q 272 315 267 340 q 281 263 276 289 q 289 213 286 236 l 294 213 q 306 282 297 244 q 324 365 314 319 l 413 754 l 574 754 l 350 -89 q 295 -229 326 -175 q 221 -308 264 -283 q 119 -333 178 -333 q 79 -331 99 -333 q 39 -322 60 -328 l 39 -185 q 67 -192 53 -189 q 93 -194 81 -194 q 139 -183 121 -194 q 171 -141 157 -171 q 199 -57 185 -111 l 215 7 l 4 754 m 361 1064 q 397 998 376 1033 q 442 927 418 963 q 492 858 467 892 l 492 842 l 400 842 q 347 896 375 865 q 289 961 319 926 q 230 894 258 926 q 179 842 201 863 l 88 842 l 88 858 q 135 926 111 889 q 182 999 160 963 q 218 1064 204 1036 l 361 1064 z "},"Ÿ":{"ha":615,"x_min":0,"x_max":615,"o":"m 310 565 l 447 992 l 615 992 l 389 383 l 389 0 l 226 0 l 226 379 l 0 992 l 169 992 l 310 565 m 110 1176 q 131 1240 110 1219 q 185 1261 151 1261 q 239 1240 218 1261 q 260 1176 260 1218 q 239 1114 260 1136 q 185 1092 218 1092 q 131 1114 151 1092 q 110 1176 110 1136 m 353 1176 q 374 1240 353 1219 q 428 1261 394 1261 q 482 1240 461 1261 q 503 1176 503 1218 q 482 1114 503 1136 q 426 1092 461 1092 q 373 1114 393 1092 q 353 1176 353 1136 z "},"Ź":{"ha":560,"x_min":33,"x_max":531,"o":"m 531 0 l 33 0 l 33 119 l 347 850 l 39 850 l 39 992 l 522 992 l 522 872 l 207 143 l 531 143 l 531 0 m 493 1289 q 456 1241 479 1268 q 407 1184 433 1214 q 353 1127 381 1154 q 304 1079 326 1100 l 196 1079 l 196 1096 q 242 1169 221 1133 q 282 1238 264 1204 q 314 1301 300 1271 l 493 1301 l 493 1289 z "},"ź":{"ha":471,"x_min":31,"x_max":456,"o":"m 443 0 l 31 0 l 31 99 l 261 624 l 44 624 l 44 754 l 433 754 l 433 647 l 208 131 l 443 131 l 443 0 m 456 1051 q 419 1003 442 1031 q 369 947 396 976 q 316 890 343 917 q 267 842 289 863 l 158 842 l 158 858 q 205 931 183 896 q 244 1000 226 967 q 276 1064 263 1033 l 456 1064 l 456 1051 z "},"Ż":{"ha":560,"x_min":33,"x_max":531,"o":"m 531 0 l 33 0 l 33 119 l 347 850 l 39 850 l 39 992 l 522 992 l 522 872 l 207 143 l 531 143 l 531 0 m 290 1283 q 356 1259 335 1283 q 376 1189 376 1235 q 355 1119 376 1143 q 290 1096 333 1096 q 227 1119 250 1096 q 204 1189 204 1143 q 226 1260 204 1236 q 290 1283 247 1283 z "},"ż":{"ha":471,"x_min":31,"x_max":443,"o":"m 443 0 l 31 0 l 31 99 l 261 624 l 44 624 l 44 754 l 433 754 l 433 647 l 208 131 l 443 131 l 443 0 m 253 1046 q 318 1022 297 1046 q 339 951 339 997 q 317 882 339 906 q 253 858 296 858 q 190 882 213 858 q 167 951 167 906 q 188 1022 167 999 q 253 1046 210 1046 z "},"Ž":{"ha":560,"x_min":33,"x_max":531,"o":"m 531 0 l 33 0 l 33 119 l 347 850 l 39 850 l 39 992 l 522 992 l 522 872 l 207 143 l 531 143 l 531 0 m 210 1079 q 174 1145 196 1108 q 126 1219 151 1182 q 79 1285 101 1257 l 79 1301 l 171 1301 q 224 1248 196 1279 q 281 1182 253 1217 q 338 1247 314 1221 q 392 1301 363 1274 l 483 1301 l 483 1285 q 438 1222 463 1258 q 391 1147 414 1185 q 353 1079 368 1110 l 210 1079 z "},"ž":{"ha":471,"x_min":31,"x_max":446,"o":"m 443 0 l 31 0 l 31 99 l 261 624 l 44 624 l 44 754 l 433 754 l 433 647 l 208 131 l 443 131 l 443 0 m 172 842 q 136 908 158 871 q 89 982 114 944 q 42 1047 64 1019 l 42 1064 l 133 1064 q 187 1010 158 1042 q 243 944 215 979 q 301 1010 276 983 q 354 1064 325 1036 l 446 1064 l 446 1047 q 401 984 425 1021 q 353 910 376 947 q 315 842 331 872 l 172 842 z "},"ſ":{"ha":363,"x_min":94,"x_max":415,"o":"m 311 931 q 264 900 276 931 q 250 796 251 869 l 250 0 l 94 0 l 94 788 q 113 940 94 879 q 172 1032 131 1001 q 282 1063 214 1063 q 348 1056 318 1063 q 415 1035 378 1050 l 381 917 q 345 927 363 924 q 311 931 328 931 z "},"ƒ":{"ha":533,"x_min":-12,"x_max":564,"o":"m 197 -337 q 42 -283 96 -337 q -12 -136 -12 -229 q -9 -94 -12 -112 q -1 -64 -6 -75 l 125 -93 q 122 -108 124 -100 q 121 -129 121 -117 q 138 -185 121 -167 q 185 -204 156 -204 q 228 -181 213 -204 q 243 -117 243 -157 l 243 625 l 154 625 l 154 708 l 243 756 l 243 788 q 261 940 243 879 q 320 1032 279 1001 q 431 1063 361 1063 q 497 1056 467 1063 q 564 1035 526 1050 l 529 917 q 494 927 511 924 q 458 931 476 931 q 412 901 425 931 q 399 796 399 871 l 399 754 l 519 754 l 519 625 l 399 625 l 399 -108 q 373 -231 399 -179 q 301 -310 347 -282 q 197 -337 256 -337 z "},"Ǻ":{"ha":690,"x_min":0,"x_max":690,"o":"m 233 894 q 200 931 213 908 q 188 983 188 953 q 230 1094 188 1051 q 343 1136 272 1136 q 456 1094 411 1136 q 500 986 500 1051 q 487 931 500 954 q 453 894 474 908 l 690 0 l 517 0 l 463 235 l 229 235 l 176 0 l 0 0 l 233 894 m 256 378 l 433 378 l 371 650 q 360 710 365 679 q 350 769 354 742 q 343 814 346 797 q 340 783 342 800 q 335 747 338 765 q 329 709 332 728 q 324 672 326 690 l 256 378 m 344 918 q 392 937 374 918 q 411 985 411 956 q 393 1033 411 1014 q 344 1051 375 1051 q 296 1033 315 1051 q 276 985 276 1014 q 294 937 276 956 q 344 918 311 918 m 257 1189 q 316 1261 296 1236 q 347 1302 336 1286 q 365 1335 357 1318 l 553 1335 l 553 1325 q 520 1290 542 1310 q 472 1250 499 1271 q 422 1210 446 1229 q 378 1176 397 1190 l 257 1176 l 257 1189 z "},"ǻ":{"ha":619,"x_min":43,"x_max":539,"o":"m 325 768 q 486 701 433 768 q 539 503 539 633 l 539 0 l 424 0 l 400 101 l 396 101 q 349 38 375 64 q 290 -1 324 11 q 215 -14 257 -14 q 117 19 156 -14 q 61 105 79 51 q 43 218 43 158 q 108 395 43 335 q 293 461 172 456 l 383 465 l 383 503 q 363 608 383 574 q 294 643 342 643 q 225 631 263 643 q 144 592 188 618 l 100 708 q 206 753 149 739 q 325 768 263 768 m 328 356 q 231 320 263 353 q 200 224 200 288 q 219 139 200 167 q 276 111 239 111 q 355 158 325 111 q 385 288 385 206 l 385 360 l 328 356 m 318 1038 q 269 1019 289 1038 q 250 971 250 1000 q 267 923 250 942 q 318 904 285 904 q 366 923 347 904 q 385 971 385 942 q 367 1019 385 1000 q 318 1038 349 1038 m 317 1122 q 399 1103 363 1122 q 456 1051 435 1085 q 476 972 476 1018 q 432 863 476 906 q 317 819 388 819 q 203 862 246 819 q 161 971 161 904 q 203 1080 161 1038 q 317 1122 246 1122 m 535 1324 q 483 1267 518 1300 q 414 1203 449 1233 q 358 1156 379 1172 l 238 1156 l 238 1168 q 291 1242 272 1214 q 322 1290 310 1269 q 346 1332 335 1311 l 535 1332 l 535 1324 z "},"Ǽ":{"ha":921,"x_min":-4,"x_max":861,"o":"m 861 0 l 436 0 l 436 265 l 249 265 l 174 0 l -4 0 l 297 992 l 861 992 l 861 850 l 597 850 l 597 586 l 843 586 l 843 446 l 597 446 l 597 143 l 861 143 l 861 0 m 286 410 l 436 410 l 436 849 l 408 849 l 286 410 m 681 1289 q 644 1241 667 1268 q 594 1184 621 1214 q 541 1127 568 1154 q 492 1079 514 1100 l 383 1079 l 383 1096 q 430 1169 408 1133 q 469 1238 451 1204 q 501 1301 488 1271 l 681 1301 l 681 1289 z "},"ǽ":{"ha":940,"x_min":43,"x_max":890,"o":"m 643 767 q 781 724 725 767 q 863 606 836 681 q 890 429 890 531 l 890 336 l 532 336 q 571 168 535 224 q 682 113 607 113 q 771 126 728 113 q 858 167 814 139 l 858 36 q 769 -1 815 11 q 665 -14 722 -14 q 572 2 617 -14 q 493 49 528 18 q 436 125 458 79 q 378 47 410 78 q 310 1 347 15 q 228 -14 272 -14 q 122 19 163 -14 q 63 105 82 51 q 43 218 43 158 q 72 348 43 294 q 158 430 101 401 q 293 461 214 458 l 383 465 l 383 503 q 362 608 383 572 q 294 643 340 643 q 225 631 263 643 q 144 592 188 618 l 100 708 q 197 752 144 736 q 308 768 250 768 q 408 747 368 768 q 471 681 447 725 q 544 745 501 724 q 643 767 586 767 m 328 356 q 231 321 263 353 q 200 224 200 289 q 219 139 200 167 q 276 111 239 111 q 333 132 308 111 q 371 193 357 153 q 385 288 385 233 l 385 360 l 328 356 m 642 643 q 565 597 594 643 q 533 451 536 551 l 746 451 q 734 553 746 510 q 699 619 722 596 q 642 643 676 643 m 690 1051 q 653 1003 676 1031 q 604 947 631 976 q 551 890 578 917 q 501 842 524 863 l 393 842 l 393 858 q 440 931 418 896 q 479 1000 461 967 q 511 1064 497 1033 l 690 1064 l 690 1051 z "},"Ǿ":{"ha":801,"x_min":64,"x_max":739,"o":"m 739 497 q 717 277 739 372 q 652 117 694 182 q 547 19 610 53 q 401 -14 483 -14 q 309 0 351 -14 q 232 39 267 14 l 179 -69 l 93 -29 l 160 106 q 86 278 108 182 q 64 499 64 375 q 102 779 64 667 q 215 949 140 892 q 401 1007 290 1007 q 497 992 453 1007 q 578 947 542 976 l 628 1049 l 714 1007 l 649 876 q 717 717 694 813 q 739 497 739 622 m 574 497 q 554 693 574 613 l 297 176 q 343 139 317 151 q 401 126 369 126 q 497 167 458 126 q 554 291 535 208 q 574 497 574 374 m 229 497 q 235 378 229 432 q 251 285 240 325 l 513 806 q 465 852 492 838 q 403 867 438 867 q 306 825 344 867 q 248 701 267 783 q 229 497 229 619 m 614 1289 q 577 1241 600 1268 q 528 1184 554 1214 q 474 1127 501 1154 q 425 1079 447 1100 l 317 1079 l 317 1096 q 363 1169 342 1133 q 403 1238 385 1204 q 435 1301 421 1271 l 614 1301 l 614 1289 z "},"ǿ":{"ha":656,"x_min":53,"x_max":601,"o":"m 601 379 q 569 167 601 256 q 476 33 538 79 q 325 -14 414 -14 q 260 -5 290 -14 q 203 21 229 4 l 151 -87 l 68 -49 l 133 82 q 72 213 90 139 q 53 379 53 286 q 124 667 53 567 q 328 768 196 768 q 397 758 365 768 q 454 728 428 749 l 500 819 l 582 781 l 526 665 q 583 542 564 614 q 601 379 601 469 m 204 376 q 207 300 204 335 q 218 239 210 265 l 401 608 q 369 634 388 626 q 328 642 350 642 q 233 576 263 642 q 204 376 204 511 m 451 379 q 448 449 451 418 q 440 507 444 481 l 258 140 q 288 119 271 126 q 326 111 306 111 q 399 141 371 111 q 439 231 426 171 q 451 379 451 290 m 542 1051 q 505 1003 528 1031 q 456 947 482 976 q 402 890 429 917 q 353 842 375 863 l 244 842 l 244 858 q 291 931 269 896 q 331 1000 313 967 q 363 1064 349 1033 l 542 1064 l 542 1051 z "},"Ș":{"ha":596,"x_min":47,"x_max":550,"o":"m 550 283 q 515 130 550 197 q 417 24 479 63 q 269 -14 354 -14 q 190 -9 228 -14 q 117 7 153 -4 q 47 36 82 18 l 47 203 q 156 154 99 171 q 261 138 213 138 q 329 155 301 138 q 371 202 357 172 q 385 267 385 232 q 373 333 385 306 q 331 388 361 361 q 244 444 300 414 q 165 497 200 469 q 105 556 129 524 q 67 631 81 588 q 54 733 54 675 q 88 876 54 815 q 181 972 121 938 q 325 1006 242 1007 q 441 990 386 1006 q 544 949 496 975 l 497 803 q 410 843 453 831 q 331 856 368 856 q 269 841 294 856 q 231 801 244 826 q 218 742 218 775 q 230 672 218 700 q 273 621 242 644 q 361 564 304 597 q 467 489 425 529 q 529 399 508 449 q 550 283 550 349 m 376 -100 q 351 -171 367 -133 q 319 -243 336 -208 q 282 -307 301 -278 l 186 -307 l 186 -290 q 201 -228 193 -265 q 215 -151 208 -190 q 222 -85 221 -112 l 376 -85 l 376 -100 z "},"ș":{"ha":501,"x_min":42,"x_max":461,"o":"m 461 214 q 433 90 461 140 q 354 13 406 39 q 231 -14 303 -14 q 129 -3 176 -14 q 43 29 82 8 l 43 182 q 124 140 76 157 q 218 122 171 122 q 284 144 261 122 q 307 206 307 165 q 297 248 307 229 q 263 286 288 267 q 193 331 239 306 q 112 389 146 357 q 60 463 78 421 q 42 561 42 506 q 102 712 42 656 q 265 768 163 768 q 365 754 318 768 q 456 713 411 740 l 408 592 q 343 627 378 614 q 272 640 308 640 q 213 621 233 640 q 192 567 192 601 q 201 526 192 543 q 235 490 210 508 q 306 444 260 472 q 386 385 351 417 q 441 313 421 354 q 461 214 461 272 m 329 -100 q 304 -171 319 -133 q 272 -243 289 -208 q 235 -307 254 -278 l 139 -307 l 139 -290 q 153 -228 146 -265 q 167 -151 161 -190 q 175 -85 174 -112 l 329 -85 l 329 -100 z "},"ˆ":{"ha":515,"x_min":56,"x_max":460,"o":"m 329 1064 q 365 998 344 1033 q 410 927 386 963 q 460 858 435 892 l 460 842 l 368 842 q 315 896 343 865 q 257 961 288 926 q 198 894 226 926 q 147 842 169 863 l 56 842 l 56 858 q 103 926 79 889 q 150 999 128 963 q 186 1064 172 1036 l 329 1064 z "},"ˇ":{"ha":515,"x_min":56,"x_max":460,"o":"m 186 842 q 150 908 172 871 q 103 982 128 944 q 56 1047 78 1019 l 56 1064 l 147 1064 q 201 1010 172 1042 q 257 944 229 979 q 315 1010 290 983 q 368 1064 339 1036 l 460 1064 l 460 1047 q 415 984 439 1021 q 367 910 390 947 q 329 842 344 872 l 186 842 z "},"ˉ":{"ha":478,"x_min":56,"x_max":422,"o":"m 422 971 l 422 856 l 56 856 l 56 971 l 422 971 z "},"˘":{"ha":489,"x_min":56,"x_max":433,"o":"m 433 1053 q 408 941 433 989 q 340 868 383 893 q 242 843 297 843 q 108 896 158 843 q 56 1053 57 949 l 151 1053 q 165 998 154 1019 q 197 966 176 976 q 244 956 217 956 q 292 965 272 956 q 324 997 313 975 q 339 1053 336 1019 l 433 1053 z "},"˙":{"ha":283,"x_min":56,"x_max":228,"o":"m 142 1046 q 207 1022 186 1046 q 228 951 228 997 q 206 882 228 906 q 142 858 185 858 q 78 882 101 858 q 56 951 56 906 q 77 1022 56 999 q 142 1046 99 1046 z "},"˚":{"ha":422,"x_min":56,"x_max":367,"o":"m 211 843 q 98 885 140 843 q 56 994 56 928 q 98 1105 56 1063 q 211 1147 140 1147 q 324 1105 281 1147 q 367 996 367 1063 q 324 886 367 929 q 211 843 282 843 m 213 929 q 260 947 242 929 q 279 996 279 965 q 261 1043 279 1025 q 213 1061 243 1061 q 164 1042 183 1061 q 144 994 144 1024 q 162 947 144 965 q 213 929 179 929 z "},"˛":{"ha":340,"x_min":56,"x_max":285,"o":"m 178 -150 q 194 -197 178 -179 q 238 -214 210 -214 q 266 -210 256 -214 q 285 -203 276 -207 l 285 -304 q 252 -315 272 -311 q 206 -319 232 -319 q 93 -283 131 -319 q 56 -181 56 -247 q 68 -113 56 -147 q 107 -44 81 -79 q 172 19 133 -10 l 256 0 q 194 -81 211 -47 q 178 -150 178 -114 z "},"˜":{"ha":549,"x_min":56,"x_max":493,"o":"m 56 840 q 63 906 57 872 q 83 969 69 940 q 118 1015 96 997 q 174 1033 140 1033 q 226 1022 201 1033 q 273 996 250 1011 q 317 970 296 981 q 360 960 339 960 q 390 979 381 960 q 406 1035 400 999 l 493 1035 q 457 891 490 940 q 375 842 424 842 q 324 853 350 842 q 273 879 297 864 q 228 906 249 894 q 190 917 207 917 q 162 897 175 917 q 143 840 149 878 l 56 840 z "},"˝":{"ha":582,"x_min":56,"x_max":526,"o":"m 526 1051 q 497 1002 517 1031 q 451 944 476 974 q 399 888 425 914 q 353 842 374 861 l 272 842 l 272 858 q 317 937 296 897 q 354 1010 338 976 q 378 1064 371 1044 l 526 1064 l 526 1051 m 310 1051 q 279 1001 299 1029 q 235 946 260 974 q 184 891 211 918 q 129 842 157 864 l 56 842 l 56 858 q 99 938 78 899 q 136 1011 119 978 q 161 1064 153 1044 l 310 1064 l 310 1051 z "},"΄":{"ha":357,"x_min":56,"x_max":301,"o":"m 56 842 l 56 858 l 122 1078 l 301 1078 l 301 1065 l 164 842 l 56 842 z "},"΅":{"ha":857,"x_min":150,"x_max":706,"o":"m 331 842 l 331 858 l 383 1078 l 563 1078 l 563 1065 l 438 842 l 331 842 m 225 854 q 171 876 192 854 q 150 939 150 899 q 171 1003 150 982 q 225 1024 192 1024 q 279 1002 258 1024 q 300 939 300 981 q 279 876 300 899 q 225 854 258 854 m 631 854 q 576 876 597 854 q 556 939 556 899 q 576 1003 556 982 q 631 1024 597 1024 q 685 1002 664 1024 q 706 939 706 981 q 685 876 706 899 q 631 854 664 854 z "},"Ά":{"ha":813,"x_min":14,"x_max":813,"o":"m 640 0 l 581 265 l 356 265 l 297 0 l 122 0 l 363 992 l 568 992 l 813 0 l 640 0 m 493 696 q 483 755 488 726 q 474 810 478 783 q 467 860 471 836 q 461 811 465 838 q 452 756 457 785 q 440 697 447 726 l 381 410 l 554 410 l 493 696 m 14 756 l 14 772 l 81 992 l 260 992 l 260 979 l 122 756 l 14 756 z "},"·":{"ha":339,"x_min":75,"x_max":265,"o":"m 75 657 q 99 735 75 708 q 171 761 124 761 q 240 735 215 761 q 265 657 265 710 q 240 579 265 606 q 171 553 214 553 q 101 579 126 553 q 75 657 75 606 z "},"Έ":{"ha":840,"x_min":14,"x_max":781,"o":"m 779 0 l 353 0 l 353 992 l 779 992 l 779 851 l 515 851 l 515 586 l 763 586 l 763 446 l 515 446 l 515 143 l 779 143 l 779 0 m 14 756 l 14 772 l 81 992 l 260 992 l 260 979 l 122 756 l 14 756 z "},"Ή":{"ha":1040,"x_min":14,"x_max":947,"o":"m 947 0 l 785 0 l 785 446 l 515 446 l 515 0 l 353 0 l 353 992 l 515 992 l 515 588 l 785 588 l 785 992 l 947 992 l 947 0 m 14 756 l 14 772 l 81 992 l 260 992 l 260 979 l 122 756 l 14 756 z "},"Ί":{"ha":718,"x_min":14,"x_max":675,"o":"m 675 0 l 331 0 l 331 89 l 422 122 l 422 869 l 331 903 l 331 992 l 675 992 l 675 903 l 585 869 l 585 122 l 675 89 l 675 0 m 14 756 l 14 772 l 81 992 l 260 992 l 260 979 l 122 756 l 14 756 z "},"Ό":{"ha":992,"x_min":14,"x_max":929,"o":"m 929 497 q 909 290 929 383 q 847 128 889 196 q 742 23 806 60 q 592 -14 679 -14 q 440 24 504 -14 q 335 129 376 61 q 274 291 293 197 q 254 499 254 385 q 292 779 254 667 q 406 949 331 892 q 592 1007 481 1007 q 783 942 708 1007 q 893 764 857 878 q 929 497 929 650 m 422 497 q 442 295 422 376 q 499 172 461 214 q 592 131 536 131 q 684 171 647 131 q 740 292 721 211 q 760 497 760 374 q 718 773 760 682 q 592 864 676 864 q 498 822 536 864 q 441 699 460 781 q 422 497 422 618 m 14 756 l 14 772 l 81 992 l 260 992 l 260 979 l 122 756 l 14 756 z "},"Ύ":{"ha":944,"x_min":14,"x_max":944,"o":"m 639 565 l 776 992 l 944 992 l 718 383 l 718 0 l 556 0 l 556 379 l 329 992 l 499 992 l 639 565 m 14 756 l 14 772 l 81 992 l 260 992 l 260 979 l 122 756 l 14 756 z "},"Ώ":{"ha":932,"x_min":14,"x_max":910,"o":"m 226 0 l 226 143 l 382 143 q 295 245 329 183 q 246 384 261 307 q 231 547 231 461 q 270 796 231 693 q 385 953 310 899 q 569 1007 461 1007 q 750 952 675 1007 q 865 794 825 897 q 904 549 904 692 q 889 383 904 460 q 840 244 874 306 q 750 143 807 183 l 910 143 l 910 0 l 615 0 l 615 146 q 688 247 661 190 q 728 378 715 304 q 742 546 742 453 q 723 719 742 649 q 666 827 704 790 q 569 864 628 864 q 474 828 513 864 q 415 722 435 793 q 394 544 394 651 q 405 378 394 453 q 442 247 415 304 q 518 146 469 189 l 518 0 l 226 0 m 14 756 l 14 772 l 81 992 l 260 992 l 260 979 l 122 756 l 14 756 z "},"ΐ":{"ha":374,"x_min":-68,"x_max":488,"o":"m 265 -14 q 166 13 207 -12 q 103 90 125 38 q 82 225 82 143 l 82 754 l 238 754 l 238 231 q 252 150 238 176 q 299 124 267 124 q 325 126 311 124 q 351 135 339 129 l 351 0 q 311 -10 333 -7 q 265 -14 289 -14 m 113 842 l 113 858 l 165 1078 l 344 1078 l 344 1065 l 219 842 l 113 842 m 7 854 q -47 876 -26 854 q -68 939 -68 899 q -47 1003 -68 982 q 7 1024 -26 1024 q 61 1002 40 1024 q 82 939 82 981 q 61 876 82 899 q 7 854 40 854 m 413 854 q 358 876 379 854 q 338 939 338 899 q 358 1003 338 982 q 413 1024 379 1024 q 467 1002 446 1024 q 488 939 488 981 q 467 876 488 899 q 413 854 446 854 z "},"Α":{"ha":690,"x_min":0,"x_max":690,"o":"m 518 0 l 458 265 l 233 265 l 175 0 l 0 0 l 240 992 l 446 992 l 690 0 l 518 0 m 371 696 q 360 755 365 726 q 352 810 356 783 q 344 860 349 836 q 339 811 343 838 q 330 756 335 785 q 318 697 325 726 l 258 410 l 432 410 l 371 696 z "},"Β":{"ha":706,"x_min":93,"x_max":649,"o":"m 339 992 q 557 931 483 992 q 631 750 631 871 q 615 642 631 689 q 568 567 599 596 q 493 526 538 538 l 493 519 q 582 476 547 506 q 633 399 617 446 q 649 286 649 351 q 616 135 649 200 q 522 35 583 71 q 371 0 460 0 l 93 0 l 93 992 l 339 992 m 339 582 q 435 619 404 582 q 467 729 467 656 q 434 824 467 792 q 336 857 401 857 l 256 857 l 256 582 l 339 582 m 256 450 l 256 138 l 357 138 q 451 178 419 138 q 482 299 482 218 q 467 381 482 347 q 421 433 451 415 q 347 450 390 450 l 256 450 z "},"Γ":{"ha":543,"x_min":93,"x_max":504,"o":"m 93 0 l 93 992 l 504 992 l 504 851 l 256 851 l 256 0 l 93 0 z "},"Δ":{"ha":696,"x_min":14,"x_max":682,"o":"m 14 0 l 14 99 l 243 992 l 449 992 l 682 97 l 682 0 l 14 0 m 194 144 l 501 144 l 378 696 q 366 755 372 726 q 355 810 360 783 q 347 860 350 836 q 340 811 346 838 q 328 756 335 785 q 315 697 322 726 l 194 144 z "},"Ε":{"ha":581,"x_min":93,"x_max":519,"o":"m 519 0 l 93 0 l 93 992 l 519 992 l 519 851 l 256 851 l 256 586 l 503 586 l 503 446 l 256 446 l 256 143 l 519 143 l 519 0 z "},"Ζ":{"ha":560,"x_min":33,"x_max":531,"o":"m 531 0 l 33 0 l 33 119 l 347 850 l 39 850 l 39 992 l 522 992 l 522 872 l 207 143 l 531 143 l 531 0 z "},"Η":{"ha":781,"x_min":93,"x_max":688,"o":"m 688 0 l 525 0 l 525 446 l 256 446 l 256 0 l 93 0 l 93 992 l 256 992 l 256 588 l 525 588 l 525 992 l 688 992 l 688 0 z "},"Θ":{"ha":801,"x_min":64,"x_max":739,"o":"m 292 438 l 292 571 l 508 571 l 508 438 l 292 438 m 739 497 q 719 290 739 383 q 657 128 699 196 q 552 23 615 60 q 401 -14 489 -14 q 250 24 314 -14 q 144 129 186 61 q 83 291 103 197 q 64 499 64 385 q 102 778 64 665 q 215 949 140 892 q 401 1007 290 1007 q 592 942 518 1007 q 703 764 667 878 q 739 497 739 650 m 232 497 q 251 295 232 376 q 308 172 271 214 q 401 131 346 131 q 494 171 457 131 q 550 292 531 211 q 569 497 569 374 q 528 773 569 682 q 401 864 486 864 q 308 823 346 864 q 251 701 269 782 q 232 497 232 619 z "},"Ι":{"ha":431,"x_min":43,"x_max":388,"o":"m 388 0 l 43 0 l 43 89 l 135 122 l 135 869 l 43 903 l 43 992 l 388 992 l 388 903 l 297 869 l 297 122 l 388 89 l 388 0 z "},"Κ":{"ha":676,"x_min":93,"x_max":685,"o":"m 685 0 l 504 0 l 321 425 l 256 358 l 256 0 l 93 0 l 93 992 l 256 992 l 256 519 q 281 577 264 543 q 322 657 297 611 l 503 992 l 678 992 l 435 551 l 685 0 z "},"Λ":{"ha":690,"x_min":0,"x_max":690,"o":"m 0 0 l 240 992 l 446 992 l 690 0 l 518 0 l 371 696 q 360 755 365 726 q 352 810 356 783 q 344 860 349 836 q 339 811 343 838 q 330 756 335 785 q 318 697 325 726 l 175 0 l 0 0 z "},"Μ":{"ha":1044,"x_min":93,"x_max":951,"o":"m 454 0 l 243 769 l 238 769 q 242 684 240 724 q 245 613 244 644 q 246 558 246 582 l 246 0 l 93 0 l 93 992 l 319 992 l 521 264 l 525 264 l 726 992 l 951 992 l 951 0 l 794 0 l 794 558 q 795 617 794 585 q 798 687 796 649 q 803 769 800 725 l 797 769 l 586 0 l 454 0 z "},"Ν":{"ha":836,"x_min":93,"x_max":743,"o":"m 743 0 l 550 0 l 242 736 l 236 736 q 242 651 240 692 q 245 578 244 611 q 246 515 246 544 l 246 0 l 93 0 l 93 992 l 286 992 l 594 271 l 599 271 q 594 353 596 315 q 590 426 592 392 q 589 486 589 460 l 589 992 l 743 992 l 743 0 z "},"Ξ":{"ha":654,"x_min":60,"x_max":594,"o":"m 60 0 l 60 143 l 594 143 l 594 0 l 60 0 m 113 449 l 113 592 l 542 592 l 542 449 l 113 449 m 78 849 l 78 992 l 578 992 l 578 849 l 78 849 z "},"Ο":{"ha":801,"x_min":64,"x_max":739,"o":"m 739 497 q 719 290 739 383 q 657 128 699 196 q 552 23 615 60 q 401 -14 489 -14 q 250 24 314 -14 q 144 129 186 61 q 83 291 103 197 q 64 499 64 385 q 102 779 64 667 q 215 949 140 892 q 401 1007 290 1007 q 592 942 518 1007 q 703 764 667 878 q 739 497 739 650 m 232 497 q 251 295 232 376 q 308 172 271 214 q 401 131 346 131 q 494 171 457 131 q 550 292 531 211 q 569 497 569 374 q 528 773 569 682 q 401 864 486 864 q 308 822 346 864 q 251 699 269 781 q 232 497 232 618 z "},"Π":{"ha":781,"x_min":93,"x_max":688,"o":"m 93 0 l 93 992 l 688 992 l 688 0 l 525 0 l 525 849 l 256 849 l 256 0 l 93 0 z "},"Ρ":{"ha":656,"x_min":93,"x_max":614,"o":"m 319 992 q 542 915 469 992 q 614 690 614 839 q 595 554 614 614 q 539 452 576 494 q 445 387 501 410 q 313 364 389 364 l 256 364 l 256 0 l 93 0 l 93 992 l 319 992 m 310 851 l 256 851 l 256 504 l 297 504 q 384 522 350 504 q 435 581 418 540 q 451 689 451 622 q 417 813 451 775 q 310 851 382 851 z "},"Σ":{"ha":558,"x_min":33,"x_max":529,"o":"m 33 0 l 33 133 l 238 515 l 42 863 l 42 992 l 522 992 l 522 851 l 332 851 q 272 853 299 851 q 225 856 246 854 l 400 549 l 400 514 l 197 136 q 256 141 228 139 q 307 143 283 143 l 529 143 l 529 0 l 33 0 z "},"Τ":{"ha":571,"x_min":17,"x_max":551,"o":"m 365 0 l 204 0 l 204 849 l 17 849 l 17 992 l 551 992 l 551 849 l 365 849 l 365 0 z "},"Υ":{"ha":615,"x_min":0,"x_max":615,"o":"m 310 565 l 447 992 l 615 992 l 389 383 l 389 0 l 226 0 l 226 379 l 0 992 l 169 992 l 310 565 z "},"Φ":{"ha":981,"x_min":50,"x_max":932,"o":"m 413 -8 l 413 131 q 251 158 319 131 q 138 238 183 186 q 72 360 93 289 q 50 517 50 432 q 70 665 50 597 q 135 785 90 733 q 248 865 179 836 q 413 892 317 893 l 413 1000 l 569 1000 l 569 892 q 731 863 663 892 q 844 783 800 835 q 910 663 889 732 q 932 515 932 594 q 910 361 932 432 q 843 239 888 290 q 731 159 799 188 q 569 131 663 131 l 569 -8 l 413 -8 m 413 267 l 413 756 q 295 727 340 756 q 230 646 250 699 q 210 517 210 593 q 231 378 210 435 q 296 294 251 322 q 413 267 340 267 m 569 267 q 686 297 642 267 q 751 382 731 326 q 771 517 771 438 q 751 646 771 593 q 686 727 731 699 q 569 756 642 756 l 569 267 z "},"Χ":{"ha":618,"x_min":4,"x_max":615,"o":"m 615 0 l 440 0 l 313 360 l 174 0 l 4 0 l 221 510 l 25 992 l 193 992 l 310 657 l 425 992 l 596 992 l 403 507 l 615 0 z "},"Ψ":{"ha":914,"x_min":88,"x_max":826,"o":"m 378 0 l 378 244 q 253 272 307 250 q 162 334 199 294 q 106 432 125 374 q 88 567 88 490 l 88 992 l 250 992 l 250 568 q 261 476 250 518 q 301 410 272 435 q 378 386 329 386 l 378 992 l 536 992 l 536 386 q 615 407 588 386 q 653 468 643 428 q 664 567 664 508 l 664 992 l 826 992 l 826 578 q 793 401 826 474 q 694 290 760 329 q 536 244 629 251 l 536 0 l 378 0 z "},"Ω":{"ha":728,"x_min":22,"x_max":706,"o":"m 22 0 l 22 143 l 178 143 q 91 245 125 183 q 42 384 57 307 q 26 547 26 461 q 66 796 26 693 q 181 953 106 899 q 365 1007 257 1007 q 546 952 471 1007 q 660 794 621 897 q 700 549 700 692 q 685 383 700 460 q 636 244 669 306 q 546 143 603 183 l 706 143 l 706 0 l 411 0 l 411 146 q 484 247 457 190 q 524 378 511 304 q 538 546 538 453 q 519 719 538 649 q 462 827 500 790 q 365 864 424 864 q 269 828 308 864 q 210 722 231 793 q 190 544 190 651 q 201 378 190 453 q 238 247 211 304 q 314 146 265 189 l 314 0 l 22 0 z "},"Ϊ":{"ha":431,"x_min":18,"x_max":411,"o":"m 388 0 l 43 0 l 43 89 l 135 122 l 135 869 l 43 903 l 43 992 l 388 992 l 388 903 l 297 869 l 297 122 l 388 89 l 388 0 m 18 1176 q 39 1240 18 1219 q 93 1261 60 1261 q 147 1240 126 1261 q 168 1176 168 1218 q 147 1114 168 1136 q 93 1092 126 1092 q 39 1114 60 1092 q 18 1176 18 1136 m 261 1176 q 282 1240 261 1219 q 336 1261 303 1261 q 390 1240 369 1261 q 411 1176 411 1218 q 390 1114 411 1136 q 335 1092 369 1092 q 281 1114 301 1092 q 261 1176 261 1136 z "},"Ϋ":{"ha":615,"x_min":0,"x_max":615,"o":"m 310 565 l 447 992 l 615 992 l 389 383 l 389 0 l 226 0 l 226 379 l 0 992 l 169 992 l 310 565 m 110 1176 q 131 1240 110 1219 q 185 1261 151 1261 q 239 1240 218 1261 q 260 1176 260 1218 q 239 1114 260 1136 q 185 1092 218 1092 q 131 1114 151 1092 q 110 1176 110 1136 m 353 1176 q 374 1240 353 1219 q 428 1261 394 1261 q 482 1240 461 1261 q 503 1176 503 1218 q 482 1114 503 1136 q 426 1092 461 1092 q 373 1114 393 1092 q 353 1176 353 1136 z "},"ά":{"ha":703,"x_min":53,"x_max":682,"o":"m 271 -14 q 154 31 203 -14 q 79 161 106 75 q 53 374 53 247 q 113 667 53 565 q 281 768 172 768 q 347 756 318 768 q 397 718 375 743 q 436 657 418 693 l 446 657 l 460 754 l 593 754 l 593 211 q 606 143 593 167 q 642 119 619 119 q 663 122 653 119 q 682 126 674 124 l 682 1 q 663 -6 676 -3 q 635 -12 650 -10 q 610 -14 619 -14 q 504 13 543 -14 q 447 103 465 40 l 438 103 q 394 39 419 65 q 338 -1 368 13 q 271 -14 308 -14 m 321 121 q 385 145 360 121 q 424 222 411 169 q 438 354 438 274 l 438 375 q 410 571 438 508 q 318 633 382 633 q 237 566 263 633 q 211 372 211 499 q 238 182 211 243 q 321 121 265 121 m 250 842 l 250 858 l 317 1078 l 496 1078 l 496 1065 l 358 842 l 250 842 z "},"έ":{"ha":504,"x_min":40,"x_max":474,"o":"m 290 -14 q 101 47 163 -14 q 40 208 40 108 q 60 302 40 264 q 111 362 79 340 q 176 392 143 383 l 176 397 q 93 460 122 415 q 64 568 64 504 q 92 673 64 628 q 171 743 119 718 q 293 768 222 768 q 381 758 338 768 q 474 719 425 749 l 433 603 q 374 632 404 622 q 318 642 344 642 q 240 616 265 642 q 215 546 215 590 q 240 478 215 506 q 322 451 265 451 l 378 451 l 378 326 l 321 326 q 251 315 279 326 q 210 282 224 304 q 197 225 197 260 q 231 147 197 172 q 321 121 265 121 q 397 131 363 121 q 471 168 432 142 l 471 36 q 385 -3 432 7 q 290 -14 338 -14 m 222 842 l 222 858 l 289 1078 l 468 1078 l 468 1065 l 331 842 l 222 842 z "},"ή":{"ha":658,"x_min":82,"x_max":578,"o":"m 422 -333 l 422 463 q 407 588 422 546 q 342 631 392 631 q 281 605 304 631 q 248 523 258 579 q 238 374 238 467 l 238 0 l 82 0 l 82 754 l 206 754 l 222 656 l 232 656 q 272 717 249 692 q 326 756 296 743 q 388 768 356 768 q 497 738 456 768 q 558 649 539 707 q 578 504 578 590 l 578 -333 l 422 -333 m 251 842 l 251 858 l 318 1078 l 497 1078 l 497 1065 l 360 842 l 251 842 z "},"ί":{"ha":374,"x_min":82,"x_max":356,"o":"m 265 -14 q 166 13 207 -12 q 103 90 125 38 q 82 225 82 143 l 82 754 l 238 754 l 238 231 q 252 150 238 176 q 299 124 267 124 q 325 126 311 124 q 351 135 339 129 l 351 0 q 311 -10 333 -7 q 265 -14 289 -14 m 110 842 l 110 858 l 176 1078 l 356 1078 l 356 1065 l 218 842 l 110 842 z "},"ΰ":{"ha":653,"x_min":81,"x_max":639,"o":"m 310 -12 q 204 5 247 -12 q 133 55 161 22 q 93 138 106 88 q 81 257 81 189 l 81 754 l 236 754 l 236 268 q 240 194 236 226 q 261 143 244 161 q 314 125 278 125 q 379 152 356 125 q 413 238 403 179 q 424 388 424 297 q 415 568 424 479 q 383 754 406 657 l 538 754 q 562 623 553 681 q 575 511 571 565 q 579 389 579 457 q 512 88 579 189 q 310 -12 444 -12 m 264 842 l 264 858 l 317 1078 l 496 1078 l 496 1065 l 371 842 l 264 842 m 158 854 q 104 876 125 854 q 83 939 83 899 q 104 1003 83 982 q 158 1024 125 1024 q 213 1002 192 1024 q 233 939 233 981 q 213 876 233 899 q 158 854 192 854 m 564 854 q 510 876 531 854 q 489 939 489 899 q 510 1003 489 982 q 564 1024 531 1024 q 618 1002 597 1024 q 639 939 639 981 q 618 876 639 899 q 564 854 597 854 z "},"α":{"ha":703,"x_min":53,"x_max":682,"o":"m 271 -14 q 154 31 203 -14 q 79 161 106 75 q 53 374 53 247 q 113 667 53 565 q 281 768 172 768 q 347 756 318 768 q 397 718 375 743 q 436 657 418 693 l 446 657 l 460 754 l 593 754 l 593 211 q 606 143 593 167 q 642 119 619 119 q 663 122 653 119 q 682 126 674 124 l 682 1 q 663 -6 676 -3 q 635 -12 650 -10 q 610 -14 619 -14 q 504 13 543 -14 q 447 103 465 40 l 438 103 q 394 39 419 65 q 338 -1 368 13 q 271 -14 308 -14 m 321 121 q 385 145 360 121 q 424 222 411 169 q 438 354 438 274 l 438 375 q 410 571 438 508 q 318 633 382 633 q 237 566 263 633 q 211 372 211 499 q 238 182 211 243 q 321 121 265 121 z "},"β":{"ha":674,"x_min":82,"x_max":621,"o":"m 82 -333 l 82 765 q 112 926 82 860 q 199 1028 142 993 q 338 1063 256 1063 q 472 1030 418 1063 q 552 939 525 997 q 579 801 579 881 q 562 680 579 729 q 512 602 544 631 q 435 563 479 574 l 435 557 q 541 515 500 547 q 601 426 582 482 q 621 288 621 369 q 592 126 621 194 q 510 22 564 58 q 379 -14 456 -14 q 322 -8 346 -14 q 278 7 297 -3 q 238 31 258 17 l 238 -333 l 82 -333 m 342 124 q 434 168 404 124 q 464 303 464 213 q 449 402 464 361 q 403 465 433 443 q 329 486 374 486 l 282 486 l 282 615 l 321 615 q 380 633 357 615 q 413 688 403 651 q 424 778 424 725 q 401 892 424 853 q 333 931 379 931 q 278 910 300 931 q 247 851 257 890 q 238 754 238 813 l 238 167 q 287 135 260 147 q 342 124 314 124 z "},"γ":{"ha":596,"x_min":4,"x_max":550,"o":"m 182 -292 l 182 -4 l 4 754 l 165 754 l 257 306 q 267 253 263 278 q 274 208 271 229 q 279 167 278 186 l 285 167 q 347 344 322 253 q 383 538 371 436 q 394 754 394 640 l 550 754 q 527 483 550 610 q 458 242 504 357 q 336 14 411 126 l 336 -292 l 182 -292 z "},"δ":{"ha":642,"x_min":39,"x_max":588,"o":"m 310 -14 q 159 26 219 -14 q 69 135 99 65 q 39 299 39 206 q 63 440 39 376 q 133 550 88 503 q 243 624 178 597 q 174 696 201 660 q 133 772 146 732 q 119 856 119 811 q 149 968 119 922 q 230 1038 178 1014 q 349 1061 282 1061 q 428 1053 392 1061 q 496 1033 465 1046 q 550 1000 526 1019 l 496 874 q 426 917 461 903 q 357 931 390 931 q 313 921 332 931 q 283 894 293 911 q 272 853 272 876 q 284 806 272 831 q 322 753 296 782 q 393 686 349 724 q 500 578 457 633 q 565 457 543 522 q 588 308 588 392 q 556 140 588 213 q 462 27 524 68 q 310 -14 400 -14 m 311 118 q 376 140 350 118 q 417 206 403 163 q 431 311 431 250 q 419 401 431 360 q 384 481 407 443 q 325 549 361 518 q 269 511 293 535 q 230 456 246 488 q 206 385 214 424 q 197 306 197 347 q 210 205 197 247 q 249 140 224 163 q 311 118 275 118 z "},"ε":{"ha":504,"x_min":40,"x_max":474,"o":"m 290 -14 q 101 47 163 -14 q 40 208 40 108 q 60 302 40 264 q 111 362 79 340 q 176 392 143 383 l 176 397 q 93 460 122 415 q 64 568 64 504 q 92 673 64 628 q 171 743 119 718 q 293 768 222 768 q 381 758 338 768 q 474 719 425 749 l 433 603 q 374 632 404 622 q 318 642 344 642 q 240 616 265 642 q 215 546 215 590 q 240 478 215 506 q 322 451 265 451 l 378 451 l 378 326 l 321 326 q 251 315 279 326 q 210 282 224 304 q 197 225 197 260 q 231 147 197 172 q 321 121 265 121 q 397 131 363 121 q 471 168 432 142 l 471 36 q 385 -3 432 7 q 290 -14 338 -14 z "},"ζ":{"ha":490,"x_min":54,"x_max":501,"o":"m 283 -281 q 330 -185 314 -229 q 346 -106 346 -140 q 338 -63 346 -81 q 311 -34 331 -46 q 257 -12 292 -22 q 149 43 194 7 q 78 137 103 79 q 54 279 54 194 q 76 436 54 361 q 138 588 97 511 q 231 753 178 664 l 342 938 q 309 931 326 933 q 270 928 292 929 q 222 926 249 926 l 78 926 l 78 1056 l 501 1056 l 501 951 l 353 700 q 266 533 297 604 q 223 408 235 463 q 211 306 211 354 q 220 232 211 268 q 260 166 229 196 q 354 115 290 136 q 433 78 401 100 q 480 24 464 57 q 496 -67 496 -10 q 488 -139 496 -103 q 465 -210 479 -175 q 431 -281 450 -246 l 283 -281 z "},"η":{"ha":658,"x_min":82,"x_max":578,"o":"m 422 -333 l 422 463 q 407 588 422 546 q 342 631 392 631 q 281 605 304 631 q 248 523 258 579 q 238 374 238 467 l 238 0 l 82 0 l 82 754 l 206 754 l 222 656 l 232 656 q 272 717 249 692 q 326 756 296 743 q 388 768 356 768 q 497 738 456 768 q 558 649 539 707 q 578 504 578 590 l 578 -333 l 422 -333 z "},"θ":{"ha":657,"x_min":53,"x_max":604,"o":"m 326 -14 q 174 44 235 -14 q 83 221 113 101 q 53 529 53 340 q 83 831 53 713 q 176 1006 114 949 q 328 1063 238 1063 q 482 1006 421 1063 q 574 832 543 950 q 604 529 604 714 q 574 223 604 343 q 481 44 543 103 q 326 -14 419 -14 m 326 114 q 393 147 367 114 q 433 258 419 181 q 450 467 447 336 l 206 467 q 222 259 208 336 q 261 148 235 182 q 326 114 288 114 m 207 596 l 451 596 q 434 793 449 719 q 394 901 419 867 q 328 935 368 935 q 263 901 289 935 q 224 794 238 868 q 207 596 211 719 z "},"ι":{"ha":374,"x_min":82,"x_max":351,"o":"m 265 -14 q 166 13 207 -12 q 103 90 125 38 q 82 225 82 143 l 82 754 l 238 754 l 238 231 q 252 150 238 176 q 299 124 267 124 q 325 126 311 124 q 351 135 339 129 l 351 0 q 311 -10 333 -7 q 265 -14 289 -14 z "},"κ":{"ha":618,"x_min":82,"x_max":618,"o":"m 607 754 l 417 453 l 618 0 l 450 0 l 310 335 l 238 257 l 238 0 l 82 0 l 82 754 l 238 754 l 238 572 q 236 483 238 526 q 229 400 235 440 l 235 400 q 259 447 247 425 q 281 488 271 469 l 440 754 l 607 754 z "},"λ":{"ha":614,"x_min":4,"x_max":608,"o":"m 538 -14 q 451 6 486 -14 q 391 72 415 26 q 349 189 367 117 l 303 388 q 297 417 300 401 q 292 447 294 432 q 286 478 289 463 q 282 508 283 493 l 276 508 q 272 465 275 486 q 264 425 268 444 l 165 0 l 4 0 l 211 725 l 183 825 q 145 905 168 886 q 89 924 122 924 q 61 921 75 924 q 36 914 47 918 l 36 1051 q 60 1058 47 1056 q 88 1061 72 1060 q 119 1063 103 1063 q 213 1045 172 1064 q 285 981 254 1026 q 333 860 315 936 l 493 213 q 510 161 501 181 q 533 133 519 142 q 565 125 547 125 q 589 127 578 125 q 608 132 600 129 l 608 -3 q 587 -8 599 -6 q 563 -12 575 -11 q 538 -14 550 -14 z "},"μ":{"ha":703,"x_min":82,"x_max":681,"o":"m 82 -333 l 82 754 l 238 754 l 238 297 q 256 169 238 213 q 319 125 274 125 q 413 187 388 125 q 438 379 438 249 l 436 754 l 592 754 l 592 211 q 605 143 592 167 q 642 119 618 119 q 663 122 653 119 q 681 126 672 124 l 681 1 q 663 -6 676 -3 q 634 -12 649 -10 q 610 -14 619 -14 q 506 13 543 -14 q 450 103 468 40 l 443 103 q 413 41 431 67 q 371 1 394 15 q 322 -14 347 -14 q 271 2 292 -14 q 236 50 250 18 l 232 50 q 235 3 235 26 q 237 -46 236 -21 q 238 -94 238 -71 l 238 -333 l 82 -333 z "},"ν":{"ha":596,"x_min":4,"x_max":550,"o":"m 181 0 l 4 754 l 165 754 l 257 306 q 267 253 263 278 q 274 208 271 229 q 279 167 278 186 l 285 167 q 347 344 322 253 q 383 538 371 436 q 394 754 394 640 l 550 754 q 526 478 550 607 q 453 233 503 350 q 326 0 404 115 l 181 0 z "},"ξ":{"ha":543,"x_min":54,"x_max":514,"o":"m 297 -281 q 344 -185 328 -229 q 360 -106 360 -140 q 351 -62 360 -79 q 321 -34 343 -46 q 257 -12 299 -22 q 148 42 193 6 q 78 138 103 78 q 54 285 54 197 q 74 409 54 356 q 133 499 94 463 q 225 551 171 535 l 225 557 q 153 594 186 571 q 103 654 121 617 q 85 744 85 692 q 102 828 85 789 q 149 894 119 867 q 215 933 179 922 q 183 929 199 931 q 153 927 168 928 q 122 926 138 926 l 78 926 l 78 1056 l 514 1056 l 514 928 l 431 928 q 352 918 388 928 q 291 888 317 908 q 251 837 265 868 q 238 764 238 806 q 256 686 238 719 q 314 634 274 653 q 419 615 354 615 l 483 615 l 483 486 l 414 486 q 302 466 347 486 q 234 406 257 446 q 211 308 211 365 q 222 227 211 264 q 263 162 232 190 q 354 115 293 133 q 442 78 408 100 q 493 24 476 57 q 510 -67 510 -10 q 501 -139 510 -103 q 478 -210 493 -175 q 444 -281 464 -246 l 297 -281 z "},"ο":{"ha":656,"x_min":53,"x_max":603,"o":"m 603 379 q 587 225 603 296 q 538 101 571 154 q 453 17 506 47 q 326 -14 400 -14 q 206 16 257 -14 q 120 99 154 46 q 69 224 86 153 q 53 379 53 296 q 82 585 53 497 q 172 720 111 672 q 329 768 233 768 q 475 724 414 768 q 569 592 536 679 q 603 379 603 506 m 211 376 q 224 234 211 292 q 262 147 236 176 q 328 118 288 118 q 394 147 369 118 q 432 235 419 176 q 444 378 444 293 q 432 522 444 465 q 394 608 419 579 q 328 636 369 636 q 239 572 267 636 q 211 376 211 508 z "},"π":{"ha":743,"x_min":18,"x_max":721,"o":"m 606 -11 q 490 42 528 -11 q 453 204 453 94 l 453 625 l 285 625 l 285 0 l 129 0 l 129 625 l 18 625 l 18 754 l 721 754 l 721 625 l 610 625 l 610 207 q 622 144 610 164 q 656 125 633 125 q 687 128 669 125 q 718 140 704 132 l 718 17 q 667 -4 697 3 q 606 -11 638 -11 z "},"ρ":{"ha":654,"x_min":61,"x_max":601,"o":"m 61 -333 l 61 382 q 88 588 61 501 q 175 721 115 674 q 332 768 235 768 q 474 728 414 768 q 567 600 533 688 q 601 368 601 513 q 574 171 601 257 q 490 35 546 85 q 349 -14 433 -14 q 274 1 304 -14 q 217 43 243 17 l 210 43 q 215 -54 214 -7 q 217 -142 217 -101 l 217 -333 l 61 -333 m 324 118 q 392 144 365 118 q 432 226 419 171 q 444 368 444 282 q 415 574 444 513 q 326 636 386 636 q 242 581 268 636 q 217 411 217 526 l 217 165 q 265 131 236 143 q 324 118 294 118 z "},"σ":{"ha":688,"x_min":53,"x_max":651,"o":"m 326 -14 q 176 33 238 -14 q 84 165 115 81 q 53 364 53 250 q 90 585 53 499 q 198 713 126 672 q 376 754 269 754 l 651 754 l 651 625 l 513 625 q 566 549 547 592 q 593 457 585 507 q 601 351 601 407 q 583 201 601 268 q 528 86 564 135 q 440 12 492 38 q 326 -14 389 -14 m 325 118 q 390 144 364 118 q 431 224 417 171 q 444 354 444 278 q 439 453 444 403 q 420 548 433 503 q 381 625 407 593 l 363 625 q 275 597 308 625 q 226 508 242 568 q 210 357 210 449 q 223 224 210 278 q 261 144 236 171 q 325 118 286 118 z "},"τ":{"ha":511,"x_min":18,"x_max":475,"o":"m 331 -15 q 228 10 268 -15 q 169 90 188 36 q 150 225 150 143 l 150 625 l 18 625 l 18 754 l 475 754 l 475 625 l 306 625 l 306 233 q 313 172 306 197 q 336 133 321 146 q 375 121 351 121 q 415 126 394 121 q 457 139 436 131 l 457 14 q 400 -8 435 0 q 331 -15 365 -15 z "},"υ":{"ha":653,"x_min":81,"x_max":579,"o":"m 310 -12 q 204 5 247 -12 q 133 55 161 22 q 93 138 106 88 q 81 257 81 189 l 81 754 l 236 754 l 236 268 q 240 194 236 226 q 261 143 244 161 q 314 125 278 125 q 379 152 356 125 q 413 238 403 179 q 424 388 424 297 q 415 568 424 479 q 383 754 406 657 l 538 754 q 562 623 553 681 q 575 511 571 565 q 579 389 579 457 q 512 88 579 189 q 310 -12 444 -12 z "},"φ":{"ha":844,"x_min":53,"x_max":792,"o":"m 353 -333 l 353 -7 q 192 50 260 1 q 88 182 124 99 q 53 376 53 265 q 85 570 53 488 q 184 702 118 653 q 351 760 250 751 l 351 1056 l 494 1056 l 494 760 q 660 699 594 751 q 758 564 725 647 q 792 376 792 481 q 758 187 792 269 q 660 54 725 104 q 494 -7 594 4 l 494 -333 l 353 -333 m 351 119 l 351 635 q 278 598 310 631 q 228 510 246 565 q 210 376 210 454 q 226 250 210 307 q 274 158 243 193 q 351 119 306 124 m 494 119 q 573 159 542 124 q 619 251 604 194 q 635 376 635 308 q 597 560 635 492 q 494 635 558 628 l 494 119 z "},"χ":{"ha":699,"x_min":19,"x_max":699,"o":"m 593 -333 q 512 -317 543 -333 q 459 -265 481 -300 q 418 -178 438 -231 l 153 542 q 119 615 133 594 q 78 635 104 635 q 53 632 65 635 q 31 626 40 629 l 31 754 q 67 763 46 760 q 113 765 89 765 q 194 748 163 765 q 248 696 226 731 q 289 607 269 661 l 553 -114 q 574 -167 565 -147 q 596 -194 583 -186 q 631 -201 608 -201 q 655 -199 643 -201 q 679 -194 667 -197 l 679 -324 q 655 -328 668 -326 q 627 -332 642 -331 q 593 -333 613 -333 m 19 -333 l 317 264 l 379 101 l 175 -333 l 19 -333 m 415 122 l 354 311 l 543 754 l 699 754 l 415 122 z "},"ψ":{"ha":854,"x_min":81,"x_max":781,"o":"m 350 -333 l 350 -12 q 197 26 257 -8 q 109 134 138 61 q 81 321 81 207 l 81 754 l 231 754 l 231 329 q 241 218 231 261 q 278 153 251 175 q 350 125 304 131 l 350 1056 l 500 1056 l 500 125 q 576 160 550 131 q 613 249 603 190 q 624 397 624 307 q 613 572 624 483 q 579 754 603 661 l 732 754 q 769 564 757 650 q 781 394 781 478 q 751 178 781 267 q 658 42 721 90 q 500 -12 596 -6 l 500 -333 l 350 -333 z "},"ω":{"ha":888,"x_min":67,"x_max":821,"o":"m 272 -14 q 155 31 200 -14 q 88 162 110 76 q 67 365 67 247 q 94 590 67 488 q 167 754 121 692 l 314 754 q 260 643 281 706 q 231 510 239 581 q 222 371 222 440 q 238 188 222 247 q 296 129 254 129 q 337 149 321 129 q 360 210 353 168 q 368 321 368 253 l 368 507 l 518 507 l 518 321 q 526 210 518 251 q 551 149 535 168 q 593 129 568 131 q 635 156 619 129 q 659 235 651 182 q 667 369 667 288 q 658 505 667 435 q 629 640 649 575 q 575 754 610 704 l 722 754 q 774 653 751 714 q 808 520 796 593 q 821 365 821 447 q 799 160 821 246 q 731 31 776 75 q 613 -14 685 -14 q 507 22 551 -14 q 446 138 463 58 l 442 138 q 406 51 431 85 q 348 1 382 17 q 272 -14 314 -14 z "},"ϊ":{"ha":374,"x_min":-35,"x_max":358,"o":"m 265 -14 q 166 13 207 -12 q 103 90 125 38 q 82 225 82 143 l 82 754 l 238 754 l 238 231 q 252 150 238 176 q 299 124 267 124 q 325 126 311 124 q 351 135 339 129 l 351 0 q 311 -10 333 -7 q 265 -14 289 -14 m -35 939 q -14 1003 -35 982 q 40 1024 7 1024 q 94 1002 74 1024 q 115 939 115 981 q 94 876 115 899 q 40 854 74 854 q -14 876 7 854 q -35 939 -35 899 m 208 939 q 229 1003 208 982 q 283 1024 250 1024 q 338 1002 317 1024 q 358 939 358 981 q 338 876 358 899 q 282 854 317 854 q 228 876 249 854 q 208 939 208 899 z "},"ϋ":{"ha":653,"x_min":81,"x_max":579,"o":"m 310 -12 q 204 5 247 -12 q 133 55 161 22 q 93 138 106 88 q 81 257 81 189 l 81 754 l 236 754 l 236 268 q 240 194 236 226 q 261 143 244 161 q 314 125 278 125 q 379 152 356 125 q 413 238 403 179 q 424 388 424 297 q 415 568 424 479 q 383 754 406 657 l 538 754 q 562 623 553 681 q 575 511 571 565 q 579 389 579 457 q 512 88 579 189 q 310 -12 444 -12 m 117 939 q 138 1003 117 982 q 192 1024 158 1024 q 246 1002 225 1024 q 267 939 267 981 q 246 876 267 899 q 192 854 225 854 q 138 876 158 854 q 117 939 117 899 m 360 939 q 381 1003 360 982 q 435 1024 401 1024 q 489 1002 468 1024 q 510 939 510 981 q 489 876 510 899 q 433 854 468 854 q 380 876 400 854 q 360 939 360 899 z "},"ό":{"ha":656,"x_min":53,"x_max":603,"o":"m 603 379 q 587 225 603 296 q 538 101 571 154 q 453 17 506 47 q 326 -14 400 -14 q 206 16 257 -14 q 120 99 154 46 q 69 224 86 153 q 53 379 53 296 q 82 585 53 497 q 172 720 111 672 q 329 768 233 768 q 475 724 414 768 q 569 592 536 679 q 603 379 603 506 m 211 376 q 224 234 211 292 q 262 147 236 176 q 328 118 288 118 q 394 147 369 118 q 432 235 419 176 q 444 378 444 293 q 432 522 444 465 q 394 608 419 579 q 328 636 369 636 q 239 572 267 636 q 211 376 211 508 m 274 842 l 274 858 l 340 1078 l 519 1078 l 519 1065 l 382 842 l 274 842 z "},"ύ":{"ha":653,"x_min":81,"x_max":579,"o":"m 310 -12 q 204 5 247 -12 q 133 55 161 22 q 93 138 106 88 q 81 257 81 189 l 81 754 l 236 754 l 236 268 q 240 194 236 226 q 261 143 244 161 q 314 125 278 125 q 379 152 356 125 q 413 238 403 179 q 424 388 424 297 q 415 568 424 479 q 383 754 406 657 l 538 754 q 562 623 553 681 q 575 511 571 565 q 579 389 579 457 q 512 88 579 189 q 310 -12 444 -12 m 260 842 l 260 858 l 326 1078 l 506 1078 l 506 1065 l 368 842 l 260 842 z "},"ώ":{"ha":888,"x_min":67,"x_max":821,"o":"m 272 -14 q 155 31 200 -14 q 88 162 110 76 q 67 365 67 247 q 94 590 67 488 q 167 754 121 692 l 314 754 q 260 643 281 706 q 231 510 239 581 q 222 371 222 440 q 238 188 222 247 q 296 129 254 129 q 337 149 321 129 q 360 210 353 168 q 368 321 368 253 l 368 507 l 518 507 l 518 321 q 526 210 518 251 q 551 149 535 168 q 593 129 568 131 q 635 156 619 129 q 659 235 651 182 q 667 369 667 288 q 658 505 667 435 q 629 640 649 575 q 575 754 610 704 l 722 754 q 774 653 751 714 q 808 520 796 593 q 821 365 821 447 q 799 160 821 246 q 731 31 776 75 q 613 -14 685 -14 q 507 22 551 -14 q 446 138 463 58 l 442 138 q 406 51 431 85 q 348 1 382 17 q 272 -14 314 -14 m 390 842 l 390 858 l 457 1078 l 636 1078 l 636 1065 l 499 842 l 390 842 z "},"Ё":{"ha":581,"x_min":93,"x_max":519,"o":"m 93 0 l 93 992 l 519 992 l 519 851 l 256 851 l 256 586 l 503 586 l 503 446 l 256 446 l 256 143 l 519 143 l 519 0 l 93 0 m 197 1090 q 144 1113 164 1090 q 125 1176 125 1136 q 144 1243 125 1221 q 197 1265 164 1265 q 251 1243 232 1265 q 271 1176 271 1221 q 251 1113 271 1135 q 197 1090 231 1090 m 414 1090 q 362 1113 381 1090 q 343 1176 343 1136 q 362 1243 343 1221 q 415 1265 381 1265 q 469 1243 449 1265 q 489 1176 489 1221 q 469 1113 489 1135 q 414 1090 449 1090 z "},"Ђ":{"ha":786,"x_min":17,"x_max":743,"o":"m 500 -17 q 447 -13 472 -17 q 407 -4 422 -10 l 407 131 q 437 124 422 126 q 464 122 451 122 q 551 163 522 122 q 579 293 579 204 l 579 294 q 547 418 579 378 q 449 458 515 458 q 376 447 414 458 q 304 413 339 436 l 347 493 l 347 0 l 186 0 l 186 849 l 17 849 l 17 992 l 581 992 l 581 849 l 347 849 l 347 525 l 294 558 q 385 591 340 581 q 478 601 431 601 q 675 523 607 601 q 743 296 743 444 l 743 294 q 714 126 743 196 q 631 19 685 56 q 500 -17 576 -17 z "},"Ѓ":{"ha":551,"x_min":93,"x_max":533,"o":"m 93 0 l 93 992 l 508 992 l 508 849 l 256 849 l 256 0 l 93 0 m 238 1068 l 238 1085 l 356 1290 l 532 1290 l 532 1278 l 344 1068 l 238 1068 z "},"Є":{"ha":663,"x_min":61,"x_max":624,"o":"m 410 -14 q 220 44 299 -14 q 101 215 142 103 q 61 492 61 328 q 103 762 61 646 q 226 942 144 878 q 425 1006 308 1006 q 528 993 478 1006 q 624 957 578 981 l 576 821 q 501 853 536 843 q 432 864 467 864 q 322 823 367 864 q 253 703 276 782 q 228 504 229 624 l 157 581 l 515 581 l 515 439 l 154 439 l 226 513 q 247 303 225 389 q 317 172 269 217 q 438 128 364 128 q 515 139 475 128 q 594 171 556 150 l 594 29 q 510 -3 561 8 q 410 -14 460 -14 z "},"Ѕ":{"ha":596,"x_min":49,"x_max":550,"o":"m 258 -14 q 188 -10 224 -14 q 116 4 151 -6 q 49 29 81 14 l 49 186 q 144 146 93 161 q 242 131 196 131 q 326 148 294 131 q 371 196 357 165 q 385 265 385 226 q 370 338 385 308 q 324 392 356 367 q 244 444 293 417 q 169 494 204 468 q 109 551 135 519 q 69 627 83 583 q 54 732 54 671 q 88 877 54 815 q 182 973 121 939 q 326 1006 243 1007 q 443 991 388 1006 q 547 950 499 976 l 497 813 q 414 849 454 838 q 339 861 374 861 q 273 847 300 861 q 232 807 246 833 q 218 740 218 781 q 234 669 218 699 q 282 615 250 640 q 363 563 314 590 q 461 493 419 531 q 526 405 503 456 q 550 282 550 354 q 515 128 550 194 q 416 24 481 61 q 258 -14 351 -14 z "},"І":{"ha":350,"x_min":93,"x_max":256,"o":"m 93 0 l 93 992 l 256 992 l 256 0 l 93 0 z "},"Ї":{"ha":363,"x_min":17,"x_max":347,"o":"m 100 0 l 100 992 l 263 992 l 263 0 l 100 0 m 89 1089 q 35 1111 54 1089 q 17 1175 17 1133 q 36 1242 17 1219 q 89 1264 56 1264 q 142 1242 122 1264 q 163 1175 163 1219 q 142 1111 163 1133 q 89 1089 122 1089 m 274 1089 q 220 1111 240 1089 q 200 1175 200 1133 q 220 1242 200 1219 q 274 1264 240 1264 q 328 1242 308 1264 q 347 1176 347 1219 q 328 1111 347 1133 q 274 1089 308 1089 z "},"Ј":{"ha":346,"x_min":-74,"x_max":254,"o":"m 25 -285 q -26 -281 -1 -285 q -74 -269 -51 -278 l -74 -129 q -38 -139 -57 -135 q 3 -143 -19 -143 q 56 -126 36 -143 q 84 -72 75 -110 q 93 31 93 -35 l 93 992 l 254 992 l 254 28 q 228 -157 254 -89 q 151 -255 201 -225 q 25 -285 100 -285 z "},"Љ":{"ha":1060,"x_min":-1,"x_max":1019,"o":"m 82 -14 q 36 -10 57 -14 q -1 -1 15 -7 l -1 139 q 22 133 11 135 q 47 131 33 131 q 90 142 72 131 q 119 182 108 154 q 133 258 129 210 q 144 413 139 336 q 153 575 149 490 q 163 762 158 660 q 174 992 168 864 l 651 992 l 651 628 l 719 628 q 944 550 868 628 q 1019 322 1019 472 q 941 84 1019 168 q 717 0 863 0 l 492 0 l 492 849 l 321 849 q 311 672 315 751 q 303 523 307 593 q 294 385 299 453 q 285 247 290 318 q 256 101 278 160 q 191 15 233 43 q 82 -14 149 -14 m 651 142 l 713 142 q 818 188 782 142 q 854 321 854 233 q 819 447 854 406 q 711 489 783 489 l 651 489 l 651 142 z "},"Њ":{"ha":1046,"x_min":93,"x_max":1006,"o":"m 93 0 l 93 992 l 256 992 l 256 599 l 481 599 l 481 992 l 639 992 l 639 599 l 706 599 q 928 523 851 599 q 1006 304 1006 447 q 926 80 1006 160 q 703 0 846 0 l 481 0 l 481 460 l 256 460 l 256 0 l 93 0 m 639 142 l 697 142 q 803 184 765 142 q 840 304 840 226 q 803 420 840 381 q 697 460 767 460 l 639 460 l 639 142 z "},"Ћ":{"ha":803,"x_min":17,"x_max":733,"o":"m 186 0 l 186 849 l 17 849 l 17 992 l 578 992 l 578 849 l 347 849 l 347 518 l 299 560 q 393 592 349 582 q 483 601 438 601 q 670 536 607 601 q 733 340 733 471 l 733 0 l 572 0 l 572 321 q 544 426 572 394 q 453 458 515 458 q 381 448 417 458 q 306 418 346 438 l 347 483 l 347 0 l 186 0 z "},"Ќ":{"ha":690,"x_min":93,"x_max":696,"o":"m 518 0 l 283 500 l 282 524 l 507 992 l 678 992 l 433 501 l 438 539 l 696 0 l 518 0 m 93 0 l 93 992 l 256 992 l 256 0 l 93 0 m 214 446 l 214 586 l 379 586 l 379 446 l 214 446 m 300 1057 l 300 1074 l 418 1279 l 594 1279 l 594 1267 l 407 1057 l 300 1057 z "},"Ў":{"ha":633,"x_min":11,"x_max":633,"o":"m 142 -14 q 92 -10 115 -14 q 50 1 69 -6 l 50 143 q 81 134 65 138 q 115 131 97 131 q 182 151 154 131 q 232 226 210 172 q 279 381 254 281 l 267 217 l 11 992 l 185 992 l 293 625 q 306 576 300 601 q 319 524 313 551 q 331 467 325 497 l 339 467 q 347 520 343 496 q 358 567 351 544 q 369 615 364 589 l 465 992 l 633 992 l 421 290 q 350 112 389 179 q 261 15 311 44 q 142 -14 211 -14 m 331 1064 q 183 1113 236 1064 q 124 1257 131 1161 l 249 1257 q 272 1182 253 1207 q 332 1157 292 1157 q 392 1183 371 1157 q 415 1257 413 1208 l 542 1257 q 481 1113 533 1163 q 331 1064 428 1064 z "},"Џ":{"ha":765,"x_min":93,"x_max":672,"o":"m 303 -196 l 303 0 l 93 0 l 93 992 l 256 992 l 256 143 l 510 143 l 510 992 l 672 992 l 672 0 l 463 0 l 463 -196 l 303 -196 z "},"А":{"ha":690,"x_min":0,"x_max":690,"o":"m 518 0 l 458 265 l 233 265 l 175 0 l 0 0 l 240 992 l 446 992 l 690 0 l 518 0 m 371 696 q 360 755 365 726 q 352 810 356 783 q 344 860 349 836 q 339 811 343 838 q 330 756 335 785 q 318 697 325 726 l 258 410 l 432 410 l 371 696 z "},"Б":{"ha":676,"x_min":93,"x_max":633,"o":"m 93 0 l 93 992 l 565 992 l 565 849 l 256 849 l 256 599 l 331 599 q 556 524 478 599 q 633 306 633 450 q 554 80 633 160 q 329 0 475 0 l 93 0 m 256 142 l 322 142 q 431 183 394 142 q 468 304 468 225 q 432 421 468 383 q 322 458 396 458 l 256 458 l 256 142 z "},"В":{"ha":701,"x_min":93,"x_max":650,"o":"m 93 0 l 93 992 l 349 992 q 562 930 493 992 q 631 749 631 868 q 614 641 631 688 q 566 565 597 594 q 488 525 535 536 l 488 519 q 578 475 543 506 q 632 397 614 444 q 650 282 650 349 q 619 133 650 196 q 529 35 589 69 q 381 0 469 0 l 93 0 m 256 138 l 357 138 q 451 177 419 138 q 482 294 482 217 q 467 381 482 346 q 422 433 451 415 q 347 450 392 450 l 256 450 l 256 138 m 256 582 l 339 582 q 435 619 403 582 q 467 725 467 656 q 434 823 467 790 q 336 856 401 856 l 256 856 l 256 582 z "}}}
